<?xml version="1.0" encoding="UTF-8" standalone="no"?>
<!-- Created BasicImageExporter --> 
 
<svg
xmlns:dc="http://purl.org/dc/elements/1.1/"
xmlns:cc="http://creativecommons.org/ns#"
xmlns:rdf="http://www.w3.org/1999/02/22-rdf-syntax-ns#"
xmlns:svg="http://www.w3.org/2000/svg"
xmlns="http://www.w3.org/2000/svg"
xmlns:sodipodi="http://sodipodi.sourceforge.net/DTD/sodipodi-0.dtd"
xmlns:inkscape="http://www.inkscape.org/namespaces/inkscape"
width="672px"
height="288px"
viewBox="0 0 42 18"
version="1.1"
id="svg3"
sodipodi:docname=""
inkscape:version="0.92.2 5c3e80d, 2017-08-06">
<metadata 
id="metadata9"> 
<rdf:RDF> 
<cc:Work 
rdf:about=""> 
<dc:format>image/svg+xml</dc:format> 
<dc:type 
rdf:resource="http://purl.org/dc/dcmitype/StillImage" /> 
<dc:title></dc:title> 
</cc:Work> 
</rdf:RDF> 
</metadata> 
<defs 
id="defs7" /> 
<sodipodi:namedview
pagecolor="#ffffff" 
bordercolor="#666666"
borderopacity="1"
objecttolerance="10"
gridtolerance="10" 
guidetolerance="10"
inkscape:pageopacity="0"
inkscape:pageshadow="2" 
inkscape:window-width="1250" 
inkscape:window-height="735"
id="namedview5" 
showgrid="false" 
inkscape:zoom="1"
inkscape:cx="336" 
inkscape:cy="144" 
inkscape:window-x="0" 
inkscape:window-y="0"
inkscape:window-maximized="0"
inkscape:current-layer="svg3" />
<path 
 style="fill:#c0c0a7; fill-opacity:1,fill-rule:evenodd;stroke:#c0c0a7;stroke-width:0.1;stroke-linecap:butt;stroke-linejoin:miter;stroke-opacity:1"
d="M 0 0 C 10.5 -4.5, 31.5 -4.5, 42 0 C 52.5 4.5, 52.5 13.5, 42 18 C 31.5 22.5, 10.5 22.5, 0 18 C -10.5 13.5, -10.5 4.5, 0 0 Z"
id="path1" 
inkscape:connector-curvature="0" sodipodi:nodetypes="cccccccccc" />
<path 
 style="fill:#292929; fill-opacity:1,fill-rule:evenodd;stroke:#292929;stroke-width:0.1;stroke-linecap:butt;stroke-linejoin:miter;stroke-opacity:1"
d="M 7.69867 17.4437 C 8.07153 17.5727, 7.98637 17.4811, 8.24892 17.494 C 8.51147 17.507, 8.49207 17.5014, 8.74888 17.4955 C 9.00568 17.4897, 8.95749 17.5384, 9.27614 17.4705 C 9.5948 17.4026, 9.59494 17.4034, 10.0235 17.2239 C 10.4521 17.0443, 10.5034 16.9952, 10.9904 16.7523 C 11.4774 16.5095, 11.5369 16.4959, 11.9715 16.2524 C 12.406 16.0088, 12.4021 15.9524, 12.7286 15.7782 C 13.0551 15.604, 12.9416 15.5559, 13.2775 15.5557 C 13.6134 15.5555, 13.5263 15.6109, 14.0722 15.7775 C 14.618 15.944, 14.8135 16.049, 15.4608 16.222 C 16.1081 16.3951, 16.2146 16.4006, 16.6613 16.4697 C 17.108 16.5388, 16.974 16.4904, 17.2477 16.4985 C 17.5214 16.5065, 17.5045 16.5011, 17.7561 16.5017 C 18.0076 16.5023, 18.0064 16.5016, 18.2538 16.5009 C 18.5011 16.5002, 18.4987 16.4998, 18.7455 16.4989 C 18.9923 16.498, 18.9919 16.4979, 19.241 16.4974 C 19.4901 16.4968, 19.491 16.497, 19.742 16.4968 C 19.9929 16.4965, 19.9932 16.4971, 20.2448 16.4965 C 20.4963 16.4958, 20.4903 16.501, 20.7481 16.4943 C 21.006 16.4876, 20.9568 16.5375, 21.2763 16.4698 C 21.5958 16.4022, 21.6016 16.3973, 22.0261 16.2237 C 22.4506 16.0502, 22.5497 15.9495, 22.9743 15.7755 C 23.3988 15.6016, 23.405 15.5968, 23.7244 15.528 C 24.0439 15.4591, 23.9951 15.5137, 24.252 15.5003 C 24.5089 15.487, 24.4968 15.543, 24.752 15.4746 C 25.0072 15.4061, 24.9531 15.4083, 25.2728 15.2265 C 25.5925 15.0447, 25.5968 14.9922, 26.0307 14.7474 C 26.4645 14.5026, 26.5138 14.4974, 27.0082 14.2474 C 27.5027 13.9974, 27.5021 13.9973, 28.0086 13.7473 C 28.515 13.4973, 28.4815 13.4896, 29.0342 13.2474 C 29.5869 13.0052, 29.6825 12.9554, 30.2194 12.7785 C 30.7563 12.6015, 30.802 12.5872, 31.1819 12.5396 C 31.5618 12.492, 31.4795 12.4065, 31.7389 12.5879 C 31.9983 12.7694, 32.0377 12.8662, 32.2193 13.2655 C 32.401 13.6647, 32.3965 13.8146, 32.4656 14.1848 C 32.5346 14.5551, 32.4872 14.4801, 32.4955 14.7463 C 32.5039 15.0125, 32.4979 14.9988, 32.4989 15.2496 C 32.4999 15.5005, 32.4977 15.5011, 32.4996 15.7496 C 32.5014 15.9981, 32.4858 15.9951, 32.5063 16.2436 C 32.5269 16.4921, 32.3923 16.4997, 32.5816 16.7436 C 32.7708 16.9875, 32.8633 17.0394, 33.2633 17.2191 C 33.6633 17.3988, 33.8115 17.4005, 34.1815 17.4624 C 34.5515 17.5243, 34.477 17.5264, 34.7434 17.4666 C 35.0098 17.4068, 34.9962 17.4024, 35.2471 17.2233 C 35.498 17.0441, 35.4962 16.9933, 35.747 16.75 C 35.9978 16.5066, 36.0008 16.4993, 36.2503 16.25 C 36.4998 16.0007, 36.5033 16.002, 36.745 15.7527 C 36.9866 15.5034, 37.0367 15.5051, 37.2169 15.2527 C 37.397 15.0004, 37.4035 15.0098, 37.4655 14.7432 C 37.5275 14.4767, 37.5258 14.5661, 37.4648 14.1865 C 37.4039 13.8068, 37.3796 13.7008, 37.2217 13.2245 C 37.0637 12.7482, 36.8169 12.6441, 36.8332 12.2812 C 36.8496 11.9184, 36.9319 11.9751, 37.287 11.7731 C 37.6421 11.5711, 37.7683 11.67, 38.2536 11.4733 C 38.7389 11.2765, 38.7622 11.2828, 39.2282 10.986 C 39.6941 10.6891, 39.8823 10.5975, 40.1174 10.2859 C 40.3525 9.97431, 40.2892 10.017, 40.1685 9.73969 C 40.0478 9.46234, 40.0562 9.5455, 39.6346 9.17648 C 39.2129 8.80745, 39.059 8.66078, 38.482 8.2636 C 37.9051 7.86643, 37.7666 7.76907, 37.3268 7.58778 C 36.8869 7.40648, 37.0603 7.49103, 36.7226 7.53843 C 36.3848 7.58583, 36.4062 7.59899, 35.9759 7.77739 C 35.5455 7.95579, 35.4917 8.00839, 35.0013 8.25204 C 34.5108 8.49569, 34.4478 8.51553, 34.014 8.752 C 33.5802 8.98846, 33.5835 9.08921, 33.2661 9.19789 C 32.9487 9.30657, 33.0001 9.30187, 32.7444 9.18672 C 32.4888 9.07157, 32.4921 8.97153, 32.2434 8.73728 C 31.9947 8.50303, 31.9978 8.49614, 31.7496 8.24971 C 31.5014 8.00327, 31.5005 8.00146, 31.2506 7.75156 C 31.0007 7.50165, 31 7.50174, 30.7499 7.25009 C 30.4997 6.99844, 30.4874 6.99619, 30.2499 6.74495 C 30.0124 6.49371, 29.9124 6.49332, 29.7999 6.24512 C 29.6873 5.99693, 29.6947 6.0004, 29.7999 5.75217 C 29.905 5.50395, 30.0606 5.51055, 30.2204 5.25221 C 30.3802 4.99388, 30.4395 5.0311, 30.4392 4.71882 C 30.4388 4.40655, 30.4053 4.36176, 30.2189 4.00312 C 30.0324 3.64449, 30.0601 3.59022, 29.6935 3.2843 C 29.3269 2.97838, 29.2225 2.96708, 28.7525 2.77946 C 28.2824 2.59184, 28.1879 2.60157, 27.8133 2.53383 C 27.4388 2.46608, 27.527 2.50905, 27.2543 2.50847 C 26.9817 2.50789, 27.0383 2.46429, 26.7227 2.5315 C 26.407 2.59871, 26.355 2.61015, 25.9915 2.77731 C 25.6281 2.94447, 25.5837 3.09443, 25.2689 3.20014 C 24.9541 3.30585, 25.0519 3.31052, 24.7324 3.20014 C 24.4129 3.08976, 24.441 2.99399, 23.9911 2.75862 C 23.5412 2.52325, 23.6065 2.50317, 22.9328 2.25866 C 22.2592 2.01415, 22.0588 1.96165, 21.2965 1.78057 C 20.5342 1.59948, 20.392 1.60334, 19.8836 1.53432 C 19.3751 1.46529, 19.5453 1.51273, 19.2626 1.50447 C 18.98 1.49621, 19.0052 1.50193, 18.7531 1.50127 C 18.501 1.5006, 18.5039 1.50136, 18.2542 1.50181 C 18.0045 1.50226, 18.0049 1.50201, 17.7543 1.50305 C 17.5037 1.5041, 17.5096 1.49897, 17.2518 1.50599 C 16.994 1.513, 17.0428 1.46336, 16.723 1.53111 C 16.4033 1.59887, 16.397 1.60403, 15.973 1.777 C 15.549 1.94997, 15.451 2.05003, 15.027 2.223 C 14.603 2.39597, 14.5967 2.40113, 14.277 2.46889 C 13.9572 2.53665, 14.0059 2.48698, 13.7482 2.49403 C 13.4904 2.50108, 13.4961 2.49588, 13.246 2.49708 C 12.9958 2.49829, 12.9962 2.49788, 12.7477 2.49885 C 12.4992 2.49982, 12.5006 2.50017, 12.2519 2.50097 C 12.0033 2.50176, 12.0032 2.50188, 11.753 2.50203 C 11.5028 2.50219, 11.5017 2.50188, 11.2511 2.5016 C 11.0004 2.50132, 11.0006 2.50102, 10.7504 2.50092 C 10.5003 2.50081, 10.5007 2.50114, 10.2505 2.50118 C 10.0003 2.50123, 9.99983 2.50128, 9.74963 2.50109 C 9.49944 2.5009, 9.49972 2.50054, 9.24967 2.50044 C 8.99963 2.50033, 8.99951 2.49947, 8.74947 2.50068 C 8.49943 2.50189, 8.51221 2.49141, 8.24951 2.50528 C 7.98681 2.51916, 8.0761 2.4248, 7.69867 2.55616 C 7.32125 2.68753, 7.22915 2.73743, 6.73981 3.03074 C 6.25046 3.32405, 6.25124 3.42459, 5.74131 3.72941 C 5.23138 4.03423, 5.31045 3.99488, 4.7001 4.25002 C 4.08975 4.50516, 3.89747 4.50123, 3.2999 4.74998 C 2.70233 4.99873, 2.69415 4.9967, 2.30983 5.24502 C 1.92551 5.49333, 2.02499 5.49341, 1.76262 5.74325 C 1.50025 5.99309, 1.50457 5.99363, 1.26034 6.24437 C 1.0161 6.49511, 0.967593 6.49366, 0.785691 6.74622 C 0.603788 6.99878, 0.601859 7.00022, 0.532727 7.2546 C 0.463594 7.50898, 0.508486 7.48944, 0.509161 7.76372 C 0.509836 8.038, 0.467511 7.91356, 0.535426 8.35172 C 0.603342 8.78988, 0.600131 8.93583, 0.780825 9.51637 C 0.961518 10.0969, 1.01061 10.2388, 1.2582 10.6739 C 1.50579 11.1089, 1.50756 10.9858, 1.7712 11.2565 C 2.03485 11.5272, 1.92823 11.5069, 2.31278 11.7565 C 2.69733 12.006, 2.71854 12.0052, 3.30941 12.2548 C 3.90028 12.5043, 4.21397 12.5049, 4.67626 12.7547 C 5.13855 13.0046, 5.13471 13.0043, 5.15857 13.2541 C 5.18243 13.5039, 4.92107 13.4973, 4.77169 13.754 C 4.62231 14.0108, 4.55868 13.969, 4.56106 14.2813 C 4.56345 14.5935, 4.60734 14.6429, 4.78123 15.003 C 4.95513 15.3631, 4.99807 15.4026, 5.25664 15.7217 C 5.51521 16.0408, 5.44029 15.9653, 5.8155 16.2794 C 6.19072 16.5935, 6.2867 16.687, 6.75749 16.9781 C 7.22828 17.2692, 7.32582 17.3148, 7.69867 17.4437 ZM 7.24756 16.2205 C 6.77752 16.0329, 6.67301 16.0215, 6.30652 15.7157 C 5.94004 15.4098, 5.96759 15.3558, 5.78162 14.9973 C 5.59564 14.6388, 5.56106 14.5944, 5.56263 14.2817 C 5.5642 13.969, 5.61306 14.0053, 5.78791 13.7465 C 5.96276 13.4878, 6.02021 13.4832, 6.26203 13.2466 C 6.50385 13.0099, 6.52069 12.9115, 6.75518 12.7999 C 6.98967 12.6882, 7.08784 12.6878, 7.19999 12.7999 C 7.31214 12.9119, 7.2968 13.011, 7.20379 13.2481 C 7.11079 13.4851, 6.86902 13.5062, 6.82798 13.748 C 6.78693 13.9899, 6.81772 14.0453, 7.03962 14.2156 C 7.26152 14.3859, 7.40471 14.4463, 7.71557 14.4292 C 8.02643 14.4122, 7.96567 14.4469, 8.28305 14.1476 C 8.60044 13.8482, 8.68934 13.6943, 8.9851 13.2319 C 9.28087 12.7695, 9.29755 12.6515, 9.46611 12.298 C 9.63467 11.9444, 9.71802 12.018, 9.65933 11.8179 C 9.60063 11.6177, 9.4645 11.6446, 9.23133 11.4973 C 8.99817 11.3501, 9.03338 11.4086, 8.72667 11.2287 C 8.41995 11.0488, 8.36667 10.9514, 8.00446 10.7778 C 7.64224 10.6041, 7.59834 10.5951, 7.27779 10.5342 C 6.95724 10.4733, 7.04297 10.4733, 6.72224 10.5342 C 6.40151 10.5951, 6.35728 10.6051, 5.99487 10.7777 C 5.63247 10.9503, 5.58545 11.0519, 5.27263 11.2245 C 4.95981 11.3971, 5.01583 11.4083, 4.74358 11.468 C 4.47133 11.5278, 4.55683 11.5256, 4.18362 11.4636 C 3.81041 11.4016, 3.71898 11.4136, 3.25074 11.2201 C 2.7825 11.0265, 2.67839 11.0571, 2.31066 10.6893 C 1.94293 10.3216, 1.97352 10.2174, 1.77983 9.74904 C 1.58615 9.28066, 1.59836 9.1923, 1.53592 8.8158 C 1.47349 8.4393, 1.53704 8.50829, 1.5301 8.24304 C 1.52316 7.97779, 1.50202 8.01418, 1.50816 7.75481 C 1.51431 7.49544, 1.47002 7.46504, 1.55469 7.20555 C 1.63935 6.94606, 1.54739 7.01054, 1.84682 6.71684 C 2.14625 6.42313, 2.27053 6.30646, 2.75241 6.03072 C 3.23428 5.75498, 3.4143 5.72627, 3.77431 5.61388 C 4.13432 5.50148, 3.94691 5.60665, 4.19245 5.58114 C 4.438 5.55564, 4.47924 5.51794, 4.75648 5.51186 C 5.03371 5.50578, 4.92964 5.42918, 5.30139 5.55682 C 5.67315 5.68446, 5.77155 5.73137, 6.24349 6.02242 C 6.71543 6.31348, 6.82908 6.43065, 7.18916 6.72103 C 7.54923 7.01141, 7.41313 6.98976, 7.68379 7.18393 C 7.95445 7.37811, 7.93793 7.35077, 8.27179 7.49772 C 8.60566 7.64468, 8.59291 7.58537, 9.01927 7.77175 C 9.44563 7.95813, 9.50632 8.00038, 9.97723 8.24324 C 10.4482 8.4861, 10.6039 8.49333, 10.9029 8.7432 C 11.202 8.99307, 11.2063 8.99284, 11.1734 9.24271 C 11.1405 9.49257, 10.9393 9.49515, 10.7713 9.74267 C 10.6033 9.99018, 10.5691 9.98099, 10.5013 10.2328 C 10.4335 10.4845, 10.5028 10.4978, 10.5 10.7497 C 10.4973 11.0017, 10.5271 10.9756, 10.4904 11.2406 C 10.4538 11.5057, 10.2875 11.5577, 10.3535 11.81 C 10.4194 12.0623, 10.5312 12.0171, 10.7542 12.2498 C 10.9772 12.4825, 10.9977 12.5058, 11.2455 12.7408 C 11.4933 12.9758, 11.5068 13.0753, 11.7455 13.1898 C 11.9841 13.3044, 12.0865 13.3189, 12.2001 13.1989 C 12.3138 13.0789, 12.3054 13.0676, 12.2001 12.7098 C 12.0948 12.3521, 11.9449 12.2414, 11.779 11.7678 C 11.613 11.2942, 11.5961 11.1929, 11.5363 10.8153 C 11.4765 10.4377, 11.4618 10.5319, 11.5397 10.2573 C 11.6177 9.98277, 11.5422 10.0267, 11.8482 9.71709 C 12.1543 9.40751, 12.3014 9.30894, 12.7639 9.01899 C 13.2264 8.72903, 13.3268 8.68591, 13.6981 8.55728 C 14.0694 8.42864, 13.9863 8.5232, 14.2491 8.50446 C 14.5118 8.48571, 14.5103 8.52456, 14.749 8.48228 C 14.9877 8.44, 14.9529 8.51851, 15.2038 8.33534 C 15.4547 8.15217, 15.491 8.02104, 15.7526 7.74961 C 16.0141 7.47817, 16.0007 7.49941, 16.25 7.24959 C 16.4994 6.99977, 16.5163 6.98489, 16.75 6.75032 C 16.9836 6.51576, 17.0046 6.56025, 17.1845 6.31133 C 17.3645 6.0624, 17.3976 6.01879, 17.4698 5.75463 C 17.542 5.49046, 17.5251 5.50808, 17.4733 5.25467 C 17.4215 5.00125, 17.4342 5.05223, 17.2626 4.74097 C 17.091 4.42972, 16.9478 4.37319, 16.7868 4.00965 C 16.6257 3.6461, 16.4983 3.59362, 16.6183 3.2868 C 16.7383 2.97997, 16.8791 2.96689, 17.2668 2.78234 C 17.6545 2.59779, 17.7802 2.57554, 18.169 2.54858 C 18.5578 2.52163, 18.5508 2.681, 18.822 2.6745 C 19.0932 2.66801, 19.0208 2.56094, 19.2537 2.5226 C 19.4866 2.48426, 19.5188 2.48359, 19.7536 2.52114 C 19.9884 2.55869, 19.9252 2.66687, 20.1928 2.6728 C 20.4604 2.67873, 20.4271 2.51828, 20.824 2.54486 C 21.2209 2.57144, 21.2423 2.6018, 21.7804 2.77913 C 22.3185 2.95647, 22.417 3.00822, 22.9763 3.25421 C 23.5356 3.50019, 23.4699 3.48886, 24.0175 3.76308 C 24.5652 4.03729, 24.358 3.91259, 25.1669 4.35105 C 25.9759 4.78952, 26.2716 4.93599, 27.2532 5.51693 C 28.2348 6.09788, 28.4706 6.24156, 29.0932 6.67483 C 29.7159 7.1081, 29.4542 6.98108, 29.7436 7.25001 C 30.0331 7.51895, 29.9991 7.50047, 30.2509 7.75058 C 30.5026 8.00069, 30.5012 8.00078, 30.7507 8.25045 C 31.0002 8.50012, 30.9998 8.49977, 31.2489 8.74926 C 31.498 8.99875, 31.4969 8.99842, 31.7472 9.24841 C 31.9976 9.4984, 31.9977 9.50372, 32.2502 9.74923 C 32.5028 9.99475, 32.5057 10.1087, 32.7574 10.2305 C 33.0091 10.3522, 32.941 10.3563, 33.257 10.2362 C 33.573 10.1161, 33.5909 9.9966, 34.0214 9.75008 C 34.4519 9.50357, 34.5521 9.49376, 34.979 9.25013 C 35.4059 9.00649, 35.4098 8.95511, 35.7291 8.77556 C 36.0484 8.59601, 35.9849 8.59195, 36.2563 8.53193 C 36.5277 8.47192, 36.4392 8.4737, 36.8147 8.53551 C 37.1902 8.59731, 37.2932 8.60361, 37.7584 8.77914 C 38.2236 8.95466, 38.3295 8.99801, 38.6754 9.23762 C 39.0213 9.47723, 39.1286 9.49224, 39.1419 9.73758 C 39.1553 9.98292, 39.0603 10.0371, 38.7288 10.219 C 38.3973 10.4009, 38.1896 10.3955, 37.8158 10.4652 C 37.4421 10.5349, 37.4998 10.4213, 37.2338 10.4978 C 36.9678 10.5743, 36.9951 10.5843, 36.7518 10.7712 C 36.5085 10.9582, 36.4968 11.002, 36.2606 11.2456 C 36.0244 11.4892, 35.9304 11.4927, 35.8071 11.7456 C 35.6837 11.9985, 35.6635 11.945, 35.7673 12.2572 C 35.871 12.5693, 36.048 12.6281, 36.222 12.9943 C 36.3959 13.3604, 36.4089 13.3948, 36.463 13.7219 C 36.5171 14.049, 36.5591 13.924, 36.4385 14.3026 C 36.3179 14.6811, 36.2695 14.7748, 35.9807 15.236 C 35.6919 15.6972, 35.5992 15.8486, 35.2833 16.1473 C 34.9674 16.446, 35.0336 16.4135, 34.717 16.4309 C 34.4004 16.4483, 34.3073 16.3859, 34.0169 16.2171 C 33.7265 16.0482, 33.683 15.9959, 33.5553 15.7555 C 33.4276 15.5151, 33.5194 15.5064, 33.5062 15.2555 C 33.493 15.0046, 33.4984 15.0065, 33.5026 14.7519 C 33.5068 14.4974, 33.5303 14.4945, 33.5229 14.2372 C 33.5155 13.98, 33.5479 14.0313, 33.4729 13.723 C 33.3979 13.4147, 33.4116 13.3645, 33.2231 13.004 C 33.0346 12.6435, 33.0254 12.5875, 32.7189 12.281 C 32.4125 11.9745, 32.3573 11.9648, 31.9971 11.7782 C 31.637 11.5916, 31.5967 11.5959, 31.2782 11.5346 C 30.9598 11.4733, 31.0495 11.4725, 30.7234 11.533 C 30.3973 11.5935, 30.399 11.6029, 29.9739 11.7766 C 29.5488 11.9502, 29.4483 12.0476, 29.023 12.2275 C 28.5977 12.4074, 28.6416 12.3499, 28.2726 12.4962 C 27.9036 12.6425, 27.8987 12.6161, 27.547 12.8126 C 27.1952 13.009, 27.4518 12.9832, 26.8655 13.282 C 26.2792 13.5809, 26.0887 13.6471, 25.2018 14.0081 C 24.3148 14.3691, 24.1071 14.4217, 23.3177 14.7261 C 22.5284 15.0304, 22.5553 15.0387, 22.0445 15.2254 C 21.5337 15.4121, 21.5982 15.4049, 21.2746 15.4729 C 20.9511 15.5409, 21.0063 15.4907, 20.7502 15.4973 C 20.4942 15.504, 20.5002 15.499, 20.2503 15.4996 C 20.0003 15.5001, 20.0004 15.4998, 19.7504 15.4995 C 19.5005 15.4992, 19.5008 15.4989, 19.2505 15.4985 C 19.0001 15.4981, 18.9996 15.4979, 18.7489 15.4978 C 18.4982 15.4978, 18.498 15.4981, 18.2478 15.4984 C 17.9976 15.4986, 17.9996 15.4994, 17.7482 15.4988 C 17.4968 15.4981, 17.515 15.5034, 17.2422 15.4957 C 16.9694 15.488, 17.1029 15.5364, 16.6571 15.4679 C 16.2113 15.3993, 16.1052 15.394, 15.459 15.2214 C 14.8128 15.0488, 14.6176 14.9439, 14.0722 14.7775 C 13.5268 14.611, 13.6134 14.5555, 13.2775 14.5557 C 12.9416 14.5559, 13.0551 14.604, 12.7286 14.7782 C 12.4021 14.9524, 12.406 15.0088, 11.9714 15.2524 C 11.5369 15.4959, 11.4773 15.5095, 10.9903 15.7523 C 10.5034 15.9952, 10.4522 16.0444, 10.0237 16.2237 C 9.59517 16.403, 9.59583 16.4026, 9.27634 16.4696 C 8.95685 16.5366, 9.01811 16.4925, 8.74569 16.4917 C 8.47328 16.4908, 8.56122 16.534, 8.18669 16.4662 C 7.81215 16.3984, 7.7176 16.4082, 7.24756 16.2205 ZM 22.1353 13.438 C 22.6344 13.5585, 22.4612 13.5183, 22.7407 13.4626 C 23.0202 13.4069, 23.0002 13.3964, 23.2533 13.2153 C 23.5064 13.0342, 23.5165 12.981, 23.7532 12.7384 C 23.99 12.4957, 24.0884 12.5018, 24.2001 12.2448 C 24.3119 11.9879, 24.313 12.0947, 24.2001 11.7105 C 24.0873 11.3263, 23.9866 11.3112, 23.7487 10.708 C 23.5109 10.1048, 23.4982 9.89972, 23.2488 9.29779 C 22.9994 8.69587, 22.9725 8.66951, 22.7512 8.3003 C 22.5299 7.93108, 22.6209 8.00676, 22.3636 7.82093 C 22.1063 7.6351, 22.0286 7.58169, 21.7219 7.55698 C 21.4153 7.53226, 21.3013 7.55339, 21.137 7.72207 C 20.9728 7.89075, 20.9162 8.02286, 21.0649 8.23169 C 21.2136 8.44053, 21.4367 8.28653, 21.7317 8.55741 C 22.0266 8.8283, 21.9915 8.77788, 22.2447 9.31523 C 22.498 9.85257, 22.5121 10.1063, 22.7447 10.7068 C 22.9773 11.3073, 23.1224 11.3392, 23.1753 11.7174 C 23.2281 12.0955, 23.1796 12.0329, 22.956 12.2192 C 22.7324 12.4056, 22.589 12.4007, 22.2808 12.4626 C 21.9726 12.5245, 22.0495 12.5266, 21.7234 12.4668 C 21.3972 12.407, 21.4028 12.4014, 20.9762 12.2234 C 20.5497 12.0454, 20.4948 11.9969, 20.0172 11.7548 C 19.5396 11.5126, 19.4308 11.5045, 19.0658 11.2548 C 18.7007 11.0051, 18.697 11.0056, 18.5572 10.7559 C 18.4173 10.5062, 18.5213 10.5081, 18.5064 10.256 C 18.4915 10.0038, 18.5069 9.99941, 18.4976 9.74724 C 18.4883 9.49506, 18.5477 9.4986, 18.4691 9.24728 C 18.3904 8.99595, 18.3559 8.8552, 18.183 8.74194 C 18.0101 8.62867, 17.9418 8.66773, 17.7773 8.79422 C 17.6129 8.92072, 17.6107 8.99738, 17.5253 9.2479 C 17.4399 9.49842, 17.4365 9.53917, 17.4357 9.7963 C 17.4349 10.0534, 17.4368 9.97688, 17.522 10.2764 C 17.6071 10.576, 17.5854 10.6341, 17.7764 10.9945 C 17.9674 11.3549, 17.9461 11.3959, 18.286 11.7181 C 18.6259 12.0403, 18.5213 11.9677, 19.1359 12.2833 C 19.7504 12.5989, 19.9945 12.6919, 20.7444 12.9806 C 21.4942 13.2692, 21.6362 13.3175, 22.1353 13.438 ZM 9.74472 6.98074 C 8.99465 6.69189, 8.75054 6.59904, 8.13587 6.28327 C 7.5212 5.96751, 7.62393 6.03799, 7.28605 5.71769 C 6.94816 5.39739, 6.95812 5.3604, 6.78433 5.00207 C 6.61054 4.64374, 6.53022 4.59003, 6.5909 4.28437 C 6.65158 3.97872, 6.74463 3.96714, 7.02704 3.77945 C 7.30944 3.59176, 7.4143 3.60197, 7.72051 3.53361 C 8.02673 3.46526, 7.9931 3.51347, 8.2519 3.50602 C 8.5107 3.49857, 8.50203 3.50377, 8.75571 3.5038 C 9.00939 3.50384, 8.98365 3.49826, 9.2666 3.50617 C 9.54954 3.51408, 9.38131 3.4667, 9.8875 3.53544 C 10.3937 3.60418, 10.5965 3.59322, 11.2913 3.78114 C 11.9862 3.96906, 12.185 3.98107, 12.6668 4.28711 C 13.1485 4.59316, 13.0256 4.64756, 13.2183 5.00533 C 13.4109 5.36311, 13.4387 5.40623, 13.4372 5.71822 C 13.4358 6.0302, 13.3866 5.99452, 13.2125 6.25328 C 13.0384 6.51203, 12.9821 6.51079, 12.7408 6.75324 C 12.4995 6.99568, 12.4971 7.04531, 12.2472 7.22306 C 11.9973 7.4008, 12.019 7.41032, 11.7412 7.46422 C 11.4634 7.51813, 11.6353 7.55955, 11.1361 7.43868 C 10.637 7.31781, 10.4948 7.26959, 9.74472 6.98074 ZM 14.0399 7.21559 C 13.8191 7.04483, 13.7841 6.98843, 13.8323 6.74605 C 13.8805 6.50368, 14.0717 6.49468, 14.2327 6.24609 C 14.3938 5.99751, 14.395 6.01492, 14.4766 5.75172 C 14.5583 5.48852, 14.6194 5.44477, 14.5594 5.19329 C 14.4995 4.94181, 14.4267 4.98267, 14.2368 4.7458 C 14.0469 4.50894, 13.9091 4.48604, 13.7999 4.24585 C 13.6906 4.00565, 13.6732 3.94857, 13.7999 3.78501 C 13.9265 3.62144, 13.9469 3.53222, 14.3065 3.59158 C 14.6662 3.65094, 14.7801 3.74136, 15.2384 4.02244 C 15.6966 4.30353, 15.864 4.41499, 16.1395 4.71591 C 16.415 5.01683, 16.3839 4.84246, 16.3404 5.22613 C 16.2968 5.6098, 16.2294 5.77079, 15.9653 6.2506 C 15.7013 6.7304, 15.5966 6.85072, 15.2841 7.14534 C 14.9717 7.43997, 15.0266 7.41153, 14.7155 7.42909 C 14.4045 7.44666, 14.2608 7.38635, 14.0399 7.21559 ZM 9.20014 5.20014 C 9.30021 5.10007, 9.30021 4.89993, 9.20014 4.79986 C 9.10007 4.69979, 8.89993 4.69979, 8.79986 4.79986 C 8.69979 4.89993, 8.69979 5.10007, 8.79986 5.20014 C 8.89993 5.30021, 9.10007 5.30021, 9.20014 5.20014 ZM 11.2001 5.20014 C 11.3002 5.10007, 11.3002 4.89993, 11.2001 4.79986 C 11.1001 4.69979, 10.8999 4.69979, 10.7999 4.79986 C 10.6998 4.89993, 10.6998 5.10007, 10.7999 5.20014 C 10.8999 5.30021, 11.1001 5.30021, 11.2001 5.20014 ZM 28.7554 5.20014 C 28.5242 5.09607, 28.5499 4.96018, 28.2917 4.78386 C 28.0335 4.60754, 28.0315 4.63517, 27.7225 4.49485 C 27.4136 4.35454, 27.2233 4.40115, 27.0558 4.22259 C 26.8883 4.04403, 26.8867 3.95273, 27.0526 3.78062 C 27.2185 3.60851, 27.4213 3.60216, 27.7193 3.53414 C 28.0174 3.46612, 27.9885 3.50295, 28.2449 3.50853 C 28.5013 3.51411, 28.5024 3.42954, 28.7449 3.55647 C 28.9874 3.6834, 29.0478 3.72181, 29.215 4.01625 C 29.3821 4.31069, 29.4129 4.43826, 29.4134 4.73423 C 29.4138 5.0302, 29.3812 5.08366, 29.2167 5.20014 C 29.0522 5.31662, 28.9867 5.30421, 28.7554 5.20014 Z"
id="path2" 
inkscape:connector-curvature="0" sodipodi:nodetypes="cccccccccc" />
<path 
 style="fill:#4242de; fill-opacity:1,fill-rule:evenodd;stroke:#4242de;stroke-width:0.1;stroke-linecap:butt;stroke-linejoin:miter;stroke-opacity:1"
d="M 34.717 16.4309 C 35.0336 16.4135, 34.9674 16.446, 35.2833 16.1473 C 35.5992 15.8486, 35.6919 15.6972, 35.9807 15.236 C 36.2695 14.7748, 36.3179 14.6811, 36.4385 14.3026 C 36.5591 13.924, 36.5171 14.049, 36.463 13.7219 C 36.4089 13.3948, 36.3959 13.3604, 36.222 12.9943 C 36.048 12.6281, 35.9752 12.3001, 35.7673 12.2572 C 35.5593 12.2142, 35.489 12.594, 35.3902 12.8225 C 35.2914 13.051, 35.417 12.8795, 35.3719 13.1711 C 35.3267 13.4627, 35.3667 13.6711, 35.2096 13.9889 C 35.0526 14.3066, 34.9851 14.3202, 34.7436 14.4421 C 34.5021 14.5639, 34.5488 14.5276, 34.2436 14.4764 C 33.9384 14.4252, 33.7082 14.1683, 33.5229 14.2372 C 33.3377 14.3061, 33.5068 14.4974, 33.5026 14.7519 C 33.4984 15.0065, 33.493 15.0046, 33.5062 15.2555 C 33.5194 15.5064, 33.4276 15.5151, 33.5553 15.7555 C 33.683 15.9959, 33.7265 16.0482, 34.0169 16.2171 C 34.3073 16.3859, 34.4004 16.4483, 34.717 16.4309 ZM 4.18362 11.4636 C 4.55683 11.5256, 4.47133 11.5278, 4.74358 11.468 C 5.01583 11.4083, 4.95981 11.3971, 5.27263 11.2245 C 5.58545 11.0519, 5.63247 10.9503, 5.99487 10.7777 C 6.35728 10.6051, 6.40151 10.5951, 6.72224 10.5342 C 7.04297 10.4733, 6.95724 10.4733, 7.27779 10.5342 C 7.59834 10.5951, 7.64224 10.6041, 8.00446 10.7778 C 8.36667 10.9514, 8.41995 11.0488, 8.72667 11.2287 C 9.03338 11.4086, 8.99817 11.3501, 9.23133 11.4973 C 9.4645 11.6446, 9.37879 11.7397, 9.65933 11.8179 C 9.93986 11.896, 10.1457 11.9543, 10.3535 11.81 C 10.5613 11.6657, 10.4538 11.5057, 10.4904 11.2406 C 10.5271 10.9756, 10.4973 11.0017, 10.5 10.7497 C 10.5028 10.4978, 10.7095 10.3696, 10.5013 10.2328 C 10.2931 10.096, 10.2203 10.3156, 9.66741 10.2025 C 9.11451 10.0895, 8.98613 9.94777, 8.28969 9.78056 C 7.59325 9.61335, 7.38858 9.60288, 6.88165 9.53368 C 6.37472 9.46448, 6.54333 9.51172, 6.26197 9.50375 C 5.98061 9.49579, 6.00801 9.50229, 5.75621 9.50182 C 5.50441 9.50134, 5.50652 9.5027, 5.25478 9.50185 C 5.00303 9.50101, 5.01516 9.50658, 4.74923 9.49845 C 4.48331 9.49032, 4.56782 9.53852, 4.19107 9.46935 C 3.81432 9.40017, 3.71531 9.39921, 3.24223 9.22176 C 2.76915 9.04432, 2.72678 9.00425, 2.29875 8.75957 C 1.87072 8.51489, 1.72081 8.22898, 1.5301 8.24304 C 1.3394 8.2571, 1.47349 8.4393, 1.53592 8.8158 C 1.59836 9.1923, 1.58615 9.28066, 1.77983 9.74904 C 1.97352 10.2174, 1.94293 10.3216, 2.31066 10.6893 C 2.67839 11.0571, 2.7825 11.0265, 3.25074 11.2201 C 3.71898 11.4136, 3.81041 11.4016, 4.18362 11.4636 ZM 32.7574 10.2305 C 32.9626 10.249, 32.5028 9.99475, 32.2502 9.74923 C 31.9977 9.50372, 31.9976 9.4984, 31.7472 9.24841 C 31.4969 8.99842, 31.498 8.99875, 31.2489 8.74926 C 30.9998 8.49977, 31.0002 8.50012, 30.7507 8.25045 C 30.5012 8.00078, 30.5026 8.00069, 30.2509 7.75058 C 29.9991 7.50047, 30.0331 7.51895, 29.7436 7.25001 C 29.4542 6.98108, 29.7159 7.1081, 29.0932 6.67483 C 28.4706 6.24156, 28.2348 6.09788, 27.2532 5.51693 C 26.2716 4.93599, 25.9759 4.78952, 25.1669 4.35105 C 24.358 3.91259, 24.5652 4.03729, 24.0175 3.76308 C 23.4699 3.48886, 23.5356 3.50019, 22.9763 3.25421 C 22.417 3.00822, 22.3185 2.95647, 21.7804 2.77913 C 21.2423 2.6018, 21.2209 2.57144, 20.824 2.54486 C 20.4271 2.51828, 20.3489 2.50459, 20.1928 2.6728 C 20.0367 2.84101, 20.3187 3.02739, 20.1996 3.21771 C 20.0805 3.40803, 20.0058 3.43439, 19.7164 3.43408 C 19.427 3.43376, 19.2656 3.40634, 19.042 3.21645 C 18.8184 3.02656, 19.0402 2.84147, 18.822 2.6745 C 18.6038 2.50754, 18.5578 2.52163, 18.169 2.54858 C 17.7802 2.57554, 17.6545 2.59779, 17.2668 2.78234 C 16.8791 2.96689, 16.7383 2.97997, 16.6183 3.2868 C 16.4983 3.59362, 16.6257 3.6461, 16.7868 4.00965 C 16.9478 4.37319, 17.0164 4.61365, 17.2626 4.74097 C 17.5088 4.8683, 17.5228 4.57842, 17.7714 4.51895 C 18.02 4.45949, 18.0115 4.50757, 18.2569 4.50312 C 18.5023 4.49868, 18.5033 4.50145, 18.753 4.50117 C 19.0026 4.50089, 19.0009 4.5009, 19.2554 4.50199 C 19.5098 4.50308, 19.479 4.49721, 19.7707 4.50553 C 20.0624 4.51385, 19.8469 4.46639, 20.4223 4.53528 C 20.9977 4.60418, 21.1968 4.60048, 22.0724 4.78111 C 22.9479 4.96175, 23.1901 5.01327, 23.9246 5.25783 C 24.659 5.5024, 24.4908 5.51098, 25.0101 5.75937 C 25.5295 6.00776, 25.5058 6.00375, 26.0021 6.2514 C 26.4985 6.49904, 26.4843 6.48748, 26.9955 6.74994 C 27.5066 7.0124, 27.4046 6.91127, 28.0467 7.30124 C 28.6889 7.6912, 28.7184 7.71628, 29.5641 8.3098 C 30.4098 8.90332, 30.6312 9.19515, 31.4296 9.67532 C 32.2279 10.1555, 32.5523 10.212, 32.7574 10.2305 ZM 33.7594 10.4872 C 34.0123 10.5722, 33.961 10.6379, 34.2686 10.5761 C 34.5761 10.5144, 34.6242 10.4384, 34.9895 10.2402 C 35.3548 10.0421, 35.4334 9.93202, 35.7297 9.78342 C 36.026 9.63481, 35.8654 9.64364, 36.1746 9.64581 C 36.4838 9.64798, 36.7017 9.57909, 36.9665 9.79209 C 37.2313 10.0051, 37.0214 10.3295, 37.2338 10.4978 C 37.4461 10.6661, 37.4421 10.5349, 37.8158 10.4652 C 38.1896 10.3955, 38.3973 10.4009, 38.7288 10.219 C 39.0603 10.0371, 39.1553 9.98292, 39.1419 9.73758 C 39.1286 9.49224, 39.0213 9.47723, 38.6754 9.23762 C 38.3295 8.99801, 38.2236 8.95466, 37.7584 8.77914 C 37.2932 8.60361, 37.1902 8.59731, 36.8147 8.53551 C 36.4392 8.4737, 36.5277 8.47192, 36.2563 8.53193 C 35.9849 8.59195, 36.0484 8.59601, 35.7291 8.77556 C 35.4098 8.95511, 35.4059 9.00649, 34.979 9.25013 C 34.5521 9.49376, 34.4519 9.50357, 34.0214 9.75008 C 33.5909 9.9966, 33.3225 10.0519, 33.257 10.2362 C 33.1915 10.4205, 33.5065 10.4023, 33.7594 10.4872 ZM 27.7225 4.49485 C 28.0315 4.63517, 28.0301 4.77341, 28.2917 4.78386 C 28.5533 4.79431, 28.4886 4.54907, 28.769 4.53666 C 29.0494 4.52425, 29.3019 4.86433, 29.4134 4.73423 C 29.5249 4.60413, 29.3821 4.31069, 29.215 4.01625 C 29.0478 3.72181, 28.9874 3.6834, 28.7449 3.55647 C 28.5024 3.42954, 28.5013 3.51411, 28.2449 3.50853 C 27.9885 3.50295, 28.0174 3.46612, 27.7193 3.53414 C 27.4213 3.60216, 27.2185 3.60851, 27.0526 3.78062 C 26.8867 3.95273, 26.8883 4.04403, 27.0558 4.22259 C 27.2233 4.40115, 27.4136 4.35454, 27.7225 4.49485 Z"
id="path3" 
inkscape:connector-curvature="0" sodipodi:nodetypes="cccccccccc" />
<path 
 style="fill:#6b6bde; fill-opacity:1,fill-rule:evenodd;stroke:#6b6bde;stroke-width:0.1;stroke-linecap:butt;stroke-linejoin:miter;stroke-opacity:1"
d="M 34.2436 14.4764 C 34.5488 14.5276, 34.5021 14.5639, 34.7436 14.4421 C 34.9851 14.3202, 35.0526 14.3066, 35.2096 13.9889 C 35.3667 13.6711, 35.4958 13.3888, 35.3719 13.1711 C 35.248 12.9533, 35.0506 13.3507, 34.714 13.1178 C 34.3774 12.8849, 34.2967 12.691, 34.0254 12.2394 C 33.754 11.7878, 33.5677 11.7272, 33.6285 11.3114 C 33.6893 10.8956, 34.2359 10.7822, 34.2686 10.5761 C 34.3013 10.3701, 34.0123 10.5722, 33.7594 10.4872 C 33.5065 10.4023, 33.5075 10.3004, 33.257 10.2362 C 33.0065 10.172, 33.2143 10.3707, 32.7574 10.2305 C 32.3006 10.0903, 32.2279 10.1555, 31.4296 9.67532 C 30.6312 9.19515, 30.4098 8.90332, 29.5641 8.3098 C 28.7184 7.71628, 28.6889 7.6912, 28.0467 7.30124 C 27.4046 6.91127, 27.5066 7.0124, 26.9955 6.74994 C 26.4843 6.48748, 26.4985 6.49904, 26.0021 6.2514 C 25.5058 6.00375, 25.5295 6.00776, 25.0101 5.75937 C 24.4908 5.51098, 24.659 5.5024, 23.9246 5.25783 C 23.1901 5.01327, 22.9479 4.96175, 22.0724 4.78111 C 21.1968 4.60048, 20.9977 4.60418, 20.4223 4.53528 C 19.8469 4.46639, 20.0624 4.51385, 19.7707 4.50553 C 19.479 4.49721, 19.5098 4.50308, 19.2554 4.50199 C 19.0009 4.5009, 19.0026 4.50089, 18.753 4.50117 C 18.5033 4.50145, 18.5023 4.49868, 18.2569 4.50312 C 18.0115 4.50757, 18.02 4.45949, 17.7714 4.51895 C 17.5228 4.57842, 17.3371 4.55705, 17.2626 4.74097 C 17.1881 4.9249, 17.4215 5.00125, 17.4733 5.25467 C 17.5251 5.50808, 17.542 5.49046, 17.4698 5.75463 C 17.3976 6.01879, 17.1116 6.12799, 17.1845 6.31133 C 17.2575 6.49467, 17.4963 6.43979, 17.7615 6.48799 C 18.0266 6.5362, 17.9993 6.4871, 18.2453 6.50416 C 18.4912 6.52121, 18.4895 6.41489, 18.7452 6.55621 C 19.0009 6.69754, 18.9564 6.65458, 19.2681 7.06945 C 19.5797 7.48432, 19.6279 7.68295, 19.9919 8.21569 C 20.3558 8.74843, 20.4217 8.81613, 20.7238 9.20041 C 21.0259 9.5847, 21.0811 9.49845, 21.2001 9.75282 C 21.3192 10.0072, 21.3207 10.0472, 21.2001 10.2179 C 21.0796 10.3886, 21.0134 10.4357, 20.7178 10.4357 C 20.4223 10.4357, 20.3148 10.3944, 20.0178 10.2179 C 19.7207 10.0414, 19.7266 10.0268, 19.5296 9.7297 C 19.3326 9.43263, 19.4199 9.31985, 19.2297 9.0296 C 19.0396 8.73936, 19.0305 8.64064, 18.7689 8.56872 C 18.5072 8.49681, 18.258 8.5723, 18.183 8.74194 C 18.1081 8.91157, 18.3904 8.99595, 18.4691 9.24728 C 18.5477 9.4986, 18.4883 9.49506, 18.4976 9.74724 C 18.5069 9.99941, 18.4915 10.0038, 18.5064 10.256 C 18.5213 10.5081, 18.4173 10.5062, 18.5572 10.7559 C 18.697 11.0056, 18.7007 11.0051, 19.0658 11.2548 C 19.4308 11.5045, 19.5396 11.5126, 20.0172 11.7548 C 20.4948 11.9969, 20.5497 12.0454, 20.9762 12.2234 C 21.4028 12.4014, 21.3972 12.407, 21.7234 12.4668 C 22.0495 12.5266, 21.9726 12.5245, 22.2808 12.4626 C 22.589 12.4007, 22.7324 12.4056, 22.956 12.2192 C 23.1796 12.0329, 23.2281 12.0955, 23.1753 11.7174 C 23.1224 11.3392, 22.9773 11.3073, 22.7447 10.7068 C 22.5121 10.1063, 22.498 9.85257, 22.2447 9.31523 C 21.9915 8.77788, 22.0266 8.8283, 21.7317 8.55741 C 21.4367 8.28653, 21.2136 8.44053, 21.0649 8.23169 C 20.9162 8.02286, 21.2073 7.91534, 21.137 7.72207 C 21.0667 7.5288, 20.8681 7.63861, 20.7836 7.45861 C 20.6991 7.27862, 20.6813 7.2277, 20.7991 7.00209 C 20.917 6.77647, 21.016 6.68026, 21.2549 6.55616 C 21.4938 6.43206, 21.5059 6.51932, 21.7549 6.50567 C 22.0038 6.49202, 22.0015 6.50266, 22.2507 6.50156 C 22.4999 6.50045, 22.5005 6.50029, 22.7518 6.50127 C 23.0031 6.50224, 23.0052 6.49208, 23.256 6.50547 C 23.5068 6.51885, 23.5168 6.42908, 23.755 6.55481 C 23.9931 6.68055, 24.0603 6.69342, 24.2085 7.0084 C 24.3567 7.32338, 24.1499 7.51032, 24.3477 7.81472 C 24.5455 8.11913, 24.6737 8.06291, 24.9998 8.22601 C 25.3258 8.38912, 25.4541 8.57369, 25.652 8.46715 C 25.8499 8.36061, 25.6376 7.96668, 25.7914 7.79986 C 25.9452 7.63304, 25.9613 7.68788, 26.2672 7.79986 C 26.5731 7.91184, 26.5823 8.01082, 27.015 8.2478 C 27.4477 8.48477, 27.5068 8.49892, 27.9979 8.74776 C 28.4891 8.99659, 28.5051 8.9943, 28.9796 9.24314 C 29.4541 9.49197, 29.6181 9.48195, 29.896 9.7431 C 30.174 10.0042, 30.2597 9.97598, 30.0913 10.2877 C 29.9228 10.5995, 29.6707 10.6949, 29.2222 10.9901 C 28.7738 11.2852, 28.7221 11.2651, 28.2977 11.4682 C 27.8733 11.6713, 27.7226 11.608, 27.5247 11.8026 C 27.3268 11.9972, 27.5004 11.9941, 27.506 12.2466 C 27.5116 12.4991, 27.3553 12.7502, 27.547 12.8126 C 27.7386 12.875, 27.9036 12.6425, 28.2726 12.4962 C 28.6416 12.3499, 28.5977 12.4074, 29.023 12.2275 C 29.4483 12.0476, 29.5488 11.9502, 29.9739 11.7766 C 30.399 11.6029, 30.3973 11.5935, 30.7234 11.533 C 31.0495 11.4725, 30.9598 11.4733, 31.2782 11.5346 C 31.5967 11.5959, 31.637 11.5916, 31.9971 11.7782 C 32.3573 11.9648, 32.4125 11.9745, 32.7189 12.281 C 33.0254 12.5875, 33.0346 12.6435, 33.2231 13.004 C 33.4116 13.3645, 33.3979 13.4147, 33.4729 13.723 C 33.5479 14.0313, 33.3302 14.0489, 33.5229 14.2372 C 33.7156 14.4256, 33.9384 14.4252, 34.2436 14.4764 ZM 35.3902 12.8225 C 35.6317 12.8269, 35.663 12.5264, 35.7673 12.2572 C 35.8715 11.9879, 35.6837 11.9985, 35.8071 11.7456 C 35.9304 11.4927, 36.0244 11.4892, 36.2606 11.2456 C 36.4968 11.002, 36.5085 10.9582, 36.7518 10.7712 C 36.9951 10.5843, 37.1801 10.7426, 37.2338 10.4978 C 37.2874 10.253, 37.2313 10.0051, 36.9665 9.79209 C 36.7017 9.57909, 36.3667 9.53282, 36.1746 9.64581 C 35.9825 9.7588, 36.3046 9.9695, 36.1982 10.2441 C 36.0919 10.5186, 35.9843 10.4936, 35.7493 10.744 C 35.5143 10.9944, 35.4929 10.9952, 35.2581 11.2456 C 35.0233 11.496, 34.9244 11.4971, 34.8101 11.7455 C 34.6959 11.994, 34.6561 11.9702, 34.8012 12.2394 C 34.9462 12.5087, 35.1487 12.8181, 35.3902 12.8225 ZM 10.5013 10.2328 C 10.7773 10.1178, 10.6033 9.99018, 10.7713 9.74267 C 10.9393 9.49515, 11.1405 9.49257, 11.1734 9.24271 C 11.2063 8.99284, 11.202 8.99307, 10.9029 8.7432 C 10.6039 8.49333, 10.4482 8.4861, 9.97723 8.24324 C 9.50632 8.00038, 9.44563 7.95813, 9.01927 7.77175 C 8.59291 7.58537, 8.60566 7.64468, 8.27179 7.49772 C 7.93793 7.35077, 7.94371 7.18218, 7.68379 7.18393 C 7.42388 7.18569, 7.4657 7.35759, 7.23213 7.50475 C 6.99856 7.65191, 6.99515 7.59291, 6.74951 7.77257 C 6.50386 7.95224, 6.50108 8.04986, 6.24955 8.2234 C 5.99802 8.39694, 6.01029 8.40693, 5.74339 8.46675 C 5.47649 8.52656, 5.55293 8.52452, 5.18194 8.46266 C 4.81095 8.40081, 4.66575 8.39392, 4.25941 8.21932 C 3.85307 8.04471, 3.83132 7.99922, 3.55657 7.76425 C 3.28182 7.52928, 3.34032 7.40127, 3.16041 7.27943 C 2.98049 7.15759, 3.06822 7.23061, 2.83692 7.27688 C 2.60562 7.32316, 2.55577 7.48236, 2.23521 7.46453 C 1.91465 7.4467, 1.73645 7.13298, 1.55469 7.20555 C 1.37292 7.27812, 1.51431 7.49544, 1.50816 7.75481 C 1.50202 8.01418, 1.33246 7.99185, 1.5301 8.24304 C 1.72775 8.49423, 1.87072 8.51489, 2.29875 8.75957 C 2.72678 9.00425, 2.76915 9.04432, 3.24223 9.22176 C 3.71531 9.39921, 3.81432 9.40017, 4.19107 9.46935 C 4.56782 9.53852, 4.48331 9.49032, 4.74923 9.49845 C 5.01516 9.50658, 5.00303 9.50101, 5.25478 9.50185 C 5.50652 9.5027, 5.50441 9.50134, 5.75621 9.50182 C 6.00801 9.50229, 5.98061 9.49579, 6.26197 9.50375 C 6.54333 9.51172, 6.37472 9.46448, 6.88165 9.53368 C 7.38858 9.60288, 7.59325 9.61335, 8.28969 9.78056 C 8.98613 9.94777, 9.11451 10.0895, 9.66741 10.2025 C 10.2203 10.3156, 10.2253 10.3477, 10.5013 10.2328 ZM 27.177 10.6449 C 27.2834 10.6448, 27.3601 10.3223, 27.1988 9.99992 C 27.0375 9.67755, 26.6383 9.35533, 26.5319 9.35542 C 26.4256 9.3555, 26.6121 9.67789, 26.7734 10.0003 C 26.9347 10.3226, 27.0707 10.645, 27.177 10.6449 ZM 29.2167 5.20014 C 29.3812 5.08366, 29.5253 4.9001, 29.4134 4.73423 C 29.3014 4.56836, 29.0494 4.52425, 28.769 4.53666 C 28.4886 4.54907, 28.2951 4.61799, 28.2917 4.78386 C 28.2883 4.94973, 28.5242 5.09607, 28.7554 5.20014 C 28.9867 5.30421, 29.0522 5.31662, 29.2167 5.20014 Z"
id="path4" 
inkscape:connector-curvature="0" sodipodi:nodetypes="cccccccccc" />
<path 
 style="fill:#8c8cff; fill-opacity:1,fill-rule:evenodd;stroke:#8c8cff;stroke-width:0.1;stroke-linecap:butt;stroke-linejoin:miter;stroke-opacity:1"
d="M 35.3719 13.1711 C 35.5409 13.0972, 35.5329 13.0554, 35.3902 12.8225 C 35.2475 12.5896, 34.9462 12.5087, 34.8012 12.2394 C 34.6561 11.9702, 34.6959 11.994, 34.8101 11.7455 C 34.9244 11.4971, 35.0233 11.496, 35.2581 11.2456 C 35.4929 10.9952, 35.5143 10.9944, 35.7493 10.744 C 35.9843 10.4936, 36.0919 10.5186, 36.1982 10.2441 C 36.3046 9.9695, 36.2917 9.76097, 36.1746 9.64581 C 36.0575 9.53065, 36.026 9.63481, 35.7297 9.78342 C 35.4334 9.93202, 35.3548 10.0421, 34.9895 10.2402 C 34.6242 10.4384, 34.6088 10.3083, 34.2686 10.5761 C 33.9283 10.8439, 33.6893 10.8956, 33.6285 11.3114 C 33.5677 11.7272, 33.754 11.7878, 34.0254 12.2394 C 34.2967 12.691, 34.3774 12.8849, 34.714 13.1178 C 35.0506 13.3507, 35.2028 13.2449, 35.3719 13.1711 ZM 27.5247 11.8026 C 27.7305 11.857, 27.8733 11.6713, 28.2977 11.4682 C 28.7221 11.2651, 28.7738 11.2852, 29.2222 10.9901 C 29.6707 10.6949, 29.9228 10.5995, 30.0913 10.2877 C 30.2597 9.97598, 30.174 10.0042, 29.896 9.7431 C 29.6181 9.48195, 29.4541 9.49197, 28.9796 9.24314 C 28.5051 8.9943, 28.4891 8.99659, 27.9979 8.74776 C 27.5068 8.49892, 27.4477 8.48477, 27.015 8.2478 C 26.5823 8.01082, 26.5731 7.91184, 26.2672 7.79986 C 25.9613 7.68788, 25.9452 7.63304, 25.7914 7.79986 C 25.6376 7.96668, 25.5437 8.22328, 25.652 8.46715 C 25.7602 8.71102, 26.0044 8.55326, 26.2243 8.77533 C 26.4443 8.99739, 26.2883 9.04927, 26.5319 9.35542 C 26.7755 9.66156, 27.0375 9.67755, 27.1988 9.99992 C 27.3601 10.3223, 27.1081 10.3322, 27.177 10.6449 C 27.2459 10.9575, 27.3876 10.9611, 27.4745 11.2506 C 27.5614 11.54, 27.3189 11.7482, 27.5247 11.8026 ZM 20.7178 10.4357 C 21.0134 10.4357, 21.0796 10.3886, 21.2001 10.2179 C 21.3207 10.0472, 21.3192 10.0072, 21.2001 9.75282 C 21.0811 9.49845, 21.0259 9.5847, 20.7238 9.20041 C 20.4217 8.81613, 20.3558 8.74843, 19.9919 8.21569 C 19.6279 7.68295, 19.5797 7.48432, 19.2681 7.06945 C 18.9564 6.65458, 19.0009 6.69754, 18.7452 6.55621 C 18.4895 6.41489, 18.4912 6.52121, 18.2453 6.50416 C 17.9993 6.4871, 18.0266 6.5362, 17.7615 6.48799 C 17.4963 6.43979, 17.4374 6.24574, 17.1845 6.31133 C 16.9317 6.37691, 16.9836 6.51576, 16.75 6.75032 C 16.5163 6.98489, 16.4994 6.99977, 16.25 7.24959 C 16.0007 7.49941, 16.0141 7.47817, 15.7526 7.74961 C 15.491 8.02104, 15.2023 8.14382, 15.2038 8.33534 C 15.2053 8.52685, 15.4974 8.40598, 15.7585 8.51567 C 16.0196 8.62536, 16.0008 8.5928, 16.2482 8.7741 C 16.4957 8.95539, 16.4513 8.98529, 16.7482 9.24084 C 17.0451 9.49639, 17.2414 9.79454, 17.4357 9.7963 C 17.63 9.79807, 17.4399 9.49842, 17.5253 9.2479 C 17.6107 8.99738, 17.6129 8.92072, 17.7773 8.79422 C 17.9418 8.66773, 17.9351 8.79831, 18.183 8.74194 C 18.4309 8.68556, 18.5072 8.49681, 18.7689 8.56872 C 19.0305 8.64064, 19.0396 8.73936, 19.2297 9.0296 C 19.4199 9.31985, 19.3326 9.43263, 19.5296 9.7297 C 19.7266 10.0268, 19.7207 10.0414, 20.0178 10.2179 C 20.3148 10.3944, 20.4223 10.4357, 20.7178 10.4357 ZM 5.18194 8.46266 C 5.55293 8.52452, 5.47649 8.52656, 5.74339 8.46675 C 6.01029 8.40693, 5.99802 8.39694, 6.24955 8.2234 C 6.50108 8.04986, 6.50386 7.95224, 6.74951 7.77257 C 6.99515 7.59291, 6.99856 7.65191, 7.23213 7.50475 C 7.4657 7.35759, 7.69454 7.37986, 7.68379 7.18393 C 7.67305 6.988, 7.54923 7.01141, 7.18916 6.72103 C 6.82908 6.43065, 6.71543 6.31348, 6.24349 6.02242 C 5.77155 5.73137, 5.67315 5.68446, 5.30139 5.55682 C 4.92964 5.42918, 5.03371 5.50578, 4.75648 5.51186 C 4.47924 5.51794, 4.33166 5.40907, 4.19245 5.58114 C 4.05325 5.75321, 4.29824 6.04539, 4.19967 6.20014 C 4.10109 6.35489, 3.9045 6.3467, 3.79816 6.20014 C 3.69182 6.05357, 4.03575 5.65623, 3.77431 5.61388 C 3.51287 5.57152, 3.23428 5.75498, 2.75241 6.03072 C 2.27053 6.30646, 2.14625 6.42313, 1.84682 6.71684 C 1.54739 7.01054, 1.45759 7.01863, 1.55469 7.20555 C 1.65179 7.39247, 1.91465 7.4467, 2.23521 7.46453 C 2.55577 7.48236, 2.69505 7.44305, 2.83692 7.27688 C 2.9788 7.11072, 2.71267 6.91912, 2.80272 6.79986 C 2.89276 6.68061, 3.10768 6.67997, 3.19711 6.79986 C 3.28653 6.91975, 3.07054 7.03833, 3.16041 7.27943 C 3.25027 7.52053, 3.28182 7.52928, 3.55657 7.76425 C 3.83132 7.99922, 3.85307 8.04471, 4.25941 8.21932 C 4.66575 8.39392, 4.81095 8.40081, 5.18194 8.46266 ZM 20.7836 7.45861 C 20.8681 7.63861, 20.9024 7.69748, 21.137 7.72207 C 21.3716 7.74666, 21.4153 7.53226, 21.7219 7.55698 C 22.0286 7.58169, 22.1013 7.82954, 22.3636 7.82093 C 22.6258 7.81232, 22.5499 7.60179, 22.7709 7.52252 C 22.9919 7.44326, 23.0035 7.50275, 23.2477 7.50388 C 23.4919 7.50501, 23.4727 7.44933, 23.7477 7.52704 C 24.0227 7.60475, 24.2325 7.94438, 24.3477 7.81472 C 24.4629 7.68506, 24.3567 7.32338, 24.2085 7.0084 C 24.0603 6.69342, 23.9931 6.68055, 23.755 6.55481 C 23.5168 6.42908, 23.5068 6.51885, 23.256 6.50547 C 23.0052 6.49208, 23.0031 6.50224, 22.7518 6.50127 C 22.5005 6.50029, 22.4999 6.50045, 22.2507 6.50156 C 22.0015 6.50266, 22.0038 6.49202, 21.7549 6.50567 C 21.5059 6.51932, 21.4938 6.43206, 21.2549 6.55616 C 21.016 6.68026, 20.917 6.77647, 20.7991 7.00209 C 20.6813 7.2277, 20.6991 7.27862, 20.7836 7.45861 Z"
id="path5" 
inkscape:connector-curvature="0" sodipodi:nodetypes="cccccccccc" />
<path 
 style="fill:#bd2900; fill-opacity:1,fill-rule:evenodd;stroke:#bd2900;stroke-width:0.1;stroke-linecap:butt;stroke-linejoin:miter;stroke-opacity:1"
d="M 14.7155 7.42909 C 15.0266 7.41153, 14.9717 7.43997, 15.2841 7.14534 C 15.5966 6.85072, 15.7013 6.7304, 15.9653 6.2506 C 16.2294 5.77079, 16.3953 5.42041, 16.3404 5.22613 C 16.2855 5.03185, 16.0194 5.41126, 15.7457 5.47347 C 15.4721 5.53568, 15.5424 5.54503, 15.2458 5.47498 C 14.9492 5.40494, 14.7517 5.12411, 14.5594 5.19329 C 14.3672 5.26248, 14.5583 5.48852, 14.4766 5.75172 C 14.395 6.01492, 14.3938 5.99751, 14.2327 6.24609 C 14.0717 6.49468, 13.8805 6.50368, 13.8323 6.74605 C 13.7841 6.98843, 13.8191 7.04483, 14.0399 7.21559 C 14.2608 7.38635, 14.4045 7.44666, 14.7155 7.42909 Z"
id="path6" 
inkscape:connector-curvature="0" sodipodi:nodetypes="cccccccccc" />
<path 
 style="fill:#c0c0a7; fill-opacity:1,fill-rule:evenodd;stroke:#c0c0a7;stroke-width:0.1;stroke-linecap:butt;stroke-linejoin:miter;stroke-opacity:1"
d="M 0.666667 17.6667 C 0.916667 17.6667, 1.08333 17.3333, 1.33333 17.3333 C 1.58333 17.3333, 1.41667 17.6667, 1.66667 17.6667 C 1.91667 17.6667, 2.08333 17.3333, 2.33333 17.3333 C 2.58333 17.3333, 2.41667 17.6667, 2.66667 17.6667 C 2.91667 17.6667, 3.08333 17.3333, 3.33333 17.3333 C 3.58333 17.3333, 3.41667 17.6667, 3.66667 17.6667 C 3.91667 17.6667, 4.08333 17.3333, 4.33333 17.3333 C 4.58333 17.3333, 4.41667 17.6667, 4.66667 17.6667 C 4.91667 17.6667, 5.08333 17.3333, 5.33333 17.3333 C 5.58333 17.3333, 5.41667 17.5833, 5.66667 17.6667 C 5.91667 17.75, 6 17.6667, 6.33333 17.6667 C 6.66667 17.6667, 7 17.8333, 7 17.6667 C 7 17.5, 6.39396 17.1721, 6.33333 17 C 6.27271 16.8279, 6.88695 17.1582, 6.75749 16.9781 C 6.62803 16.798, 6.19072 16.5935, 5.8155 16.2794 C 5.44029 15.9653, 5.51521 16.0408, 5.25664 15.7217 C 4.99807 15.4026, 4.95513 15.3631, 4.78123 15.003 C 4.60734 14.6429, 4.56345 14.5935, 4.56106 14.2813 C 4.55868 13.969, 4.62231 14.0108, 4.77169 13.754 C 4.92107 13.4973, 5.18243 13.5039, 5.15857 13.2541 C 5.13471 13.0043, 5.13855 13.0046, 4.67626 12.7547 C 4.21397 12.5049, 3.90028 12.5043, 3.30941 12.2548 C 2.71854 12.0052, 2.69733 12.006, 2.31278 11.7565 C 1.92823 11.5069, 2.03485 11.5272, 1.7712 11.2565 C 1.50756 10.9858, 1.50579 11.1089, 1.2582 10.6739 C 1.01061 10.2388, 1.01204 10.0182, 0.780825 9.51637 C 0.549608 9.01457, 0.445206 8.71242, 0.333333 8.66667 C 0.22146 8.62091, 0.333333 9, 0.333333 9.33333 C 0.333333 9.66667, 0.333333 9.66667, 0.333333 10 C 0.333333 10.3333, 0.333333 10.3333, 0.333333 10.6667 C 0.333333 11, 0.25 11.0833, 0.333333 11.3333 C 0.416667 11.5833, 0.666667 11.4167, 0.666667 11.6667 C 0.666667 11.9167, 0.333333 12.0833, 0.333333 12.3333 C 0.333333 12.5833, 0.666667 12.4167, 0.666667 12.6667 C 0.666667 12.9167, 0.333333 13.0833, 0.333333 13.3333 C 0.333333 13.5833, 0.666667 13.4167, 0.666667 13.6667 C 0.666667 13.9167, 0.333333 14.0833, 0.333333 14.3333 C 0.333333 14.5833, 0.666667 14.4167, 0.666667 14.6667 C 0.666667 14.9167, 0.333333 15.0833, 0.333333 15.3333 C 0.333333 15.5833, 0.666667 15.4167, 0.666667 15.6667 C 0.666667 15.9167, 0.333333 16.0833, 0.333333 16.3333 C 0.333333 16.5833, 0.666667 16.4167, 0.666667 16.6667 C 0.666667 16.9167, 0.333333 17.0833, 0.333333 17.3333 C 0.333333 17.5833, 0.416667 17.6667, 0.666667 17.6667 ZM 10 17.6667 C 10.1608 17.7774, 10.3333 17.75, 10.6667 17.6667 C 11 17.5833, 11.0833 17.3333, 11.3333 17.3333 C 11.5833 17.3333, 11.4167 17.6667, 11.6667 17.6667 C 11.9167 17.6667, 12.0833 17.3333, 12.3333 17.3333 C 12.5833 17.3333, 12.4167 17.6667, 12.6667 17.6667 C 12.9167 17.6667, 13.0833 17.3333, 13.3333 17.3333 C 13.5833 17.3333, 13.4167 17.6667, 13.6667 17.6667 C 13.9167 17.6667, 14.0833 17.3333, 14.3333 17.3333 C 14.5833 17.3333, 14.4167 17.6667, 14.6667 17.6667 C 14.9167 17.6667, 15.0833 17.3333, 15.3333 17.3333 C 15.5833 17.3333, 15.4167 17.6667, 15.6667 17.6667 C 15.9167 17.6667, 16.0833 17.3333, 16.3333 17.3333 C 16.5833 17.3333, 16.4167 17.6667, 16.6667 17.6667 C 16.9167 17.6667, 17.0833 17.3333, 17.3333 17.3333 C 17.5833 17.3333, 17.4167 17.6667, 17.6667 17.6667 C 17.9167 17.6667, 18.0833 17.3333, 18.3333 17.3333 C 18.5833 17.3333, 18.4167 17.6667, 18.6667 17.6667 C 18.9167 17.6667, 19.0833 17.3333, 19.3333 17.3333 C 19.5833 17.3333, 19.4167 17.6667, 19.6667 17.6667 C 19.9167 17.6667, 20.0833 17.3333, 20.3333 17.3333 C 20.5833 17.3333, 20.4167 17.6667, 20.6667 17.6667 C 20.9167 17.6667, 21.0833 17.3333, 21.3333 17.3333 C 21.5833 17.3333, 21.4167 17.6667, 21.6667 17.6667 C 21.9167 17.6667, 22.0833 17.3333, 22.3333 17.3333 C 22.5833 17.3333, 22.4167 17.6667, 22.6667 17.6667 C 22.9167 17.6667, 23.0833 17.3333, 23.3333 17.3333 C 23.5833 17.3333, 23.4167 17.6667, 23.6667 17.6667 C 23.9167 17.6667, 24.0833 17.3333, 24.3333 17.3333 C 24.5833 17.3333, 24.4167 17.6667, 24.6667 17.6667 C 24.9167 17.6667, 25.0833 17.3333, 25.3333 17.3333 C 25.5833 17.3333, 25.4167 17.6667, 25.6667 17.6667 C 25.9167 17.6667, 26.0833 17.3333, 26.3333 17.3333 C 26.5833 17.3333, 26.4167 17.6667, 26.6667 17.6667 C 26.9167 17.6667, 27.0833 17.3333, 27.3333 17.3333 C 27.5833 17.3333, 27.4167 17.6667, 27.6667 17.6667 C 27.9167 17.6667, 28.0833 17.3333, 28.3333 17.3333 C 28.5833 17.3333, 28.4167 17.6667, 28.6667 17.6667 C 28.9167 17.6667, 29.0833 17.3333, 29.3333 17.3333 C 29.5833 17.3333, 29.4167 17.6667, 29.6667 17.6667 C 29.9167 17.6667, 30.0833 17.3333, 30.3333 17.3333 C 30.5833 17.3333, 30.4167 17.6667, 30.6667 17.6667 C 30.9167 17.6667, 31.0833 17.3333, 31.3333 17.3333 C 31.5833 17.3333, 31.4167 17.5833, 31.6667 17.6667 C 31.9167 17.75, 32 17.6667, 32.3333 17.6667 C 32.6667 17.6667, 32.6667 17.6667, 33 17.6667 C 33.3333 17.6667, 33.6008 17.7786, 33.6667 17.6667 C 33.7325 17.5548, 33.5346 17.4499, 33.2633 17.2191 C 32.992 16.9883, 32.7708 16.9875, 32.5816 16.7436 C 32.3923 16.4997, 32.5269 16.4921, 32.5063 16.2436 C 32.4858 15.9951, 32.5014 15.9981, 32.4996 15.7496 C 32.4977 15.5011, 32.4999 15.5005, 32.4989 15.2496 C 32.4979 14.9988, 32.5039 15.0125, 32.4955 14.7463 C 32.4872 14.4801, 32.5346 14.5551, 32.4656 14.1848 C 32.3965 13.8146, 32.401 13.6647, 32.2193 13.2655 C 32.0377 12.8662, 31.9983 12.7694, 31.7389 12.5879 C 31.4795 12.4065, 31.5618 12.492, 31.1819 12.5396 C 30.802 12.5872, 30.7563 12.6015, 30.2194 12.7785 C 29.6825 12.9554, 29.5869 13.0052, 29.0342 13.2474 C 28.4815 13.4896, 28.515 13.4973, 28.0086 13.7473 C 27.5021 13.9973, 27.5027 13.9974, 27.0082 14.2474 C 26.5138 14.4974, 26.4645 14.5026, 26.0307 14.7474 C 25.5968 14.9922, 25.5925 15.0447, 25.2728 15.2265 C 24.9531 15.4083, 25.0072 15.4061, 24.752 15.4746 C 24.4968 15.543, 24.5089 15.487, 24.252 15.5003 C 23.9951 15.5137, 24.0439 15.4591, 23.7244 15.528 C 23.405 15.5968, 23.3988 15.6016, 22.9743 15.7755 C 22.5497 15.9495, 22.4506 16.0502, 22.0261 16.2237 C 21.6016 16.3973, 21.5958 16.4022, 21.2763 16.4698 C 20.9568 16.5375, 21.006 16.4876, 20.7481 16.4943 C 20.4903 16.501, 20.4963 16.4958, 20.2448 16.4965 C 19.9932 16.4971, 19.9929 16.4965, 19.742 16.4968 C 19.491 16.497, 19.4901 16.4968, 19.241 16.4974 C 18.9919 16.4979, 18.9923 16.498, 18.7455 16.4989 C 18.4987 16.4998, 18.5011 16.5002, 18.2538 16.5009 C 18.0064 16.5016, 18.0076 16.5023, 17.7561 16.5017 C 17.5045 16.5011, 17.5214 16.5065, 17.2477 16.4985 C 16.974 16.4904, 17.108 16.5388, 16.6613 16.4697 C 16.2146 16.4006, 16.1081 16.3951, 15.4608 16.222 C 14.8135 16.049, 14.618 15.944, 14.0722 15.7775 C 13.5263 15.6109, 13.6134 15.5555, 13.2775 15.5557 C 12.9416 15.5559, 13.0551 15.604, 12.7286 15.7782 C 12.4021 15.9524, 12.406 16.0088, 11.9715 16.2524 C 11.5369 16.4959, 11.4774 16.5095, 10.9904 16.7523 C 10.5034 16.9952, 10.2711 16.9953, 10.0235 17.2239 C 9.77591 17.4525, 9.83921 17.556, 10 17.6667 ZM 35.6667 17.6667 C 35.9382 17.6942, 36.0833 17.3333, 36.3333 17.3333 C 36.5833 17.3333, 36.4167 17.6667, 36.6667 17.6667 C 36.9167 17.6667, 37.0833 17.3333, 37.3333 17.3333 C 37.5833 17.3333, 37.4167 17.6667, 37.6667 17.6667 C 37.9167 17.6667, 38.0833 17.3333, 38.3333 17.3333 C 38.5833 17.3333, 38.4167 17.6667, 38.6667 17.6667 C 38.9167 17.6667, 39.0833 17.3333, 39.3333 17.3333 C 39.5833 17.3333, 39.4167 17.6667, 39.6667 17.6667 C 39.9167 17.6667, 40.0833 17.5833, 40.3333 17.3333 C 40.5833 17.0833, 40.6667 16.9167, 40.6667 16.6667 C 40.6667 16.4167, 40.3333 16.5833, 40.3333 16.3333 C 40.3333 16.0833, 40.6667 15.9167, 40.6667 15.6667 C 40.6667 15.4167, 40.3333 15.5833, 40.3333 15.3333 C 40.3333 15.0833, 40.6667 14.9167, 40.6667 14.6667 C 40.6667 14.4167, 40.3333 14.5833, 40.3333 14.3333 C 40.3333 14.0833, 40.6667 13.9167, 40.6667 13.6667 C 40.6667 13.4167, 40.3333 13.5833, 40.3333 13.3333 C 40.3333 13.0833, 40.6667 12.9167, 40.6667 12.6667 C 40.6667 12.4167, 40.3333 12.5833, 40.3333 12.3333 C 40.3333 12.0833, 40.6667 11.9167, 40.6667 11.6667 C 40.6667 11.4167, 40.3333 11.5833, 40.3333 11.3333 C 40.3333 11.0833, 40.8333 10.75, 40.6667 10.6667 C 40.5 10.5833, 40.0263 10.9202, 39.6667 11 C 39.307 11.0798, 39.5814 10.8677, 39.2282 10.986 C 38.8749 11.1043, 38.7389 11.2765, 38.2536 11.4733 C 37.7683 11.67, 37.6421 11.5711, 37.287 11.7731 C 36.9319 11.9751, 36.8496 11.9184, 36.8332 12.2812 C 36.8169 12.6441, 37.0637 12.7482, 37.2217 13.2245 C 37.3796 13.7008, 37.4039 13.8068, 37.4648 14.1865 C 37.5258 14.5661, 37.5275 14.4767, 37.4655 14.7432 C 37.4035 15.0098, 37.397 15.0004, 37.2169 15.2527 C 37.0367 15.5051, 36.9866 15.5034, 36.745 15.7527 C 36.5033 16.002, 36.4998 16.0007, 36.2503 16.25 C 36.0008 16.4993, 35.9978 16.5066, 35.747 16.75 C 35.4962 16.9933, 35.2672 16.9941, 35.2471 17.2233 C 35.227 17.4524, 35.3951 17.6392, 35.6667 17.6667 ZM 33.2661 9.19789 C 33.5835 9.08921, 33.5802 8.98846, 34.014 8.752 C 34.4478 8.51553, 34.5108 8.49569, 35.0013 8.25204 C 35.4917 8.00839, 35.5455 7.95579, 35.9759 7.77739 C 36.4062 7.59899, 36.3848 7.58583, 36.7226 7.53843 C 37.0603 7.49103, 36.8869 7.40648, 37.3268 7.58778 C 37.7666 7.76907, 37.9804 7.99388, 38.482 8.2636 C 38.9837 8.53333, 38.7872 8.39923, 39.3333 8.66667 C 39.8795 8.9341, 40.3333 9.33333, 40.6667 9.33333 C 41 9.33333, 40.75 8.91667, 40.6667 8.66667 C 40.5833 8.41667, 40.3333 8.58333, 40.3333 8.33333 C 40.3333 8.08333, 40.6667 7.91667, 40.6667 7.66667 C 40.6667 7.41667, 40.3333 7.58333, 40.3333 7.33333 C 40.3333 7.08333, 40.6667 6.91667, 40.6667 6.66667 C 40.6667 6.41667, 40.3333 6.58333, 40.3333 6.33333 C 40.3333 6.08333, 40.6667 5.91667, 40.6667 5.66667 C 40.6667 5.41667, 40.3333 5.58333, 40.3333 5.33333 C 40.3333 5.08333, 40.6667 4.91667, 40.6667 4.66667 C 40.6667 4.41667, 40.3333 4.58333, 40.3333 4.33333 C 40.3333 4.08333, 40.6667 3.91667, 40.6667 3.66667 C 40.6667 3.41667, 40.3333 3.58333, 40.3333 3.33333 C 40.3333 3.08333, 40.6667 2.91667, 40.6667 2.66667 C 40.6667 2.41667, 40.3333 2.58333, 40.3333 2.33333 C 40.3333 2.08333, 40.6667 1.91667, 40.6667 1.66667 C 40.6667 1.41667, 40.5833 1.33333, 40.3333 1.33333 C 40.0833 1.33333, 39.9167 1.66667, 39.6667 1.66667 C 39.4167 1.66667, 39.5833 1.33333, 39.3333 1.33333 C 39.0833 1.33333, 38.9167 1.66667, 38.6667 1.66667 C 38.4167 1.66667, 38.5833 1.33333, 38.3333 1.33333 C 38.0833 1.33333, 37.9167 1.66667, 37.6667 1.66667 C 37.4167 1.66667, 37.5833 1.33333, 37.3333 1.33333 C 37.0833 1.33333, 36.9167 1.66667, 36.6667 1.66667 C 36.4167 1.66667, 36.5833 1.33333, 36.3333 1.33333 C 36.0833 1.33333, 35.9167 1.66667, 35.6667 1.66667 C 35.4167 1.66667, 35.5833 1.33333, 35.3333 1.33333 C 35.0833 1.33333, 34.9167 1.66667, 34.6667 1.66667 C 34.4167 1.66667, 34.5833 1.33333, 34.3333 1.33333 C 34.0833 1.33333, 33.9167 1.66667, 33.6667 1.66667 C 33.4167 1.66667, 33.5833 1.33333, 33.3333 1.33333 C 33.0833 1.33333, 32.9167 1.66667, 32.6667 1.66667 C 32.4167 1.66667, 32.5833 1.33333, 32.3333 1.33333 C 32.0833 1.33333, 31.9167 1.66667, 31.6667 1.66667 C 31.4167 1.66667, 31.5833 1.33333, 31.3333 1.33333 C 31.0833 1.33333, 30.9167 1.66667, 30.6667 1.66667 C 30.4167 1.66667, 30.5833 1.33333, 30.3333 1.33333 C 30.0833 1.33333, 29.9167 1.66667, 29.6667 1.66667 C 29.4167 1.66667, 29.5833 1.33333, 29.3333 1.33333 C 29.0833 1.33333, 28.9167 1.66667, 28.6667 1.66667 C 28.4167 1.66667, 28.5833 1.33333, 28.3333 1.33333 C 28.0833 1.33333, 27.9167 1.66667, 27.6667 1.66667 C 27.4167 1.66667, 27.5833 1.33333, 27.3333 1.33333 C 27.0833 1.33333, 26.9167 1.66667, 26.6667 1.66667 C 26.4167 1.66667, 26.5833 1.33333, 26.3333 1.33333 C 26.0833 1.33333, 25.9167 1.66667, 25.6667 1.66667 C 25.4167 1.66667, 25.5833 1.33333, 25.3333 1.33333 C 25.0833 1.33333, 24.9167 1.66667, 24.6667 1.66667 C 24.4167 1.66667, 24.5833 1.33333, 24.3333 1.33333 C 24.0833 1.33333, 23.9167 1.66667, 23.6667 1.66667 C 23.4167 1.66667, 23.5833 1.41667, 23.3333 1.33333 C 23.0833 1.25, 23 1.33333, 22.6667 1.33333 C 22.3333 1.33333, 22.3333 1.33333, 22 1.33333 C 21.6667 1.33333, 21.6667 1.33333, 21.3333 1.33333 C 21 1.33333, 21 1.33333, 20.6667 1.33333 C 20.3333 1.33333, 19.8425 1.22152, 20 1.33333 C 20.1575 1.44514, 20.5633 1.54924, 21.2965 1.78057 C 22.0297 2.0119, 22.2592 2.01415, 22.9328 2.25866 C 23.6065 2.50317, 23.5412 2.52325, 23.9911 2.75862 C 24.441 2.99399, 24.4129 3.08976, 24.7324 3.20014 C 25.0519 3.31052, 24.9541 3.30585, 25.2689 3.20014 C 25.5837 3.09443, 25.6281 2.94447, 25.9915 2.77731 C 26.355 2.61015, 26.407 2.59871, 26.7227 2.5315 C 27.0383 2.46429, 26.9817 2.50789, 27.2543 2.50847 C 27.527 2.50905, 27.4388 2.46608, 27.8133 2.53383 C 28.1879 2.60157, 28.2824 2.59184, 28.7525 2.77946 C 29.2225 2.96708, 29.3269 2.97838, 29.6935 3.2843 C 30.0601 3.59022, 30.0324 3.64449, 30.2189 4.00312 C 30.4053 4.36176, 30.4388 4.40655, 30.4392 4.71882 C 30.4395 5.0311, 30.3802 4.99388, 30.2204 5.25221 C 30.0606 5.51055, 29.905 5.50395, 29.7999 5.75217 C 29.6947 6.0004, 29.6873 5.99693, 29.7999 6.24512 C 29.9124 6.49332, 30.0124 6.49371, 30.2499 6.74495 C 30.4874 6.99619, 30.4997 6.99844, 30.7499 7.25009 C 31 7.50174, 31.0007 7.50165, 31.2506 7.75156 C 31.5005 8.00146, 31.5014 8.00327, 31.7496 8.24971 C 31.9978 8.49614, 31.9947 8.50303, 32.2434 8.73728 C 32.4921 8.97153, 32.4888 9.07157, 32.7444 9.18672 C 33.0001 9.30187, 32.9487 9.30657, 33.2661 9.19789 ZM 1.76262 5.74325 C 2.25674 5.47117, 1.92551 5.49333, 2.30983 5.24502 C 2.69415 4.9967, 2.70233 4.99873, 3.2999 4.74998 C 3.89747 4.50123, 4.08975 4.50516, 4.7001 4.25002 C 5.31045 3.99488, 5.23138 4.03423, 5.74131 3.72941 C 6.25124 3.42459, 6.25046 3.32405, 6.73981 3.03074 C 7.22915 2.73743, 7.32125 2.68753, 7.69867 2.55616 C 8.0761 2.4248, 7.98681 2.51916, 8.24951 2.50528 C 8.51221 2.49141, 8.49943 2.50189, 8.74947 2.50068 C 8.99951 2.49947, 8.99963 2.50033, 9.24967 2.50044 C 9.49972 2.50054, 9.49944 2.5009, 9.74963 2.50109 C 9.99983 2.50128, 10.0003 2.50123, 10.2505 2.50118 C 10.5007 2.50114, 10.5003 2.50081, 10.7504 2.50092 C 11.0006 2.50102, 11.0004 2.50132, 11.2511 2.5016 C 11.5017 2.50188, 11.5028 2.50219, 11.753 2.50203 C 12.0032 2.50188, 12.0033 2.50176, 12.2519 2.50097 C 12.5006 2.50017, 12.4992 2.49982, 12.7477 2.49885 C 12.9962 2.49788, 12.9958 2.49829, 13.246 2.49708 C 13.4961 2.49588, 13.4904 2.50108, 13.7482 2.49403 C 14.0059 2.48698, 13.9572 2.53665, 14.277 2.46889 C 14.5967 2.40113, 14.5963 2.50689, 15.027 2.223 C 15.4578 1.93911, 15.9234 1.55575, 16 1.33333 C 16.0766 1.11092, 15.6667 1.25, 15.3333 1.33333 C 15 1.41667, 14.9167 1.66667, 14.6667 1.66667 C 14.4167 1.66667, 14.5833 1.33333, 14.3333 1.33333 C 14.0833 1.33333, 13.9167 1.66667, 13.6667 1.66667 C 13.4167 1.66667, 13.5833 1.33333, 13.3333 1.33333 C 13.0833 1.33333, 12.9167 1.66667, 12.6667 1.66667 C 12.4167 1.66667, 12.5833 1.33333, 12.3333 1.33333 C 12.0833 1.33333, 11.9167 1.66667, 11.6667 1.66667 C 11.4167 1.66667, 11.5833 1.33333, 11.3333 1.33333 C 11.0833 1.33333, 10.9167 1.66667, 10.6667 1.66667 C 10.4167 1.66667, 10.5833 1.33333, 10.3333 1.33333 C 10.0833 1.33333, 9.91667 1.66667, 9.66667 1.66667 C 9.41667 1.66667, 9.58333 1.33333, 9.33333 1.33333 C 9.08333 1.33333, 8.91667 1.66667, 8.66667 1.66667 C 8.41667 1.66667, 8.58333 1.33333, 8.33333 1.33333 C 8.08333 1.33333, 7.91667 1.66667, 7.66667 1.66667 C 7.41667 1.66667, 7.58333 1.33333, 7.33333 1.33333 C 7.08333 1.33333, 6.91667 1.66667, 6.66667 1.66667 C 6.41667 1.66667, 6.58333 1.33333, 6.33333 1.33333 C 6.08333 1.33333, 5.91667 1.66667, 5.66667 1.66667 C 5.41667 1.66667, 5.58333 1.33333, 5.33333 1.33333 C 5.08333 1.33333, 4.91667 1.66667, 4.66667 1.66667 C 4.41667 1.66667, 4.58333 1.33333, 4.33333 1.33333 C 4.08333 1.33333, 3.91667 1.66667, 3.66667 1.66667 C 3.41667 1.66667, 3.58333 1.33333, 3.33333 1.33333 C 3.08333 1.33333, 2.91667 1.66667, 2.66667 1.66667 C 2.41667 1.66667, 2.58333 1.33333, 2.33333 1.33333 C 2.08333 1.33333, 1.91667 1.66667, 1.66667 1.66667 C 1.41667 1.66667, 1.58333 1.33333, 1.33333 1.33333 C 1.08333 1.33333, 0.916667 1.41667, 0.666667 1.66667 C 0.416667 1.91667, 0.333333 2.08333, 0.333333 2.33333 C 0.333333 2.58333, 0.666667 2.41667, 0.666667 2.66667 C 0.666667 2.91667, 0.333333 3.08333, 0.333333 3.33333 C 0.333333 3.58333, 0.666667 3.41667, 0.666667 3.66667 C 0.666667 3.91667, 0.333333 4.08333, 0.333333 4.33333 C 0.333333 4.58333, 0.666667 4.41667, 0.666667 4.66667 C 0.666667 4.91667, 0.333333 5.08333, 0.333333 5.33333 C 0.333333 5.58333, 0.666667 5.41667, 0.666667 5.66667 C 0.666667 5.91667, 0.0593451 6.31419, 0.333333 6.33333 C 0.607322 6.35248, 1.2685 6.01533, 1.76262 5.74325 Z"
id="path7" 
inkscape:connector-curvature="0" sodipodi:nodetypes="cccccccccc" />
<path 
 style="fill:#ff8c00; fill-opacity:1,fill-rule:evenodd;stroke:#ff8c00;stroke-width:0.1;stroke-linecap:butt;stroke-linejoin:miter;stroke-opacity:1"
d="M 15.2458 5.47498 C 15.5424 5.54503, 15.4721 5.53568, 15.7457 5.47347 C 16.0194 5.41126, 16.2419 5.41552, 16.3404 5.22613 C 16.4388 5.03674, 16.415 5.01683, 16.1395 4.71591 C 15.864 4.41499, 15.6966 4.30353, 15.2384 4.02244 C 14.7801 3.74136, 14.6662 3.65094, 14.3065 3.59158 C 13.9469 3.53222, 13.9265 3.62144, 13.7999 3.78501 C 13.6732 3.94857, 13.6906 4.00565, 13.7999 4.24585 C 13.9091 4.48604, 14.0469 4.50894, 14.2368 4.7458 C 14.4267 4.98267, 14.3072 5.011, 14.5594 5.19329 C 14.8117 5.37559, 14.9492 5.40494, 15.2458 5.47498 Z"
id="path8" 
inkscape:connector-curvature="0" sodipodi:nodetypes="cccccccccc" />
<path 
 style="fill:#ffffff; fill-opacity:1,fill-rule:evenodd;stroke:#ffffff;stroke-width:0.1;stroke-linecap:butt;stroke-linejoin:miter;stroke-opacity:1"
d="M 8.18669 16.4662 C 8.56122 16.534, 8.47328 16.4908, 8.74569 16.4917 C 9.01811 16.4925, 8.95685 16.5366, 9.27634 16.4696 C 9.59583 16.4026, 9.59517 16.403, 10.0237 16.2237 C 10.4522 16.0444, 10.5034 15.9952, 10.9903 15.7523 C 11.4773 15.5095, 11.5369 15.4959, 11.9714 15.2524 C 12.406 15.0088, 12.4021 14.9524, 12.7286 14.7782 C 13.0551 14.604, 12.9416 14.5559, 13.2775 14.5557 C 13.6134 14.5555, 13.5268 14.611, 14.0722 14.7775 C 14.6176 14.9439, 14.8128 15.0488, 15.459 15.2214 C 16.1052 15.394, 16.2113 15.3993, 16.6571 15.4679 C 17.1029 15.5364, 16.9694 15.488, 17.2422 15.4957 C 17.515 15.5034, 17.4968 15.4981, 17.7482 15.4988 C 17.9996 15.4994, 17.9976 15.4986, 18.2478 15.4984 C 18.498 15.4981, 18.4982 15.4978, 18.7489 15.4978 C 18.9996 15.4979, 19.0001 15.4981, 19.2505 15.4985 C 19.5008 15.4989, 19.5005 15.4992, 19.7504 15.4995 C 20.0004 15.4998, 20.0003 15.5001, 20.2503 15.4996 C 20.5002 15.499, 20.4942 15.504, 20.7502 15.4973 C 21.0063 15.4907, 20.9511 15.5409, 21.2746 15.4729 C 21.5982 15.4049, 21.5337 15.4121, 22.0445 15.2254 C 22.5553 15.0387, 22.5284 15.0304, 23.3177 14.7261 C 24.1071 14.4217, 24.3148 14.3691, 25.2018 14.0081 C 26.0887 13.6471, 26.2792 13.5809, 26.8655 13.282 C 27.4518 12.9832, 27.3869 13.0714, 27.547 12.8126 C 27.7071 12.5537, 27.5116 12.4991, 27.506 12.2466 C 27.5004 11.9941, 27.5326 12.0516, 27.5247 11.8026 C 27.5168 11.5536, 27.5614 11.54, 27.4745 11.2506 C 27.3876 10.9611, 27.3523 10.9575, 27.177 10.6449 C 27.0017 10.3323, 26.9347 10.3226, 26.7734 10.0003 C 26.6121 9.67789, 26.6692 9.66165, 26.5319 9.35542 C 26.3946 9.04919, 26.4443 8.99739, 26.2243 8.77533 C 26.0044 8.55326, 25.9581 8.60448, 25.652 8.46715 C 25.3458 8.32982, 25.3258 8.38912, 24.9998 8.22601 C 24.6737 8.06291, 24.6608 7.98947, 24.3477 7.81472 C 24.0347 7.63998, 24.0227 7.60475, 23.7477 7.52704 C 23.4727 7.44933, 23.4919 7.50501, 23.2477 7.50388 C 23.0035 7.50275, 22.9919 7.44326, 22.7709 7.52252 C 22.5499 7.60179, 22.3685 7.62649, 22.3636 7.82093 C 22.3587 8.01537, 22.5299 7.93108, 22.7512 8.3003 C 22.9725 8.66951, 22.9994 8.69587, 23.2488 9.29779 C 23.4982 9.89972, 23.5109 10.1048, 23.7487 10.708 C 23.9866 11.3112, 24.0873 11.3263, 24.2001 11.7105 C 24.313 12.0947, 24.3119 11.9879, 24.2001 12.2448 C 24.0884 12.5018, 23.99 12.4957, 23.7532 12.7384 C 23.5165 12.981, 23.5064 13.0342, 23.2533 13.2153 C 23.0002 13.3964, 23.0202 13.4069, 22.7407 13.4626 C 22.4612 13.5183, 22.6344 13.5585, 22.1353 13.438 C 21.6362 13.3175, 21.4942 13.2692, 20.7444 12.9806 C 19.9945 12.6919, 19.7504 12.5989, 19.1359 12.2833 C 18.5213 11.9677, 18.6259 12.0403, 18.286 11.7181 C 17.9461 11.3959, 17.9674 11.3549, 17.7764 10.9945 C 17.5854 10.6341, 17.6071 10.576, 17.522 10.2764 C 17.4368 9.97688, 17.6292 10.0552, 17.4357 9.7963 C 17.2423 9.53741, 17.0451 9.49639, 16.7482 9.24084 C 16.4513 8.98529, 16.4957 8.95539, 16.2482 8.7741 C 16.0008 8.5928, 16.0196 8.62536, 15.7585 8.51567 C 15.4974 8.40598, 15.4562 8.34368, 15.2038 8.33534 C 14.9514 8.32699, 14.9877 8.44, 14.749 8.48228 C 14.5103 8.52456, 14.5118 8.48571, 14.2491 8.50446 C 13.9863 8.5232, 14.0694 8.42864, 13.6981 8.55728 C 13.3268 8.68591, 13.2264 8.72903, 12.7639 9.01899 C 12.3014 9.30894, 12.1543 9.40751, 11.8482 9.71709 C 11.5422 10.0267, 11.6177 9.98277, 11.5397 10.2573 C 11.4618 10.5319, 11.4765 10.4377, 11.5363 10.8153 C 11.5961 11.1929, 11.613 11.2942, 11.779 11.7678 C 11.9449 12.2414, 12.0948 12.3521, 12.2001 12.7098 C 12.3054 13.0676, 12.3138 13.0789, 12.2001 13.1989 C 12.0865 13.3189, 11.9841 13.3044, 11.7455 13.1898 C 11.5068 13.0753, 11.4933 12.9758, 11.2455 12.7408 C 10.9977 12.5058, 10.9772 12.4825, 10.7542 12.2498 C 10.5312 12.0171, 10.6272 11.918, 10.3535 11.81 C 10.0798 11.7021, 9.88117 11.6959, 9.65933 11.8179 C 9.43748 11.9398, 9.63467 11.9444, 9.46611 12.298 C 9.29755 12.6515, 9.28087 12.7695, 8.9851 13.2319 C 8.68934 13.6943, 8.60044 13.8482, 8.28305 14.1476 C 7.96567 14.4469, 8.02643 14.4122, 7.71557 14.4292 C 7.40471 14.4463, 7.26152 14.3859, 7.03962 14.2156 C 6.81772 14.0453, 6.78693 13.9899, 6.82798 13.748 C 6.86902 13.5062, 7.11079 13.4851, 7.20379 13.2481 C 7.2968 13.011, 7.31214 12.9119, 7.19999 12.7999 C 7.08784 12.6878, 6.98967 12.6882, 6.75518 12.7999 C 6.52069 12.9115, 6.50385 13.0099, 6.26203 13.2466 C 6.02021 13.4832, 5.96276 13.4878, 5.78791 13.7465 C 5.61306 14.0053, 5.5642 13.969, 5.56263 14.2817 C 5.56106 14.5944, 5.59564 14.6388, 5.78162 14.9973 C 5.96759 15.3558, 5.94004 15.4098, 6.30652 15.7157 C 6.67301 16.0215, 6.77752 16.0329, 7.24756 16.2205 C 7.7176 16.4082, 7.81215 16.3984, 8.18669 16.4662 ZM 3.16041 7.27943 C 3.25045 7.16017, 3.28653 6.91975, 3.19711 6.79986 C 3.10768 6.67997, 2.89276 6.68061, 2.80272 6.79986 C 2.71267 6.91912, 2.7475 7.15699, 2.83692 7.27688 C 2.92634 7.39677, 3.07036 7.39868, 3.16041 7.27943 ZM 11.1361 7.43868 C 11.6353 7.55955, 11.4634 7.51813, 11.7412 7.46422 C 12.019 7.41032, 11.9973 7.4008, 12.2472 7.22306 C 12.4971 7.04531, 12.4995 6.99568, 12.7408 6.75324 C 12.9821 6.51079, 13.0384 6.51203, 13.2125 6.25328 C 13.3866 5.99452, 13.4358 6.0302, 13.4372 5.71822 C 13.4387 5.40623, 13.4109 5.36311, 13.2183 5.00533 C 13.0256 4.64756, 13.1485 4.59316, 12.6668 4.28711 C 12.185 3.98107, 11.9862 3.96906, 11.2913 3.78114 C 10.5965 3.59322, 10.3937 3.60418, 9.8875 3.53544 C 9.38131 3.4667, 9.54954 3.51408, 9.2666 3.50617 C 8.98365 3.49826, 9.00939 3.50384, 8.75571 3.5038 C 8.50203 3.50377, 8.5107 3.49857, 8.2519 3.50602 C 7.9931 3.51347, 8.02673 3.46526, 7.72051 3.53361 C 7.4143 3.60197, 7.30944 3.59176, 7.02704 3.77945 C 6.74463 3.96714, 6.65158 3.97872, 6.5909 4.28437 C 6.53022 4.59003, 6.61054 4.64374, 6.78433 5.00207 C 6.95812 5.3604, 6.94816 5.39739, 7.28605 5.71769 C 7.62393 6.03799, 7.5212 5.96751, 8.13587 6.28327 C 8.75054 6.59904, 8.99465 6.69189, 9.74472 6.98074 C 10.4948 7.26959, 10.637 7.31781, 11.1361 7.43868 ZM 4.19967 6.20014 C 4.29824 6.04539, 4.29879 5.72771, 4.19245 5.58114 C 4.08612 5.43458, 3.87289 5.45913, 3.77431 5.61388 C 3.67574 5.76862, 3.69182 6.05357, 3.79816 6.20014 C 3.9045 6.3467, 4.10109 6.35489, 4.19967 6.20014 ZM 8.79986 5.20014 C 8.69979 5.10007, 8.69979 4.89993, 8.79986 4.79986 C 8.89993 4.69979, 9.10007 4.69979, 9.20014 4.79986 C 9.30021 4.89993, 9.30021 5.10007, 9.20014 5.20014 C 9.10007 5.30021, 8.89993 5.30021, 8.79986 5.20014 ZM 10.7999 5.20014 C 10.6998 5.10007, 10.6998 4.89993, 10.7999 4.79986 C 10.8999 4.69979, 11.1001 4.69979, 11.2001 4.79986 C 11.3002 4.89993, 11.3002 5.10007, 11.2001 5.20014 C 11.1001 5.30021, 10.8999 5.30021, 10.7999 5.20014 ZM 19.7164 3.43408 C 20.0058 3.43439, 20.0805 3.40803, 20.1996 3.21771 C 20.3187 3.02739, 20.3043 2.84694, 20.1928 2.6728 C 20.0813 2.49866, 19.9884 2.55869, 19.7536 2.52114 C 19.5188 2.48359, 19.4866 2.48426, 19.2537 2.5226 C 19.0208 2.56094, 18.8749 2.50104, 18.822 2.6745 C 18.7691 2.84797, 18.8184 3.02656, 19.042 3.21645 C 19.2656 3.40634, 19.427 3.43376, 19.7164 3.43408 Z"
id="path9" 
inkscape:connector-curvature="0" sodipodi:nodetypes="cccccccccc" />
</svg>
