P3
#DGtal PNM Writer

44 57
255
90 99 109 90 99 109 90 99 109 90 99 109 90 99 109 90 99 109 90 99 109 90 99 109 90 99 109 90 99 109 90 99 109 90 99 109 90 99 109 90 99 109 90 99 109 90 99 109 90 99 109 90 99 109 90 99 109 90 99 109 90 99 109 90 99 109 90 99 109 90 99 109 90 99 109 90 99 109 90 99 109 90 99 109 90 99 109 90 99 109 90 99 109 90 99 109 90 99 109 90 99 109 90 99 109 90 99 109 90 99 109 90 99 109 90 99 109 90 99 109 90 99 109 90 99 109 90 99 109 90 99 109 90 99 109 90 99 109 90 99 109 90 99 109 90 99 109 90 99 109 90 99 109 90 99 109 90 99 109 90 99 109 90 99 109 90 99 109 90 99 109 90 99 109 90 99 109 90 99 109 90 99 109 90 99 109 90 99 109 148 148 148 148 148 148 148 148 148 123 123 123 90 99 109 90 99 109 90 99 109 90 99 109 90 99 109 90 99 109 90 99 109 90 99 109 90 99 109 90 99 109 90 99 109 90 99 109 90 99 109 90 99 109 90 99 109 90 99 109 90 99 109 90 99 109 90 99 109 90 99 109 90 99 109 90 99 109 90 99 109 90 99 109 90 99 109 90 99 109 90 99 109 90 99 109 90 99 109 90 99 109 90 99 109 90 99 109 90 99 109 90 99 109 90 99 109 90 99 109 90 99 109 90 99 109 90 99 109 173 173 173 197 197 197 197 197 197 173 173 173 173 173 173 173 173 173 123 123 123 90 99 109 90 99 109 90 99 109 90 99 109 90 99 109 90 99 109 90 99 109 90 99 109 90 99 109 90 99 109 90 99 109 90 99 109 90 99 109 90 99 109 90 99 109 90 99 109 90 99 109 90 99 109 90 99 109 90 99 109 90 99 109 90 99 109 90 99 109 90 99 109 90 99 109 90 99 109 90 99 109 90 99 109 90 99 109 90 99 109 90 99 109 90 99 109 90 99 109 90 99 109 90 99 109 90 99 109 173 173 173 173 173 173 222 222 222 173 173 173 197 197 197 222 222 222 173 173 173 173 173 173 123 123 123 90 99 109 90 99 109 90 99 109 90 99 109 90 99 109 90 99 109 90 99 109 90 99 109 90 99 109 90 99 109 90 99 109 90 99 109 90 99 109 90 99 109 90 99 109 90 99 109 90 99 109 90 99 109 90 99 109 90 99 109 90 99 109 90 99 109 90 99 109 90 99 109 90 99 109 90 99 109 90 99 109 90 99 109 90 99 109 90 99 109 90 99 109 90 99 109 90 99 109 90 99 109 90 99 109 197 197 197 255 255 255 173 173 173 255 255 255 255 255 255 222 222 222 148 148 148 173 173 173 148 148 148 123 123 123 90 99 109 90 99 109 90 99 109 90 99 109 90 99 109 90 99 109 90 99 109 90 99 109 90 99 109 90 99 109 90 99 109 90 99 109 90 99 109 90 99 109 90 99 109 90 99 109 90 99 109 90 99 109 90 99 109 90 99 109 90 99 109 90 99 109 90 99 109 90 99 109 90 99 109 90 99 109 90 99 109 90 99 109 90 99 109 90 99 109 90 99 109 90 99 109 90 99 109 90 99 109 99 99 99 123 123 123 255 255 255 197 197 197 0 0 0 148 148 148 197 197 197 197 197 197 148 148 148 123 123 123 90 99 109 90 99 109 90 99 109 90 99 109 90 99 109 90 99 109 90 99 109 90 99 109 90 99 109 90 99 109 90 99 109 90 99 109 90 99 109 90 99 109 90 99 109 90 99 109 90 99 109 90 99 109 90 99 109 90 99 109 90 99 109 90 99 109 90 99 109 90 99 109 90 99 109 90 99 109 90 99 109 90 99 109 90 99 109 90 99 109 90 99 109 90 99 109 90 99 109 90 99 109 148 148 148 0 0 0 255 255 255 0 0 0 123 123 123 173 173 173 222 222 222 148 148 148 148 148 148 123 123 123 90 99 109 90 99 109 90 99 109 90 99 109 90 99 109 90 99 109 90 99 109 90 99 109 90 99 109 90 99 109 90 99 109 90 99 109 90 99 109 90 99 109 90 99 109 90 99 109 90 99 109 90 99 109 90 99 109 90 99 109 90 99 109 90 99 109 90 99 109 90 99 109 90 99 109 90 99 109 90 99 109 90 99 109 90 99 109 90 99 109 90 99 109 90 99 109 90 99 109 90 99 109 197 197 197 255 255 255 0 0 0 222 222 222 255 255 255 197 197 197 173 173 173 148 148 148 123 123 123 99 99 99 90 99 109 90 99 109 90 99 109 90 99 109 90 99 109 90 99 109 90 99 109 90 99 109 90 99 109 90 99 109 90 99 109 90 99 109 90 99 109 90 99 109 90 99 109 90 99 109 90 99 109 90 99 109 90 99 109 90 99 109 90 99 109 90 99 109 90 99 109 90 99 109 90 99 109 90 99 109 90 99 109 90 99 109 90 99 109 90 99 109 90 99 109 90 99 109 90 99 109 90 99 109 90 99 109 197 197 197 255 255 255 222 222 222 197 197 197 197 197 197 99 99 99 123 123 123 99 99 99 90 99 109 90 99 109 90 99 109 90 99 109 90 99 109 90 99 109 90 99 109 90 99 109 90 99 109 90 99 109 90 99 109 90 99 109 90 99 109 90 99 109 90 99 109 90 99 109 90 99 109 90 99 109 90 99 109 90 99 109 90 99 109 90 99 109 90 99 109 90 99 109 90 99 109 90 99 109 90 99 109 90 99 109 90 99 109 90 99 109 90 99 109 90 99 109 90 99 109 90 99 109 90 99 109 90 99 109 99 99 99 173 173 173 99 99 99 173 173 173 99 99 99 148 148 148 99 99 99 90 99 109 90 99 109 90 99 109 90 99 109 90 99 109 90 99 109 90 99 109 90 99 109 90 99 109 90 99 109 90 99 109 90 99 109 90 99 109 90 99 109 90 99 109 90 99 109 90 99 109 90 99 109 90 99 109 90 99 109 90 99 109 90 99 109 140 99 58 255 214 173 90 99 109 90 99 109 90 99 109 90 99 109 90 99 109 90 99 109 90 99 109 90 99 109 90 99 109 90 99 109 173 173 173 222 222 222 90 99 109 197 197 197 255 255 255 222 222 222 197 197 197 173 173 173 148 148 148 90 99 109 90 99 109 90 99 109 90 99 109 90 99 109 90 99 109 90 99 109 90 99 109 90 99 109 90 99 109 90 99 109 90 99 109 90 99 109 90 99 109 90 99 109 90 99 109 90 99 109 90 99 109 90 99 109 90 99 109 90 99 109 90 99 109 140 99 58 255 214 173 189 148 107 90 99 109 90 99 109 90 99 109 90 99 109 90 99 109 90 99 109 90 99 109 90 99 109 90 99 109 90 99 109 173 173 173 222 222 222 222 222 222 148 148 148 255 255 255 197 197 197 173 173 173 148 148 148 99 99 99 90 99 109 90 99 109 90 99 109 90 99 109 90 99 109 90 99 109 90 99 109 90 99 109 90 99 109 90 99 109 90 99 109 90 99 109 90 99 109 90 99 109 90 99 109 90 99 109 90 99 109 90 99 109 90 99 109 90 99 109 90 99 109 140 99 58 214 173 132 255 214 173 90 99 109 90 99 109 90 99 109 90 99 109 90 99 109 90 99 109 90 99 109 90 99 109 90 99 109 90 99 109 90 99 109 90 99 109 173 173 173 99 99 99 99 99 99 99 99 99 90 99 109 90 99 109 0 0 0 148 148 148 173 173 173 255 255 255 255 255 255 255 255 255 90 99 109 90 99 109 90 99 109 90 99 109 90 99 109 90 99 109 90 99 109 90 99 109 90 99 109 90 99 109 90 99 109 90 99 109 90 99 109 90 99 109 90 99 109 90 99 109 90 99 109 140 99 58 255 214 173 255 214 173 90 99 109 90 99 109 90 99 109 90 99 109 90 99 109 90 99 109 90 99 109 90 99 109 90 99 109 90 99 109 90 99 109 90 99 109 90 99 109 99 99 99 222 222 222 99 99 99 99 99 99 99 99 99 222 222 222 222 222 222 222 222 222 173 173 173 123 123 123 148 148 148 255 255 255 255 255 255 222 222 222 90 99 109 90 99 109 90 99 109 90 99 109 90 99 109 90 99 109 90 99 109 90 99 109 90 99 109 90 99 109 90 99 109 90 99 109 90 99 109 90 99 109 107 74 33 255 255 255 255 214 173 214 173 132 90 99 109 90 99 109 90 99 109 90 99 109 90 99 109 90 99 109 90 99 109 90 99 109 90 99 109 90 99 109 90 99 109 90 99 109 99 99 99 148 148 148 255 255 255 255 255 255 255 255 255 90 99 109 0 0 0 123 123 123 99 99 99 173 173 173 173 173 173 0 0 0 148 148 148 197 197 197 255 255 255 222 222 222 90 99 109 90 99 109 90 99 109 90 99 109 90 99 109 90 99 109 90 99 109 90 99 109 90 99 109 90 99 109 90 99 109 90 99 109 107 74 33 255 255 255 255 214 173 255 214 173 90 99 109 90 99 109 90 99 109 90 99 109 90 99 109 90 99 109 90 99 109 90 99 109 90 99 109 90 99 109 90 99 109 90 99 109 90 99 109 99 99 99 99 99 99 255 255 255 255 255 255 255 255 255 222 222 222 222 222 222 197 197 197 173 173 173 0 0 0 0 0 0 0 0 0 99 99 99 90 99 109 90 99 109 90 99 109 90 99 109 90 99 109 90 99 109 90 99 109 90 99 109 90 99 109 90 99 109 90 99 109 90 99 109 90 99 109 90 99 109 107 74 33 255 255 255 255 214 173 255 214 173 90 99 109 90 99 109 90 99 109 90 99 109 90 99 109 90 99 109 90 99 109 90 99 109 90 99 109 90 99 109 90 99 109 90 99 109 90 99 109 173 173 173 222 222 222 255 255 255 255 255 255 90 99 109 90 99 109 0 0 0 123 123 123 90 99 109 173 173 173 173 173 173 99 99 99 173 173 173 222 222 222 222 222 222 90 99 109 90 99 109 90 99 109 90 99 109 90 99 109 90 99 109 90 99 109 90 99 109 90 99 109 90 99 109 90 99 109 90 99 109 107 74 33 255 214 173 255 255 255 255 214 173 214 173 132 90 99 109 90 99 109 90 99 109 90 99 109 90 99 109 90 99 109 90 99 109 90 99 109 90 99 109 90 99 109 90 99 109 90 99 109 222 222 222 173 173 173 99 99 99 255 255 255 255 255 255 255 255 255 222 222 222 222 222 222 197 197 197 173 173 173 123 123 123 99 99 99 123 123 123 197 197 197 255 214 173 214 173 132 214 173 132 90 99 109 90 99 109 90 99 109 90 99 109 90 99 109 90 99 109 90 99 109 90 99 109 90 99 109 90 99 109 107 74 33 107 74 33 255 255 255 255 214 173 214 173 132 90 99 109 90 99 109 90 99 109 90 99 109 90 99 109 90 99 109 90 99 109 90 99 109 90 99 109 90 99 109 90 99 109 90 99 109 222 222 222 173 173 173 222 222 222 255 255 255 255 255 255 90 99 109 90 99 109 0 0 0 123 123 123 90 99 109 173 173 173 173 173 173 255 214 173 255 214 173 164 123 82 164 123 82 140 99 58 140 99 58 107 74 33 90 99 109 90 99 109 90 99 109 90 99 109 90 99 109 90 99 109 90 99 109 90 99 109 90 99 109 107 74 33 255 214 173 255 255 255 214 173 132 214 173 132 90 99 109 90 99 109 90 99 109 90 99 109 90 99 109 90 99 109 90 99 109 90 99 109 90 99 109 90 99 109 90 99 109 90 99 109 222 222 222 173 173 173 90 99 109 255 255 255 255 255 255 255 255 255 222 222 222 222 222 222 197 197 197 173 173 173 255 255 255 255 214 173 164 123 82 164 123 82 140 99 58 140 99 58 140 99 58 107 74 33 107 74 33 90 99 109 90 99 109 90 99 109 90 99 109 90 99 109 90 99 109 90 99 109 90 99 109 107 74 33 107 74 33 255 255 255 255 214 173 214 173 132 90 99 109 90 99 109 90 99 109 90 99 109 90 99 109 90 99 109 90 99 109 90 99 109 90 99 109 90 99 109 90 99 109 90 99 109 222 222 222 222 222 222 173 173 173 222 222 222 255 255 255 90 99 109 90 99 109 0 0 0 123 123 123 255 255 255 255 214 173 164 123 82 164 123 82 164 123 82 255 214 173 255 214 173 214 173 132 189 148 107 107 74 33 107 74 33 90 99 109 90 99 109 90 99 109 90 99 109 90 99 109 90 99 109 90 99 109 90 99 109 107 74 33 107 74 33 255 255 255 214 173 132 214 173 132 90 99 109 90 99 109 90 99 109 90 99 109 90 99 109 90 99 109 90 99 109 90 99 109 90 99 109 90 99 109 90 99 109 90 99 109 222 222 222 173 173 173 90 99 109 222 222 222 222 222 222 197 197 197 197 197 197 173 173 173 255 255 255 164 123 82 164 123 82 164 123 82 255 214 173 255 214 173 255 214 173 255 214 173 214 173 132 189 148 107 107 74 33 90 99 109 90 99 109 90 99 109 90 99 109 90 99 109 90 99 109 90 99 109 90 99 109 90 99 109 107 74 33 107 74 33 255 214 173 214 173 132 90 99 109 90 99 109 90 99 109 90 99 109 90 99 109 90 99 109 90 99 109 90 99 109 90 99 109 90 99 109 222 222 222 255 255 255 90 99 109 90 99 109 90 99 109 90 99 109 222 222 222 173 173 173 90 99 109 255 255 255 255 214 173 164 123 82 164 123 82 255 214 173 255 214 173 214 173 132 222 222 222 197 197 197 189 148 107 189 148 107 189 148 107 107 74 33 90 99 109 90 99 109 90 99 109 90 99 109 90 99 109 90 99 109 90 99 109 90 99 109 90 99 109 107 74 33 107 74 33 255 214 173 214 173 132 90 99 109 90 99 109 90 99 109 90 99 109 90 99 109 90 99 109 90 99 109 90 99 109 222 222 222 255 255 255 222 222 222 173 173 173 90 99 109 90 99 109 90 99 109 90 99 109 197 197 197 173 173 173 255 255 255 164 123 82 164 123 82 164 123 82 255 214 173 214 173 132 222 222 222 255 255 255 222 222 222 197 197 197 189 148 107 189 148 107 107 74 33 90 99 109 90 99 109 90 99 109 90 99 109 90 99 109 90 99 109 90 99 109 90 99 109 90 99 109 90 99 109 107 74 33 107 74 33 255 214 173 214 173 132 90 99 109 90 99 109 90 99 109 90 99 109 90 99 109 90 99 109 197 197 197 255 255 255 197 197 197 197 197 197 90 99 109 90 99 109 90 99 109 90 99 109 90 99 109 90 99 109 90 99 109 255 255 255 164 123 82 164 123 82 255 214 173 255 214 173 214 173 132 255 255 255 255 255 255 255 255 255 197 197 197 189 148 107 189 148 107 164 123 82 107 74 33 90 99 109 90 99 109 90 99 109 90 99 109 90 99 109 90 99 109 90 99 109 90 99 109 90 99 109 90 99 109 107 74 33 107 74 33 255 214 173 214 173 132 90 99 109 90 99 109 255 214 173 255 214 173 197 197 197 255 255 255 197 197 197 173 173 173 90 99 109 90 99 109 90 99 109 90 99 109 90 99 109 90 99 109 90 99 109 222 222 222 255 214 173 164 123 82 164 123 82 255 214 173 214 173 132 222 222 222 255 255 255 255 255 255 255 255 255 197 197 197 197 197 197 164 123 82 164 123 82 107 74 33 90 99 109 90 99 109 90 99 109 90 99 109 90 99 109 90 99 109 90 99 109 90 99 109 90 99 109 90 99 109 90 99 109 107 74 33 107 74 33 255 214 173 214 173 132 255 214 173 255 214 173 148 148 148 255 255 255 222 222 222 173 173 173 90 99 109 90 99 109 90 99 109 90 99 109 90 99 109 90 99 109 90 99 109 222 222 222 197 197 197 255 214 173 140 99 58 140 99 58 255 214 173 214 173 132 255 255 255 189 148 107 140 99 58 255 255 255 140 99 58 197 197 197 164 123 82 164 123 82 107 74 33 90 99 109 90 99 109 90 99 109 90 99 109 90 99 109 90 99 109 90 99 109 90 99 109 90 99 109 90 99 109 90 99 109 90 99 109 107 74 33 107 74 33 164 123 82 255 214 173 164 123 82 255 255 255 148 148 148 222 222 222 90 99 109 90 99 109 90 99 109 90 99 109 90 99 109 90 99 109 90 99 109 90 99 109 197 197 197 173 173 173 255 214 173 140 99 58 140 99 58 255 214 173 214 173 132 255 255 255 140 99 58 189 148 107 255 255 255 164 123 82 197 197 197 164 123 82 140 99 58 0 0 0 90 99 109 90 99 109 90 99 109 90 99 109 90 99 109 90 99 109 90 99 109 90 99 109 90 99 109 90 99 109 90 99 109 90 99 109 90 99 109 107 74 33 255 214 173 164 123 82 107 74 33 255 255 255 255 255 255 90 99 109 90 99 109 90 99 109 90 99 109 90 99 109 90 99 109 90 99 109 90 99 109 90 99 109 90 99 109 197 197 197 214 173 132 140 99 58 140 99 58 255 214 173 214 173 132 214 173 132 255 255 255 255 255 255 140 99 58 197 197 197 164 123 82 164 123 82 140 99 58 0 0 0 90 99 109 90 99 109 90 99 109 90 99 109 90 99 109 90 99 109 90 99 109 90 99 109 90 99 109 90 99 109 90 99 109 90 99 109 255 214 173 255 214 173 107 74 33 107 74 33 173 173 173 255 255 255 173 173 173 90 99 109 90 99 109 90 99 109 90 99 109 90 99 109 90 99 109 90 99 109 90 99 109 90 99 109 148 148 148 197 197 197 214 173 132 107 74 33 140 99 58 255 214 173 255 214 173 214 173 132 189 148 107 255 255 255 222 222 222 197 197 197 164 123 82 164 123 82 140 99 58 0 0 0 90 99 109 90 99 109 90 99 109 90 99 109 90 99 109 90 99 109 90 99 109 90 99 109 90 99 109 90 99 109 90 99 109 90 99 109 255 214 173 107 74 33 197 197 197 197 197 197 173 173 173 255 255 255 222 222 222 214 173 132 90 99 109 90 99 109 90 99 109 90 99 109 90 99 109 90 99 109 90 99 109 222 222 222 222 222 222 123 123 123 214 173 132 107 74 33 140 99 58 214 173 132 255 214 173 214 173 132 189 148 107 164 123 82 164 123 82 140 99 58 164 123 82 164 123 82 140 99 58 0 0 0 90 99 109 90 99 109 90 99 109 90 99 109 90 99 109 90 99 109 90 99 109 90 99 109 90 99 109 90 99 109 90 99 109 90 99 109 90 99 109 90 99 109 123 123 123 123 123 123 222 222 222 255 255 255 173 173 173 164 123 82 214 173 132 90 99 109 90 99 109 90 99 109 90 99 109 90 99 109 197 197 197 255 255 255 255 255 255 148 148 148 214 173 132 107 74 33 107 74 33 214 173 132 255 214 173 214 173 132 189 148 107 255 255 255 222 222 222 197 197 197 164 123 82 140 99 58 140 99 58 0 0 0 90 99 109 90 99 109 90 99 109 90 99 109 90 99 109 90 99 109 90 99 109 90 99 109 90 99 109 90 99 109 90 99 109 90 99 109 90 99 109 90 99 109 90 99 109 222 222 222 197 197 197 123 123 123 222 222 222 197 197 197 164 123 82 214 173 132 90 99 109 90 99 109 90 99 109 173 173 173 255 255 255 255 255 255 222 222 222 197 197 197 189 148 107 107 74 33 107 74 33 107 74 33 214 173 132 214 173 132 189 148 107 189 148 107 197 197 197 164 123 82 164 123 82 140 99 58 0 0 0 90 99 109 90 99 109 90 99 109 90 99 109 90 99 109 90 99 109 90 99 109 90 99 109 90 99 109 90 99 109 90 99 109 90 99 109 90 99 109 90 99 109 90 99 109 90 99 109 90 99 109 90 99 109 222 222 222 197 197 197 107 74 33 107 74 33 164 123 82 90 99 109 90 99 109 197 197 197 255 255 255 222 222 222 173 173 173 148 148 148 90 99 109 90 99 109 189 148 107 107 74 33 0 0 0 189 148 107 214 173 132 189 148 107 189 148 107 164 123 82 164 123 82 140 99 58 140 99 58 0 0 0 90 99 109 90 99 109 90 99 109 90 99 109 90 99 109 90 99 109 90 99 109 90 99 109 90 99 109 90 99 109 90 99 109 90 99 109 90 99 109 90 99 109 90 99 109 90 99 109 90 99 109 90 99 109 90 99 109 90 99 109 107 74 33 107 74 33 90 99 109 90 99 109 222 222 222 255 255 255 222 222 222 173 173 173 123 123 123 90 99 109 90 99 109 90 99 109 189 148 107 107 74 33 0 0 0 0 0 0 189 148 107 189 148 107 164 123 82 164 123 82 140 99 58 140 99 58 0 0 0 90 99 109 90 99 109 90 99 109 90 99 109 90 99 109 90 99 109 90 99 109 90 99 109 90 99 109 90 99 109 90 99 109 90 99 109 90 99 109 90 99 109 90 99 109 90 99 109 90 99 109 90 99 109 90 99 109 90 99 109 90 99 109 90 99 109 90 99 109 90 99 109 222 222 222 255 255 255 255 255 255 173 173 173 123 123 123 90 99 109 90 99 109 90 99 109 90 99 109 90 99 109 189 148 107 107 74 33 0 0 0 0 0 0 164 123 82 164 123 82 140 99 58 140 99 58 0 0 0 0 0 0 90 99 109 90 99 109 90 99 109 90 99 109 90 99 109 90 99 109 90 99 109 90 99 109 90 99 109 90 99 109 90 99 109 90 99 109 90 99 109 90 99 109 90 99 109 90 99 109 90 99 109 90 99 109 90 99 109 90 99 109 90 99 109 90 99 109 90 99 109 90 99 109 99 99 99 255 255 255 222 222 222 148 148 148 90 99 109 90 99 109 90 99 109 90 99 109 90 99 109 90 99 109 90 99 109 189 148 107 107 74 33 0 0 0 0 0 0 0 0 0 0 0 0 0 0 0 0 0 0 90 99 109 90 99 109 90 99 109 90 99 109 90 99 109 90 99 109 90 99 109 90 99 109 90 99 109 90 99 109 90 99 109 90 99 109 90 99 109 90 99 109 90 99 109 90 99 109 90 99 109 90 99 109 90 99 109 90 99 109 90 99 109 90 99 109 90 99 109 90 99 109 222 222 222 123 123 123 255 255 255 197 197 197 90 99 109 90 99 109 90 99 109 90 99 109 90 99 109 90 99 109 90 99 109 90 99 109 90 99 109 189 148 107 107 74 33 0 0 0 0 0 0 0 0 0 0 0 0 90 99 109 90 99 109 90 99 109 90 99 109 90 99 109 90 99 109 90 99 109 90 99 109 90 99 109 90 99 109 90 99 109 90 99 109 90 99 109 90 99 109 90 99 109 90 99 109 90 99 109 90 99 109 90 99 109 90 99 109 90 99 109 90 99 109 90 99 109 90 99 109 90 99 109 173 173 173 197 197 197 99 99 99 90 99 109 90 99 109 90 99 109 90 99 109 90 99 109 90 99 109 90 99 109 90 99 109 90 99 109 90 99 109 90 99 109 123 123 123 123 123 123 99 99 99 90 99 109 90 99 109 90 99 109 90 99 109 90 99 109 90 99 109 90 99 109 90 99 109 90 99 109 90 99 109 90 99 109 90 99 109 90 99 109 90 99 109 90 99 109 90 99 109 90 99 109 90 99 109 90 99 109 90 99 109 90 99 109 90 99 109 90 99 109 90 99 109 90 99 109 90 99 109 90 99 109 99 99 99 123 123 123 222 222 222 255 255 255 173 173 173 90 99 109 90 99 109 90 99 109 90 99 109 90 99 109 90 99 109 90 99 109 90 99 109 90 99 109 148 148 148 222 222 222 197 197 197 123 123 123 90 99 109 90 99 109 90 99 109 90 99 109 90 99 109 90 99 109 90 99 109 90 99 109 90 99 109 90 99 109 90 99 109 90 99 109 90 99 109 90 99 109 90 99 109 90 99 109 90 99 109 90 99 109 90 99 109 90 99 109 90 99 109 90 99 109 90 99 109 90 99 109 90 99 109 90 99 109 90 99 109 222 222 222 255 255 255 222 222 222 222 222 222 90 99 109 90 99 109 90 99 109 90 99 109 90 99 109 90 99 109 90 99 109 90 99 109 90 99 109 123 123 123 197 197 197 173 173 173 99 99 99 148 148 148 90 99 109 90 99 109 90 99 109 90 99 109 90 99 109 90 99 109 90 99 109 90 99 109 90 99 109 90 99 109 90 99 109 90 99 109 90 99 109 90 99 109 90 99 109 90 99 109 90 99 109 90 99 109 90 99 109 90 99 109 90 99 109 90 99 109 90 99 109 90 99 109 90 99 109 90 99 109 197 197 197 255 255 255 197 197 197 197 197 197 90 99 109 90 99 109 90 99 109 90 99 109 90 99 109 90 99 109 90 99 109 90 99 109 90 99 109 90 99 109 99 99 99 148 148 148 222 222 222 222 222 222 148 148 148 90 99 109 90 99 109 90 99 109 90 99 109 90 99 109 90 99 109 90 99 109 90 99 109 90 99 109 90 99 109 90 99 109 90 99 109 90 99 109 90 99 109 90 99 109 90 99 109 90 99 109 90 99 109 90 99 109 90 99 109 90 99 109 90 99 109 90 99 109 90 99 109 90 99 109 173 173 173 255 255 255 197 197 197 197 197 197 90 99 109 90 99 109 90 99 109 90 99 109 90 99 109 90 99 109 90 99 109 90 99 109 90 99 109 90 99 109 90 99 109 222 222 222 222 222 222 222 222 222 173 173 173 148 148 148 90 99 109 90 99 109 90 99 109 90 99 109 90 99 109 90 99 109 90 99 109 90 99 109 90 99 109 90 99 109 90 99 109 90 99 109 90 99 109 90 99 109 90 99 109 90 99 109 90 99 109 90 99 109 90 99 109 90 99 109 90 99 109 90 99 109 90 99 109 90 99 109 148 148 148 255 255 255 197 197 197 173 173 173 90 99 109 90 99 109 90 99 109 90 99 109 90 99 109 90 99 109 90 99 109 90 99 109 90 99 109 90 99 109 90 99 109 90 99 109 173 173 173 222 222 222 222 222 222 173 173 173 148 148 148 90 99 109 90 99 109 90 99 109 90 99 109 90 99 109 90 99 109 90 99 109 90 99 109 90 99 109 90 99 109 90 99 109 90 99 109 90 99 109 90 99 109 90 99 109 90 99 109 90 99 109 90 99 109 90 99 109 90 99 109 90 99 109 90 99 109 90 99 109 123 123 123 255 255 255 197 197 197 173 173 173 90 99 109 90 99 109 90 99 109 90 99 109 90 99 109 90 99 109 90 99 109 90 99 109 90 99 109 90 99 109 90 99 109 90 99 109 90 99 109 148 148 148 222 222 222 222 222 222 173 173 173 148 148 148 148 148 148 90 99 109 90 99 109 90 99 109 90 99 109 90 99 109 90 99 109 90 99 109 90 99 109 90 99 109 90 99 109 90 99 109 90 99 109 90 99 109 90 99 109 90 99 109 90 99 109 90 99 109 90 99 109 90 99 109 90 99 109 90 99 109 123 123 123 255 255 255 197 197 197 173 173 173 90 99 109 90 99 109 90 99 109 90 99 109 90 99 109 90 99 109 90 99 109 90 99 109 90 99 109 90 99 109 90 99 109 90 99 109 90 99 109 90 99 109 148 148 148 222 222 222 222 222 222 197 197 197 148 148 148 90 99 109 90 99 109 90 99 109 90 99 109 90 99 109 90 99 109 90 99 109 90 99 109 90 99 109 90 99 109 90 99 109 90 99 109 90 99 109 90 99 109 90 99 109 90 99 109 90 99 109 90 99 109 90 99 109 90 99 109 90 99 109 148 148 148 255 255 255 197 197 197 197 197 197 90 99 109 90 99 109 90 99 109 90 99 109 90 99 109 90 99 109 90 99 109 90 99 109 90 99 109 90 99 109 90 99 109 90 99 109 90 99 109 90 99 109 90 99 109 197 197 197 123 123 123 99 99 99 90 99 109 90 99 109 90 99 109 90 99 109 90 99 109 90 99 109 90 99 109 90 99 109 90 99 109 90 99 109 90 99 109 90 99 109 90 99 109 90 99 109 90 99 109 90 99 109 90 99 109 90 99 109 90 99 109 90 99 109 90 99 109 90 99 109 197 197 197 255 255 255 222 222 222 197 197 197 90 99 109 90 99 109 90 99 109 90 99 109 90 99 109 90 99 109 90 99 109 90 99 109 90 99 109 90 99 109 90 99 109 90 99 109 90 99 109 90 99 109 90 99 109 90 99 109 148 148 148 197 197 197 99 99 99 90 99 109 90 99 109 90 99 109 90 99 109 90 99 109 90 99 109 90 99 109 90 99 109 90 99 109 90 99 109 90 99 109 90 99 109 90 99 109 90 99 109 90 99 109 90 99 109 90 99 109 90 99 109 90 99 109 90 99 109 90 99 109 222 222 222 222 222 222 255 255 255 222 222 222 90 99 109 90 99 109 90 99 109 90 99 109 90 99 109 90 99 109 90 99 109 90 99 109 90 99 109 90 99 109 90 99 109 90 99 109 90 99 109 90 99 109 90 99 109 90 99 109 173 173 173 222 222 222 173 173 173 99 99 99 90 99 109 90 99 109 90 99 109 90 99 109 90 99 109 90 99 109 90 99 109 90 99 109 90 99 109 90 99 109 90 99 109 90 99 109 90 99 109 90 99 109 90 99 109 90 99 109 90 99 109 90 99 109 90 99 109 90 99 109 90 99 109 148 148 148 148 148 148 197 197 197 90 99 109 90 99 109 90 99 109 90 99 109 90 99 109 90 99 109 90 99 109 90 99 109 90 99 109 90 99 109 90 99 109 90 99 109 90 99 109 90 99 109 90 99 109 90 99 109 123 123 123 173 173 173 123 123 123 99 99 99 90 99 109 90 99 109 90 99 109 90 99 109 90 99 109 90 99 109 90 99 109 90 99 109 90 99 109 90 99 109 90 99 109 90 99 109 90 99 109 90 99 109 90 99 109 90 99 109 90 99 109 90 99 109 90 99 109 90 99 109 173 173 173 255 255 255 148 148 148 0 0 0 90 99 109 90 99 109 90 99 109 90 99 109 90 99 109 90 99 109 90 99 109 90 99 109 90 99 109 90 99 109 90 99 109 90 99 109 90 99 109 90 99 109 90 99 109 90 99 109 197 197 197 222 222 222 148 148 148 99 99 99 90 99 109 90 99 109 90 99 109 90 99 109 90 99 109 90 99 109 90 99 109 90 99 109 90 99 109 90 99 109 90 99 109 90 99 109 90 99 109 90 99 109 90 99 109 90 99 109 90 99 109 90 99 109 90 99 109 222 222 222 255 255 255 173 173 173 123 123 123 173 173 173 197 197 197 90 99 109 90 99 109 90 99 109 90 99 109 90 99 109 90 99 109 90 99 109 90 99 109 90 99 109 90 99 109 90 99 109 90 99 109 90 99 109 90 99 109 90 99 109 197 197 197 222 222 222 148 148 148 99 99 99 90 99 109 90 99 109 90 99 109 90 99 109 90 99 109 90 99 109 90 99 109 90 99 109 90 99 109 90 99 109 90 99 109 90 99 109 90 99 109 90 99 109 197 197 197 123 123 123 255 255 255 255 255 255 222 222 222 255 255 255 173 173 173 148 148 148 99 99 99 123 123 123 197 197 197 90 99 109 90 99 109 90 99 109 90 99 109 90 99 109 90 99 109 90 99 109 90 99 109 90 99 109 90 99 109 90 99 109 90 99 109 90 99 109 90 99 109 222 222 222 173 173 173 222 222 222 173 173 173 99 99 99 90 99 109 90 99 109 90 99 109 90 99 109 90 99 109 90 99 109 90 99 109 90 99 109 90 99 109 90 99 109 90 99 109 90 99 109 90 99 109 90 99 109 255 255 255 197 197 197 123 123 123 197 197 197 255 255 255 173 173 173 148 148 148 99 99 99 0 0 0 0 0 0 0 0 0 90 99 109 90 99 109 90 99 109 90 99 109 90 99 109 90 99 109 90 99 109 90 99 109 90 99 109 90 99 109 90 99 109 90 99 109 222 222 222 222 222 222 148 148 148 222 222 222 148 148 148 222 222 222 0 0 0 90 99 109 90 99 109 90 99 109 90 99 109 90 99 109 90 99 109 90 99 109 90 99 109 90 99 109 90 99 109 90 99 109 90 99 109 90 99 109 90 99 109 99 99 99 255 255 255 197 197 197 173 173 173 173 173 173 0 0 0 0 0 0 90 99 109 90 99 109 90 99 109 90 99 109 90 99 109 90 99 109 90 99 109 90 99 109 90 99 109 90 99 109 90 99 109 90 99 109 90 99 109 90 99 109 90 99 109 90 99 109 222 222 222 0 0 0 222 222 222 0 0 0 222 222 222 173 173 173 0 0 0 90 99 109 90 99 109 90 99 109 90 99 109 90 99 109 90 99 109 90 99 109 90 99 109 90 99 109 90 99 109 90 99 109 90 99 109 90 99 109 90 99 109 90 99 109 99 99 99 99 99 99 99 99 99 0 0 0 90 99 109 90 99 109 90 99 109 90 99 109 90 99 109 90 99 109 90 99 109 90 99 109 90 99 109 90 99 109 90 99 109 90 99 109 90 99 109 90 99 109 90 99 109 90 99 109 90 99 109 90 99 109 90 99 109 90 99 109 90 99 109 90 99 109 90 99 109 90 99 109 90 99 109 90 99 109 90 99 109 90 99 109 90 99 109 90 99 109 90 99 109 90 99 109 90 99 109 90 99 109 90 99 109 90 99 109 90 99 109 90 99 109 90 99 109 90 99 109 90 99 109 90 99 109 90 99 109 90 99 109 90 99 109 90 99 109 90 99 109 90 99 109 90 99 109 90 99 109 90 99 109 90 99 109 90 99 109 90 99 109 90 99 109 90 99 109 90 99 109 90 99 109 90 99 109 90 99 109 90 99 109 90 99 109 90 99 109 90 99 109 90 99 109 90 99 109 90 99 109 90 99 109 90 99 109 90 99 109 