<?xml version="1.0" encoding="UTF-8" standalone="no"?>
<!-- Created BasicImageExporter --> 
 
<svg
xmlns:dc="http://purl.org/dc/elements/1.1/"
xmlns:cc="http://creativecommons.org/ns#"
xmlns:rdf="http://www.w3.org/1999/02/22-rdf-syntax-ns#"
xmlns:svg="http://www.w3.org/2000/svg"
xmlns="http://www.w3.org/2000/svg"
xmlns:sodipodi="http://sodipodi.sourceforge.net/DTD/sodipodi-0.dtd"
xmlns:inkscape="http://www.inkscape.org/namespaces/inkscape"
width="704px"
height="912px"
viewBox="0 0 44 57"
version="1.1"
id="svg3"
sodipodi:docname=""
inkscape:version="0.92.2 5c3e80d, 2017-08-06">
<metadata 
id="metadata9"> 
<rdf:RDF> 
<cc:Work 
rdf:about=""> 
<dc:format>image/svg+xml</dc:format> 
<dc:type 
rdf:resource="http://purl.org/dc/dcmitype/StillImage" /> 
<dc:title></dc:title> 
</cc:Work> 
</rdf:RDF> 
</metadata> 
<defs 
id="defs7" /> 
<sodipodi:namedview
pagecolor="#ffffff" 
bordercolor="#666666"
borderopacity="1"
objecttolerance="10"
gridtolerance="10" 
guidetolerance="10"
inkscape:pageopacity="0"
inkscape:pageshadow="2" 
inkscape:window-width="1250" 
inkscape:window-height="735"
id="namedview5" 
showgrid="false" 
inkscape:zoom="1"
inkscape:cx="352" 
inkscape:cy="456" 
inkscape:window-x="0" 
inkscape:window-y="0"
inkscape:window-maximized="0"
inkscape:current-layer="svg3" />
<path 
 style="fill:#5a636d; fill-opacity:1,fill-rule:evenodd;stroke:#5a636d;stroke-width:0.1;stroke-linecap:butt;stroke-linejoin:miter;stroke-opacity:1"
d="M 0 0 Q 44 0, 44 57 Q 0 57, 0 0 Z"
id="path1" 
inkscape:connector-curvature="0" sodipodi:nodetypes="cccccccccc" />
<path 
 style="fill:#000000; fill-opacity:1,fill-rule:evenodd;stroke:#000000;stroke-width:0.1;stroke-linecap:butt;stroke-linejoin:miter;stroke-opacity:1"
d="M 17.2667 56.2004 Q 18.0244 55.7422, 18.9267 55.2423 Q 19.1307 54.6725, 18.7074 54.5664 Q 17.9829 54.8582, 16.8804 55.7131 Q 16.8068 56.2025, 17.2667 56.2004 ZM 37.197 55.4188 Q 37.1558 54.7895, 36.7773 54.7993 Q 36.5814 55.1393, 37.197 55.4188 ZM 38.8032 55.4369 Q 39.1969 55.437, 39.1567 54.7915 Q 38.8442 54.7898, 38.8032 55.4369 ZM 42.2175 55.1961 Q 42.4336 54.7161, 42.2183 54.0515 Q 41.6317 54.2345, 41.5331 54.733 Q 41.6253 55.141, 42.2175 55.1961 ZM 22.1805 54.4617 Q 22.7429 54.4615, 23.1668 54.2186 Q 22.7337 53.7829, 21.8202 53.5387 Q 21.2571 53.5386, 20.8332 53.7814 Q 21.2752 54.221, 22.1805 54.4617 ZM 22.5404 51.4088 Q 22.1509 50.6142, 21.8663 50.7061 Q 22.162 51.2965, 22.5404 51.4088 ZM 33.2051 38.4968 Q 33.7494 38.4987, 34.2511 38.4982 Q 34.7526 38.4922, 35.3254 38.4178 Q 36.4826 37.7365, 37.6441 36.8184 Q 38.2113 36.2565, 38.4951 35.7293 Q 38.7707 34.9784, 39.2786 33.9133 Q 39.9774 32.2665, 40.4443 30.8568 Q 40.4956 30.2542, 40.5 29.7502 Q 40.4986 29.253, 40.4956 28.7556 Q 40.4765 28.2532, 40.3092 27.8057 Q 39.6985 27.844, 39.5261 28.2534 Q 39.5046 28.7558, 39.5012 29.2525 Q 39.4989 29.7477, 39.497 30.2459 Q 39.4935 30.7481, 39.4633 31.2821 Q 39.1521 32.1309, 38.2372 33.7426 Q 37.3031 35.1322, 36.6969 35.7383 Q 35.7558 36.2205, 34.8146 36.4649 Q 34.2121 36.4791, 33.722 36.4668 Q 33.0015 36.222, 32.2359 35.6999 Q 31.7516 35.2465, 31.2516 34.7389 Q 30.8277 34.2279, 30.2479 33.7959 Q 29.7877 33.8, 29.6195 34.3318 Q 30.2696 35.4886, 31.1837 36.6486 Q 31.7459 37.2409, 32.2459 37.7491 Q 32.8007 38.3607, 33.2051 38.4968 ZM 26.4719 21.2966 Q 26.1584 20.629, 25.8508 20.595 Q 26.2137 21.3496, 26.4719 21.2966 ZM 25.5305 19.3711 Q 25.1591 18.6289, 24.8507 18.595 Q 25.2565 19.4055, 25.5305 19.3711 ZM 24.5302 17.3709 Q 24.1591 16.6289, 23.8507 16.595 Q 24.2557 17.4049, 24.5302 17.3709 ZM 28.1814 16.4622 Q 28.7431 16.4637, 29.1993 16.2206 Q 29.196 15.7483, 28.7174 15.1751 Q 28.1768 14.6529, 27.8224 14.6808 Q 27.2638 15.2434, 26.8395 15.7434 Q 27.0254 16.1572, 28.1814 16.4622 ZM 23.5304 15.371 Q 23.1593 14.6285, 22.8533 14.5919 Q 23.2546 15.4044, 23.5304 15.371 ZM 22.4905 13.3271 Q 22.2214 12.7885, 21.8662 12.6958 Q 22.2559 13.4028, 22.4905 13.3271 ZM 19.4698 8.19745 Q 19.7608 7.83763, 20.2627 7.24343 Q 20.7496 6.7449, 21.2421 6.20546 Q 21.148 5.65145, 20.8039 5.71884 Q 20.2524 6.2508, 19.7507 6.74949 Q 19.1983 7.2918, 18.8174 7.75516 Q 18.9633 8.17359, 19.4698 8.19745 ZM 18.2165 7.21524 Q 18.3633 6.83609, 17.7544 6.83772 Q 17.8534 7.34444, 18.2165 7.21524 Z"
id="path2" 
inkscape:connector-curvature="0" sodipodi:nodetypes="cccccccccc" />
<path 
 style="fill:#5a636d; fill-opacity:1,fill-rule:evenodd;stroke:#5a636d;stroke-width:0.1;stroke-linecap:butt;stroke-linejoin:miter;stroke-opacity:1"
d="M 0.666667 56.6667 Q 1.33333 56.3333, 1.66667 56.6667 Q 2.33333 56.3333, 2.66667 56.6667 Q 3.33333 56.3333, 3.66667 56.6667 Q 4.33333 56.3333, 4.66667 56.6667 Q 5.33333 56.3333, 5.66667 56.6667 Q 6.33333 56.3333, 6.66667 56.6667 Q 7.33333 56.3333, 7.66667 56.6667 Q 8.33333 56.3333, 8.66667 56.6667 Q 9.33333 56.3333, 9.66667 56.6667 Q 10.3333 56.3333, 10.6667 56.6667 Q 11.3333 56.3333, 11.6667 56.6667 Q 12.3333 56.3333, 12.6667 56.6667 Q 13.3333 56.6667, 14 56.6667 Q 14.6667 56.6667, 14.2539 56.2216 Q 13.3108 55.6898, 12.7991 54.7879 Q 12.7814 54.001, 12.6058 53.4162 Q 12.788 52.7932, 13.1932 52.7283 Q 13.7634 52.5153, 14.2366 52.5153 Q 14.8302 52.7362, 15.2547 52.5309 Q 15.7205 52.52, 16.2495 52.4982 Q 16.747 52.4712, 17.2545 52.2243 Q 17.7347 51.8254, 18.1645 51.3411 Q 18.7378 50.7563, 19.1868 50.2557 Q 19.209 49.7554, 18.8296 49.1605 Q 18.5698 48.786, 18.6125 48.214 Q 18.6134 47.629, 18.5085 47.2238 Q 18.4995 46.7509, 18.4974 46.2562 Q 18.4968 45.7548, 18.4966 45.2517 Q 18.4966 44.7483, 18.4968 44.2453 Q 18.498 43.7455, 18.5061 43.2749 Q 18.6053 42.9596, 18.5122 42.1862 Q 18.5074 41.6913, 18.5427 41.2092 Q 18.7192 40.7989, 18.4571 40.2559 Q 17.8211 39.9998, 18.1972 39.7421 Q 17.855 39.1593, 17.5497 38.7609 Q 17.5974 38.1751, 17.7804 37.7948 Q 18.1999 37.7454, 18.7404 37.4663 Q 18.536 36.7689, 18.802 36.2455 Q 18.8169 35.7428, 19.2496 35.2732 Q 19.6916 34.8116, 20.2471 34.2519 Q 20.7437 33.7537, 21.2452 33.2516 Q 21.7483 32.7484, 22.2511 32.2463 Q 22.7508 31.7483, 23.3139 31.1901 Q 23.7956 30.7382, 24.1724 30.4697 Q 24.7596 29.754, 25.3723 29.1707 Q 25.2188 28.7277, 24.7839 28.0117 Q 24.5735 27.2252, 24.7854 26.7472 Q 25.255 26.2472, 25.7494 25.7478 Q 26.2816 25.1978, 26.3861 24.8365 Q 25.5947 24.4179, 24.5349 23.7518 Q 23.3094 22.7662, 22.757 22.2548 Q 22.2474 21.7853, 21.8306 21.6614 Q 21.2453 22.2128, 20.5774 22.3879 Q 19.999 22.218, 19.281 21.7203 Q 18.753 20.9733, 18.2591 20.0122 Q 17.7846 19.0378, 17.5404 18.2784 Q 17.5854 17.8097, 17.7849 17.0132 Q 17.5141 16.7203, 17.4737 16.2515 Q 17.2252 15.7276, 16.7728 15.0005 Q 16.5008 14.2728, 16.2555 13.7638 Q 15.9821 13.2019, 15.2818 12.7186 Q 14.7843 12.0029, 14.5907 11.2843 Q 15.0173 10.789, 15.8157 10.611 Q 16.254 10.7805, 16.7172 11.16 Q 17.4505 11.2034, 17.6244 10.7781 Q 17.7795 10.5077, 17.5357 9.76716 Q 17.7514 9.2565, 17.2521 8.72257 Q 16.7848 8.00739, 16.6441 7.46369 Q 16.7934 6.84952, 17.1604 6.26506 Q 16.5539 6.20457, 16.5542 5.79574 Q 17.1694 5.73945, 16.9015 5.171 Q 16.5999 4.7822, 16.7867 3.99222 Q 17.2602 3.27899, 17.7638 2.8061 Q 18.7689 2.01672, 18.3333 2 Q 19 1.33333, 18.3333 1.33333 Q 17.6667 1.66667, 17.3333 1.33333 Q 16.6667 1.66667, 16.3333 1.33333 Q 15.6667 1.66667, 15.3333 1.33333 Q 14.6667 1.66667, 14.3333 1.33333 Q 13.6667 1.66667, 13.3333 1.33333 Q 12.6667 1.66667, 12.3333 1.33333 Q 11.6667 1.66667, 11.3333 1.33333 Q 10.6667 1.66667, 10.3333 1.33333 Q 9.66667 1.66667, 9.33333 1.33333 Q 8.66667 1.66667, 8.33333 1.33333 Q 7.66667 1.66667, 7.33333 1.33333 Q 6.66667 1.66667, 6.33333 1.33333 Q 5.66667 1.66667, 5.33333 1.33333 Q 4.66667 1.66667, 4.33333 1.33333 Q 3.66667 1.66667, 3.33333 1.33333 Q 2.66667 1.66667, 2.33333 1.33333 Q 1.66667 1.66667, 1.33333 1.33333 Q 0.666667 1.66667, 0.333333 2.33333 Q 0.666667 2.66667, 0.333333 3.33333 Q 0.666667 3.66667, 0.333333 4.33333 Q 0.666667 4.66667, 0.333333 5.33333 Q 0.666667 5.66667, 0.333333 6.33333 Q 0.666667 6.66667, 0.333333 7.33333 Q 0.666667 7.66667, 0.333333 8.33333 Q 0.666667 8.66667, 0.333333 9.33333 Q 0.666667 9.66667, 0.333333 10.3333 Q 0.666667 10.6667, 0.333333 11.3333 Q 0.666667 11.6667, 0.333333 12.3333 Q 0.333333 13, 0.333333 13.6667 Q 0.779275 13.244, 1.25925 12.3026 Q 1.82186 11.7187, 2.73472 11.0465 Q 3.74309 10.779, 4.21292 10.7982 Q 4.34464 11.2076, 4.2088 12.0056 Q 3.6203 12.792, 3.53497 13.2705 Q 3.68264 13.8776, 4.21846 14.9726 Q 4.43985 15.7852, 4.51337 16.2678 Q 4.67448 16.8626, 5.25068 18.0012 Q 5.75139 19.0017, 6.25062 20.0009 Q 6.74982 20.9997, 7.25148 22.0013 Q 7.75177 22.9771, 8.24762 23.7206 Q 8.74758 24.2449, 9.24964 24.749 Q 9.7496 25.2482, 10.2536 25.749 Q 10.7536 26.2202, 11.2803 26.4399 Q 12.1851 26.1689, 12.9777 25.7767 Q 13.7233 25.533, 14.2133 25.5349 Q 14.7505 25.4752, 15.2469 25.2247 Q 15.7469 24.7492, 16.2486 24.2521 Q 16.7949 23.7242, 17.2782 23.2547 Q 17.9931 22.785, 18.7733 22.5828 Q 19.1586 22.8015, 19.7595 23.2746 Q 20.2001 23.7556, 20.2001 24.242 Q 19.6692 24.8005, 19.2781 25.1959 Q 18.7473 25.7518, 18.2509 26.2514 Q 17.7489 26.7535, 17.2492 27.2517 Q 16.754 27.7421, 16.1723 28.2839 Q 15.841 28.7906, 15.5621 29.7193 Q 15.8097 30.2785, 16.2509 30.7464 Q 16.751 31.25, 17.2489 31.75 Q 17.749 32.2543, 18.2134 32.7543 Q 18.3346 33.1955, 18.2071 33.9739 Q 17.6538 34.2751, 17.4832 34.759 Q 17.2243 35.219, 16.7178 35.4367 Q 16.0173 35.2179, 15.5435 34.7559 Q 15.3334 34.186, 14.6533 34.4245 Q 14.0347 34.2181, 13.7775 33.8049 Q 13.1775 33.2824, 12.6539 33.4287 Q 12.0348 33.2186, 11.7697 32.7981 Q 11.2351 32.4906, 10.7707 32.2258 Q 10.3149 31.5194, 9.51398 31.1855 Q 9.00544 31.1992, 8.59148 30.7148 Q 8.78511 30.0151, 9.24932 29.5496 Q 9.77001 29.4373, 9.23667 28.7491 Q 8.74881 28.2491, 8.25056 27.7497 Q 7.75006 27.2497, 7.2501 26.75 Q 6.7499 26.25, 6.24994 25.7503 Q 5.74929 25.2504, 5.2486 24.7497 Q 4.74942 24.2497, 4.25085 23.7504 Q 3.7523 23.2505, 3.25136 22.7461 Q 2.72175 22.1896, 2.00864 21.2304 Q 1.28689 19.9553, 0.781069 18.2927 Q 0.333333 17, 0.333333 17.6667 Q 0.333333 18.3333, 0.333333 19 Q 0.333333 19.6667, 0.333333 20.3333 Q 0.666667 20.6667, 0.333333 21.3333 Q 0.666667 21.6667, 0.333333 22.3333 Q 0.666667 22.6667, 0.333333 23.3333 Q 0.666667 23.6667, 0.333333 24.3333 Q 0.666667 24.6667, 0.333333 25.3333 Q 0.666667 25.6667, 0.333333 26.3333 Q 0.666667 26.6667, 0.333333 27.3333 Q 0.666667 27.6667, 0.333333 28.3333 Q 0.666667 28.6667, 0.333333 29.3333 Q 0.666667 29.6667, 0.333333 30.3333 Q 0.666667 30.6667, 0.333333 31.3333 Q 0.666667 31.6667, 0.333333 32.3333 Q 0.666667 32.6667, 0.333333 33.3333 Q 0.666667 33.6667, 0.333333 34.3333 Q 0.666667 34.6667, 0.333333 35.3333 Q 0.666667 35.6667, 0.333333 36.3333 Q 0.666667 36.6667, 0.333333 37.3333 Q 0.666667 37.6667, 0.333333 38.3333 Q 0.666667 38.6667, 0.333333 39.3333 Q 0.666667 39.6667, 0.333333 40.3333 Q 0.666667 40.6667, 0.333333 41.3333 Q 0.666667 41.6667, 0.333333 42.3333 Q 0.666667 42.6667, 0.333333 43.3333 Q 0.666667 43.6667, 0.333333 44.3333 Q 0.666667 44.6667, 0.333333 45.3333 Q 0.666667 45.6667, 0.333333 46.3333 Q 0.666667 46.6667, 0.333333 47.3333 Q 0.666667 47.6667, 0.333333 48.3333 Q 0.666667 48.6667, 0.333333 49.3333 Q 0.666667 49.6667, 0.333333 50.3333 Q 0.666667 50.6667, 0.333333 51.3333 Q 0.666667 51.6667, 0.333333 52.3333 Q 0.666667 52.6667, 0.333333 53.3333 Q 0.666667 53.6667, 0.333333 54.3333 Q 0.666667 54.6667, 0.333333 55.3333 Q 0.666667 55.6667, 0.333333 56.3333 ZM 17.6667 56.6667 Q 18.3333 56.3333, 18.6667 56.6667 Q 19.3333 56.3333, 19.6667 56.6667 Q 20.3333 56.3333, 20.6667 56.6667 Q 21.3333 56.3333, 21.6667 56.6667 Q 22.3333 56.3333, 22.6667 56.6667 Q 23.3333 56.3333, 23.6667 56.6667 Q 24.3333 56.3333, 24.6667 56.6667 Q 25.3333 56.3333, 25.6667 56.6667 Q 26.3333 56.3333, 26.6667 56.6667 Q 27.3333 56.3333, 27.6667 56.6667 Q 28.3333 56.3333, 28.6667 56.6667 Q 29.3333 56.3333, 29.6667 56.6667 Q 30.3333 56.3333, 30.6667 56.6667 Q 31.3333 56.3333, 31.6667 56.6667 Q 32.3333 56.3333, 32.6667 56.6667 Q 33.3333 56.3333, 33.6667 56.6667 Q 34.3333 56.3333, 34.6667 56.6667 Q 35.3333 56.3333, 35.6667 56.6667 Q 36.3333 56.3333, 36.6667 56.6667 Q 37.3333 56.3333, 37.6667 56.6667 Q 38.3333 56.3333, 38.6667 56.6667 Q 39.3333 56.3333, 39.6667 56.6667 Q 40.3333 56.3333, 40.6667 56.6667 Q 41.3333 56.3333, 41.6667 56.6667 Q 42.3333 56.3333, 42.6667 55.6667 Q 42.2175 55.1961, 41.6253 55.141 Q 41.2275 55.4753, 40.7565 55.4913 Q 40.1753 55.4076, 39.7559 55.2335 Q 39.1567 54.7915, 39.1969 55.437 Q 38.8032 55.4369, 38.8442 54.7898 Q 38.2462 55.2079, 37.7536 55.2075 Q 37.1558 54.7895, 37.197 55.4188 Q 36.5814 55.1393, 36.0029 55.1967 Q 35.5913 54.715, 35.785 54.0149 Q 36.2857 53.5142, 37.0871 53.0902 Q 38.1549 52.2829, 38.4881 51.7327 Q 38.6965 51.123, 38.5117 50.7267 Q 38.4988 50.25, 38.4986 49.7499 Q 38.5098 49.2697, 38.6625 48.8357 Q 38.5009 48.3638, 38.2323 47.7545 Q 37.7588 47.1492, 37.4287 46.818 Q 36.7506 46.2424, 36.2507 45.7503 Q 35.749 45.2504, 35.2471 44.7491 Q 34.7498 44.2502, 34.1727 43.6633 Q 33.7885 43.1819, 33.6717 42.8255 Q 33.4705 42.2463, 32.7721 42.203 Q 32.27 41.4677, 31.791 40.7599 Q 31.6245 39.78, 31.6033 39.44 Q 31.2433 38.7575, 30.8153 38.1563 Q 30.2715 37.7521, 29.7558 37.2521 Q 29.2515 36.7462, 28.7228 36.1918 Q 27.9911 35.2139, 27.2683 34.0683 Q 26.7527 33.5474, 26.2052 33.3962 Q 25.8202 33.5906, 25.217 34.172 Q 24.7343 34.7575, 24.25 35.2497 Q 23.7518 35.7496, 23.251 36.2504 Q 22.7565 36.7375, 22.1719 37.226 Q 21.7602 37.7183, 21.1599 38.1979 Q 20.5924 38.3939, 20.0898 38.2592 Q 19.7517 38.5046, 19.7535 39.4941 Q 20.0919 39.7254, 20.7833 39.5524 Q 21.1697 39.6163, 21.7632 39.5631 Q 22.2134 40.0133, 22.417 40.8102 Q 22.4729 41.2036, 22.4929 41.7607 Q 22.476 42.2397, 22.4987 42.7545 Q 22.5009 43.2486, 22.5009 43.7486 Q 22.5016 44.2478, 22.5022 44.7489 Q 22.5016 45.2506, 22.501 45.7505 Q 22.5016 46.2511, 22.5019 46.7527 Q 22.4991 47.2464, 22.4761 47.7564 Q 22.4936 48.2401, 22.4808 48.7953 Q 22.4818 49.2012, 22.4967 49.7516 Q 22.4758 50.2275, 22.1509 50.6142 Q 22.5404 51.4088, 23.2142 52.2598 Q 23.4156 53.1298, 23.0865 53.2626 Q 22.2214 53.2117, 22.7337 53.7829 Q 23.1668 54.2186, 22.7429 54.4615 Q 22.1805 54.4617, 21.2752 54.221 Q 21.2042 54.4846, 20.7482 54.4988 Q 20.2493 54.4829, 19.5093 54.2349 Q 19.1307 54.6725, 18.9267 55.2423 Q 18.0244 55.7422, 17.2667 56.2004 ZM 42.6667 51 Q 42.6667 50.3333, 42.6667 49.6667 Q 42.6667 49, 42.6667 48.3333 Q 42.6667 47.6667, 42.3333 47.3333 Q 42.6667 46.6667, 42.3333 46.3333 Q 42.6667 45.6667, 42.3333 45.3333 Q 42.6667 44.6667, 42.3333 44.3333 Q 42.6667 43.6667, 42.3333 43.3333 Q 42.6667 42.6667, 42.3333 42.3333 Q 42.6667 41.6667, 42.3333 41.3333 Q 42.6667 40.6667, 42.3333 40.3333 Q 42.6667 39.6667, 42.3333 39.3333 Q 42.6667 38.6667, 42.3333 38.3333 Q 42.6667 37.6667, 42.3333 37.3333 Q 42.6667 36.6667, 42.3333 36.3333 Q 42.6667 35.6667, 42.3333 35.3333 Q 42.6667 34.6667, 42.3333 34.3333 Q 42.6667 33.6667, 42.3333 33.3333 Q 42.6667 32.6667, 42.3333 32.3333 Q 42.6667 31.6667, 42.3333 31.3333 Q 42.6667 30.6667, 42.3333 30.3333 Q 42.6667 29.6667, 42.3333 29.3333 Q 42.6667 28.6667, 42.3333 28.3333 Q 42.6667 27.6667, 42.3333 27.3333 Q 42.6667 26.6667, 42.3333 26.3333 Q 42.6667 25.6667, 42.3333 25.3333 Q 42.6667 24.6667, 42.3333 24.3333 Q 42.6667 23.6667, 42.3333 23.3333 Q 42.6667 22.6667, 42.3333 22.3333 Q 42.6667 21.6667, 42.3333 21.3333 Q 42.6667 20.6667, 42.3333 20.3333 Q 42.6667 19.6667, 42.3333 19.3333 Q 42.6667 18.6667, 42.3333 18.3333 Q 42.6667 17.6667, 42.3333 17.3333 Q 42.6667 16.6667, 42.3333 16.3333 Q 42.6667 15.6667, 42.3333 15.3333 Q 42.6667 14.6667, 42.3333 14.3333 Q 42.6667 13.6667, 42.3333 13.3333 Q 42.6667 12.6667, 42.3333 12.3333 Q 42.6667 11.6667, 42.3333 11.3333 Q 42.6667 10.6667, 42.3333 10.3333 Q 42.6667 9.66667, 42.3333 9.33333 Q 42.6667 8.66667, 42.3333 8.33333 Q 42.6667 7.66667, 42.3333 7.33333 Q 42.6667 6.66667, 42.3333 6.33333 Q 42.6667 5.66667, 42.3333 5.33333 Q 42.6667 4.66667, 42.3333 4.33333 Q 42.6667 3.66667, 42.3333 3.33333 Q 42.6667 2.66667, 42.3333 2.33333 Q 42.6667 1.66667, 42.3333 1.33333 Q 41.6667 1.66667, 41.3333 1.33333 Q 40.6667 1.66667, 40.3333 1.33333 Q 39.6667 1.66667, 39.3333 1.33333 Q 38.6667 1.66667, 38.3333 1.33333 Q 37.6667 1.66667, 37.3333 1.33333 Q 36.6667 1.66667, 36.3333 1.33333 Q 35.6667 1.66667, 35.3333 1.33333 Q 34.6667 1.66667, 34.3333 1.33333 Q 33.6667 1.66667, 33.3333 1.33333 Q 32.6667 1.66667, 32.3333 1.33333 Q 31.6667 1.66667, 31.3333 1.33333 Q 30.6667 1.66667, 30.3333 1.33333 Q 29.6667 1.66667, 29.3333 1.33333 Q 28.6667 1.66667, 28.3333 1.33333 Q 27.6667 1.66667, 27.3333 1.33333 Q 26.6667 1.66667, 26.3333 1.33333 Q 25.6667 1.66667, 25.3333 1.33333 Q 24.6667 1.66667, 24.3333 1.33333 Q 23.6667 1.66667, 23.3333 1.33333 Q 22.6667 1.33333, 22 1.33333 Q 21.3333 1.33333, 22.6667 2 Q 22.2824 2.03297, 23.8667 2.71639 Q 24.7175 3.25738, 25.2796 3.81658 Q 25.9783 4.75782, 26.4436 5.69866 Q 26.4921 6.24714, 26.4732 6.7471 Q 26.2393 7.26083, 25.7294 8.48936 Q 24.8185 9.64442, 24.2558 10.2204 Q 23.4784 10.7521, 23.2306 11.2558 Q 23.4653 11.7677, 23.2585 12.4603 Q 23.757 12.4942, 24.2512 12.4992 Q 24.8281 12.5091, 25.2477 12.6125 Q 25.7361 12.5189, 26.2756 12.5305 Q 27.0422 12.7756, 28.1495 13.2213 Q 30.1953 13.991, 31.8082 14.7132 Q 32.1687 15.2153, 31.671 15.4477 Q 31.2555 15.4323, 30.627 15.3925 Q 30.2261 15.4916, 29.7359 15.4846 Q 30.1969 16.2389, 30.0238 16.7852 Q 30.817 16.5856, 31.2789 16.5408 Q 31.9984 16.7788, 32.6011 17.1941 Q 33.2765 17.5067, 33.9597 17.7765 Q 34.246 18.2335, 34.7677 18.4829 Q 35.2414 18.5091, 35.7358 18.6226 Q 36.2458 18.7846, 36.7458 19.2514 Q 37.2534 19.7582, 37.7534 20.2835 Q 38.2566 21.0466, 38.8179 22.1732 Q 39.7383 24.2573, 40.418 26.0769 Q 40.4878 26.7165, 40.4836 27.2306 Q 40.3092 27.8057, 40.4765 28.2532 Q 40.4956 28.7556, 40.4986 29.253 Q 40.5 29.7502, 40.4956 30.2542 Q 40.4443 30.8568, 39.9774 32.2665 Q 39.2786 33.9133, 38.7707 34.9784 Q 38.4951 35.7293, 38.2113 36.2565 Q 37.6441 36.8184, 36.4826 37.7365 Q 35.3254 38.4178, 34.7526 38.4922 Q 34.7358 39.5035, 35.2009 39.776 Q 35.2084 40.1981, 35.7896 40.7986 Q 36.2447 40.7997, 36.7446 41.2501 Q 37.2513 41.75, 37.7594 42.254 Q 38.3477 42.8138, 39.5282 43.7484 Q 40.6887 44.4886, 41.218 45.0179 Q 41.4371 45.718, 41.2192 46.2247 Q 40.7392 46.4913, 40.796 47.2458 Q 41.2432 47.7457, 41.7432 48.3332 Q 42.219 49.7093, 42.6667 51 ZM 26.3928 23.154 Q 26.3462 22.853, 25.8428 22.7311 Q 25.8032 23.1972, 26.3928 23.154 ZM 24.2006 21.4813 Q 24.7511 21.5002, 25.1823 21.5005 Q 25.728 21.4894, 26.2137 21.3496 Q 25.8508 20.595, 25.2348 20.5113 Q 24.7127 20.5334, 23.9347 20.8216 Q 23.7531 21.1782, 24.2006 21.4813 ZM 21.3845 20.1508 Q 21.2193 19.7805, 20.8503 19.6141 Q 20.803 20.197, 21.3845 20.1508 ZM 24.1818 19.464 Q 24.7328 19.4896, 25.2565 19.4055 Q 24.8507 18.595, 24.2343 18.5116 Q 23.7104 18.5355, 22.964 18.8229 Q 23.14 19.1765, 24.1818 19.464 ZM 27.1545 19.3014 Q 27.1966 18.7733, 26.844 18.5315 Q 26.8159 19.4715, 27.1545 19.3014 ZM 23.1749 17.4645 Q 23.7227 17.4884, 24.2557 17.4049 Q 23.8507 16.595, 23.2343 16.5116 Q 22.7104 16.5355, 21.9642 16.8228 Q 22.1412 17.1771, 23.1749 17.4645 ZM 26.1545 17.3014 Q 26.1966 16.7733, 25.844 16.5315 Q 25.8159 17.4715, 26.1545 17.3014 ZM 22.7072 15.4661 Q 23.2546 15.4044, 22.8533 14.5919 Q 22.2488 14.451, 21.8001 14 Q 21.7972 13.5487, 22.2559 13.4028 Q 21.8662 12.6958, 21.2435 12.5089 Q 20.7251 12.4519, 20.1998 12.465 Q 19.6021 12.4207, 19.1595 12.32 Q 18.7426 12.4974, 19.9989 13.232 Q 20.732 13.5318, 21.1984 13.9983 Q 21.1906 14.4445, 20.7854 14.5105 Q 20.7271 14.7492, 21.8428 15.1817 Z"
id="path3" 
inkscape:connector-curvature="0" sodipodi:nodetypes="cccccccccc" />
<path 
 style="fill:#636363; fill-opacity:1,fill-rule:evenodd;stroke:#636363;stroke-width:0.1;stroke-linecap:butt;stroke-linejoin:miter;stroke-opacity:1"
d="M 15.1831 56.4682 Q 15.7341 56.4938, 16.2267 56.4795 Q 16.8068 56.2025, 16.8804 55.7131 Q 17.9829 54.8582, 16.9059 55.2645 Q 16.2823 55.4711, 15.7606 55.4929 Q 15.1968 55.4679, 14.5864 55.4121 Q 14.0019 55.2208, 13.2811 54.7189 Q 12.7814 54.001, 12.7991 54.7879 Q 13.3108 55.6898, 14.2539 56.2216 ZM 20.2493 54.4829 Q 20.7482 54.4988, 21.2042 54.4846 Q 21.2752 54.221, 20.8332 53.7814 Q 21.2571 53.5386, 21.8202 53.5387 Q 22.7337 53.7829, 22.2214 53.2117 Q 21.2903 52.8001, 20.7517 52.7967 Q 20.1544 53.246, 19.7727 53.7408 Q 19.5093 54.2349, 20.2493 54.4829 ZM 41.6317 54.2345 Q 42.2183 54.0515, 42.481 53.7096 Q 42.4974 53.2418, 42.5003 52.7507 Q 42.5002 52.2509, 42.496 51.7385 Q 42.4654 51.1151, 42.219 49.7093 Q 41.7432 48.3332, 41.2432 47.7457 Q 40.796 47.2458, 40.7392 46.4913 Q 40.2315 46.6068, 39.441 47.3968 Q 39.8471 47.6219, 40.1939 47.7534 Q 40.7549 48.2638, 41.2105 48.7541 Q 41.3016 49.1829, 41.4882 49.7617 Q 41.5013 50.2513, 41.5017 50.7522 Q 41.4938 51.2308, 41.3936 51.641 Q 41.4804 52.2173, 41.4455 52.8085 Q 41.4266 53.3796, 41.4335 53.7313 ZM 33.4705 42.2463 Q 33.2202 41.8399, 32.27 41.4677 Q 32.7721 42.203, 33.4705 42.2463 ZM 35.6044 41.4441 Q 35.7896 40.7986, 35.2084 40.1981 Q 34.482 40.3223, 34.5227 40.6786 Q 35.212 41.3569, 35.6044 41.4441 ZM 18.4571,40.2559 18.1972,39.7421 17.8211,39.9998 18.4571,40.2559 z M 19.7535 39.4941 Q 19.7517 38.5046, 19.2817 38.8115 Q 19.2818 39.169, 19.7535 39.4941 ZM 34.7358 39.5035 Q 34.7526 38.4922, 34.2511 38.4982 Q 33.7494 38.4987, 33.2051 38.4968 Q 34.0202 39.2257, 34.7358 39.5035 ZM 19.4717 37.21 Q 19.2884 36.7955, 18.802 36.2455 Q 18.536 36.7689, 18.7404 37.4663 ZM 20.2599 18.1743 Q 20.2061 17.7811, 19.851 17.6163 Q 19.8684 18.3454, 20.2599 18.1743 ZM 29.1756 18.4554 Q 29.4914 17.7613, 29.7251 17.1797 Q 30.0238 16.7852, 30.1969 16.2389 Q 29.7359 15.4846, 28.7174 15.1751 Q 29.196 15.7483, 29.1993 16.2206 Q 28.7431 16.4637, 28.1814 16.4622 Q 27.0254 16.1572, 27.9586 16.7566 Q 28.274 17.1842, 28.5073 17.7616 Q 28.8015 18.4327, 29.1756 18.4554 ZM 17.7849 17.0132 Q 18.2673 16.5324, 19.1964 16.1618 Q 19.2137 15.8132, 18.0388 15.2389 Q 17.5657 14.7658, 17.6718 14.1731 Q 17.7876 13.7999, 18.2914 13.7999 Q 19.4554 14.3125, 20.7271 14.7492 Q 20.7854 14.5105, 21.1906 14.4445 Q 21.1984 13.9983, 20.732 13.5318 Q 19.9989 13.232, 18.7426 12.4974 Q 18.251 12.5052, 17.718 12.5362 Q 16.8307 12.867, 16.483 13.2003 Q 15.9821 13.2019, 16.2555 13.7638 Q 16.5008 14.2728, 16.7728 15.0005 Q 17.2252 15.7276, 17.4737 16.2515 Q 17.5141 16.7203, 17.7849 17.0132 ZM 25.1543 15.3017 Q 25.1966 14.7729, 24.8463 14.5285 Q 24.816 15.4715, 25.1543 15.3017 ZM 23.2585 12.4603 Q 23.4653 11.7677, 23.2306 11.2558 Q 22.7999 11.7538, 22.7999 12.2204 ZM 18.1379 10.2918 Q 18.1379 9.68862, 17.7514 9.2565 Q 17.5357 9.76716, 17.7795 10.5077 ZM 20.4526 10.2819 Q 20.1559 9.65168, 19.8676 9.65362 Q 20.1441 10.2797, 20.4526 10.2819 ZM 22.465 10.1955 Q 22.7695 9.79986, 23.2216 9.79986 Q 23.4672 10.2544, 23.4784 10.7521 Q 24.2558 10.2204, 24.8185 9.64442 Q 25.7294 8.48936, 26.2393 7.26083 Q 25.7493 7.74958, 25.2482 8.25056 Q 24.744 8.75052, 24.245 9.20014 Q 23.7871 9.20014, 23.5877 8.581 Q 23.1702 8.48923, 22.6717 8.81768 Q 22.2916 9.18894, 21.8167 9.74606 Q 21.8664 10.1483, 22.465 10.1955 ZM 17.1604 6.26506 Q 17.1694 5.73945, 16.5542 5.79574 Q 16.5539 6.20457, 17.1604 6.26506 Z"
id="path4" 
inkscape:connector-curvature="0" sodipodi:nodetypes="cccccccccc" />
<path 
 style="fill:#6b4a21; fill-opacity:1,fill-rule:evenodd;stroke:#6b4a21;stroke-width:0.1;stroke-linecap:butt;stroke-linejoin:miter;stroke-opacity:1"
d="M 32.2387 38.4662 Q 32.8007 38.3607, 32.2459 37.7491 Q 31.7459 37.2409, 31.1837 36.6486 Q 30.2696 35.4886, 29.6195 34.3318 Q 29.7877 33.8, 30.2479 33.7959 Q 30.8277 34.2279, 30.1915 32.866 Q 29.8244 32.1546, 28.971 31.179 Q 28.263 30.0962, 27.5257 30.7666 Q 27.4816 31.2245, 27.5003 31.7505 Q 27.5048 32.2439, 27.5289 32.7464 Q 27.7753 33.2697, 28.2737 34.0433 Q 28.9963 35.219, 29.7226 36.1919 Q 30.2506 36.7466, 30.7505 37.2506 Q 31.243 37.7506, 31.6358 38.2065 ZM 16.7178 35.4367 Q 17.2243 35.219, 17.4832 34.759 Q 17.6538 34.2751, 17.2376 33.7751 Q 16.7553 33.5198, 16.1526 33.3762 Q 15.7521 33.7533, 15.3334 34.186 Q 15.5435 34.7559, 16.0173 35.2179 ZM 10.3149 31.5194 Q 10.6468 31.1609, 10.7843 30.778 Q 11.2543 30.5324, 11.7202 30.5144 Q 12.2238 30.4747, 12.4973 30.2258 Q 12.7715 29.7554, 13.3676 29.1762 Q 13.4392 28.7991, 12.734 28.7997 Q 11.9648 29.2692, 10.2856 30.2703 Q 9.78951 30.7415, 9.51398 31.1855 ZM 10.1735 29.2418 Q 10.4425 28.2784, 10.2343 27.7567 Q 9.81744 27.161, 9.26785 26.7474 Q 8.74944 26.2463, 8.24948 25.749 Q 7.75031 25.2506, 7.25035 24.7514 Q 6.74967 24.2507, 6.24971 23.7498 Q 5.75257 23.2498, 5.20056 22.6702 Q 4.74966 22.2457, 4.2497 21.7495 Q 3.75474 21.2501, 3.32871 20.7765 Q 2.77966 19.9981, 2.52944 19.2166 Q 2.30718 18.7779, 1.78179 18.0023 Q 1.55248 17.2181, 1.50472 16.7499 Q 1.50004 16.2502, 1.50144 15.7516 Q 1.50531 15.2513, 1.53133 14.8054 Q 1.51094 14.2993, 0.505809 14.78 Q 0.503596 15.2517, 0.50361 15.7555 Q 0.506153 16.2666, 0.535368 16.8872 Q 0.781069 18.2927, 1.28689 19.9553 Q 2.00864 21.2304, 2.72175 22.1896 Q 3.25136 22.7461, 3.7523 23.2505 Q 4.25085 23.7504, 4.74942 24.2497 Q 5.2486 24.7497, 5.74929 25.2504 Q 6.24994 25.7503, 6.7499 26.25 Q 7.2501 26.75, 7.75006 27.2497 Q 8.25056 27.7497, 8.74881 28.2491 Q 9.23667 28.7491, 9.77001 29.4373 ZM 39.6985 27.844 Q 40.3092 27.8057, 40.4836 27.2306 Q 40.4878 26.7165, 40.418 26.0769 Q 39.7383 24.2573, 38.8179 22.1732 Q 38.2566 21.0466, 37.7534 20.2835 Q 37.2534 19.7582, 36.7458 19.2514 Q 36.2458 18.7846, 35.7358 18.6226 Q 35.5232 19.2548, 35.531 19.7548 Q 35.7808 20.2523, 36.2267 20.7337 Q 36.5349 21.1933, 37.2065 21.7312 Q 37.7441 22.2782, 38.1799 22.9332 Q 38.7556 24.0198, 39.2236 24.9765 Q 39.469 25.7236, 39.4854 26.26 Q 39.4134 26.7749, 39.5064 27.2486 Z"
id="path5" 
inkscape:connector-curvature="0" sodipodi:nodetypes="cccccccccc" />
<path 
 style="fill:#7b7b7b; fill-opacity:1,fill-rule:evenodd;stroke:#7b7b7b;stroke-width:0.1;stroke-linecap:butt;stroke-linejoin:miter;stroke-opacity:1"
d="M 15.2003 54.2001 Q 15.2087 53.7542, 14.8077 53.1714 Q 14.8302 52.7362, 14.2366 52.5153 Q 13.7634 52.5153, 13.1932 52.7283 Q 13.7469 53.2498, 14.2555 53.7498 Q 14.7554 54.2001, 15.2003 54.2001 ZM 23.0865 53.2626 Q 22.3924 52.8086, 21.857 52.2501 Q 21.2483 51.8003, 20.5806 51.8545 Q 20.4048 52.181, 20.1544 53.246 Q 20.7517 52.7967, 21.2903 52.8001 Q 22.2214 53.2117, 23.0865 53.2626 ZM 41.4938 51.2308 Q 41.5017 50.7522, 41.5013 50.2513 Q 41.4882 49.7617, 41.3016 49.1829 Q 40.7833 49.7524, 40.6323 50.193 Q 41.3936 51.641, 41.4938 51.2308 ZM 38.6965 51.123 Q 39.1478 50.3815, 39.1962 49.7335 Q 38.6625 48.8357, 38.5098 49.2697 Q 38.4986 49.7499, 38.4988 50.25 Q 38.5117 50.7267, 38.6965 51.123 ZM 18.6134 47.629 Q 19.4763 46.217, 19.4933 45.747 Q 19.4838 45.2736, 18.6053 42.9596 Q 18.5061 43.2749, 18.498 43.7455 Q 18.4968 44.2453, 18.4966 44.7483 Q 18.4966 45.2517, 18.4968 45.7548 Q 18.4974 46.2562, 18.4995 46.7509 Q 18.5085 47.2238, 18.6134 47.629 ZM 39.441 47.3968 Q 40.2315 46.6068, 38.9299 46.8278 Q 38.5525 47.1389, 39.441 47.3968 ZM 32.27 41.4677 Q 33.2202 41.8399, 32.858 41.1598 Q 32.5556 40.6647, 32.5056 40.3157 Q 31.6245 39.78, 31.791 40.7599 ZM 18.7192 40.7989 Q 19.2786 40.2546, 20.0919 39.7254 Q 19.7535 39.4941, 19.2818 39.169 Q 18.7969 39.4011, 17.855 39.1593 Q 18.1972 39.7421, 18.4571 40.2559 ZM 35.2084 40.1981 Q 35.2009 39.776, 34.7358 39.5035 Q 34.0202 39.2257, 33.2051 38.4968 Q 32.8007 38.3607, 32.2387 38.4662 Q 31.6358 38.2065, 30.8153 38.1563 Q 31.2433 38.7575, 31.6033 39.44 Q 32.2383 39.5086, 32.8268 39.7033 Q 33.2123 39.5742, 33.9824 39.7853 Q 34.482 40.3223, 35.2084 40.1981 ZM 19.2817 38.8115 Q 19.7517 38.5046, 20.0898 38.2592 Q 19.556 37.7475, 19.4717 37.21 Q 18.7404 37.4663, 18.1999 37.7454 Q 18.6632 38.1939, 19.2817 38.8115 ZM 22.7565 36.7375 Q 23.251 36.2504, 23.7518 35.7496 Q 24.25 35.2497, 24.7343 34.7575 Q 25.217 34.172, 23.7735 34.83 Q 23.2627 35.2626, 22.8315 35.7706 Q 22.1719 37.226, 22.7565 36.7375 ZM 13.7775 33.8049 Q 14.1962 33.2521, 14.1536 32.708 Q 13.8312 32.6415, 13.1775 33.2824 ZM 11.2351 32.4906 Q 11.7697 32.7981, 12.2082 32.252 Q 12.2771 31.8284, 11.7502 31.5284 Q 11.2503 31.4745, 10.6468 31.1609 Q 10.3149 31.5194, 10.7707 32.2258 ZM 26.4138 31.1849 Q 26.2232 30.6594, 25.8439 30.3633 Q 25.8021 30.976, 26.4138 31.1849 ZM 27.1968 20.9808 Q 27.1456 20.4968, 26.6879 20.5083 Q 26.1584 20.629, 26.4719 21.2966 ZM 26.1769 19.4883 Q 26.8159 19.4715, 26.844 18.5315 Q 26.1773 18.4601, 25.6875 18.5051 Q 25.1591 18.6289, 25.5305 19.3711 ZM 28.8015 18.4327 Q 28.5073 17.7616, 28.274 17.1842 Q 27.8229 17.7546, 28.0368 18.2139 ZM 29.8199 18.5869 Q 30.1922 18.316, 30.3024 17.8178 Q 29.7251 17.1797, 29.4914 17.7613 Q 29.1756 18.4554, 29.8199 18.5869 ZM 25.1768 17.4883 Q 25.8159 17.4715, 25.844 16.5315 Q 25.1773 16.4601, 24.6875 16.5051 Q 24.1591 16.6289, 24.5302 17.3709 ZM 24.1769 15.4883 Q 24.816 15.4715, 24.8463 14.5285 Q 24.151 14.4025, 23.7571 14.4964 Q 23.1593 14.6285, 23.5304 15.371 ZM 26.5295 14.3554 Q 26.2289 13.547, 25.8411 13.5603 Q 26.0433 14.2139, 26.5295 14.3554 ZM 24.245 9.20014 Q 24.744 8.75052, 25.2482 8.25056 Q 25.7493 7.74958, 26.2393 7.26083 Q 26.4732 6.7471, 26.4921 6.24714 Q 26.4436 5.69866, 25.9783 4.75782 Q 25.2796 3.81658, 24.7175 3.25738 Q 23.8667 2.71639, 22.2824 2.03297 Q 20.8199 1.62648, 21.9796 2.24183 Q 23.0458 2.83901, 23.7154 3.26619 Q 24.1719 3.79011, 24.9868 4.7766 Q 25.4353 5.69697, 25.4352 6.30308 Q 24.979 7.23886, 24.2821 8.15696 Q 23.5877 8.581, 23.7871 9.20014 ZM 19.7608 7.83763 Q 20.7901 7.55526, 21.1485 7.57319 Q 21.5222 7.33779, 21.597 6.85113 Q 21.2421 6.20546, 20.7496 6.7449 Q 20.2627 7.24343, 19.7608 7.83763 ZM 16.7934 6.84952 Q 17.7544 6.83772, 18.3633 6.83609 Q 18.2096 5.99317, 17.8321 5.46635 Q 16.9015 5.171, 17.1694 5.73945 Q 17.1604 6.26506, 16.7934 6.84952 Z"
id="path6" 
inkscape:connector-curvature="0" sodipodi:nodetypes="cccccccccc" />
<path 
 style="fill:#8c633a; fill-opacity:1,fill-rule:evenodd;stroke:#8c633a;stroke-width:0.1;stroke-linecap:butt;stroke-linejoin:miter;stroke-opacity:1"
d="M 34.8146 36.4649 Q 35.7558 36.2205, 36.6969 35.7383 Q 37.3031 35.1322, 38.2372 33.7426 Q 39.1521 32.1309, 39.4633 31.2821 Q 39.4935 30.7481, 39.497 30.2459 Q 39.4989 29.7477, 39.5012 29.2525 Q 39.5046 28.7558, 39.5261 28.2534 Q 39.6985 27.844, 39.5064 27.2486 Q 39.4134 26.7749, 38.7499 28.5654 Q 38.25 30.4378, 37.6887 31.999 Q 36.7483 33.4719, 35.8135 34.6528 Q 35.2539 35.2419, 34.7617 35.7498 Q 34.2121 36.4791, 34.8146 36.4649 ZM 29.8244 32.1546 Q 29.5272 31.2791, 29.5016 30.7529 Q 29.4993 30.2483, 29.498 29.7445 Q 29.4935 29.2255, 29.4615 28.6789 Q 28.7332 26.6, 28.2333 26.5999 Q 27.5423 28.6602, 27.5068 29.2241 Q 27.5021 29.7442, 27.5027 30.2426 Q 27.5257 30.7666, 28.263 30.0962 Q 28.971 31.179, 29.8244 32.1546 ZM 36.4408 31.2001 Q 36.4408 30.7999, 36.0333 30.7999 Q 36.0333 31.2001, 36.4408 31.2001 ZM 35.459 29.1956 Q 35.707 28.7893, 35.1877 28.2931 Q 34.8065 28.7533, 34.8546 29.1474 ZM 33.6164 28.3874 Q 33.7868 27.7618, 34.4082 27.2098 Q 34.2191 26.7782, 33.8071 26.572 Q 33.2413 27.243, 32.6214 27.7896 Q 33.0189 28.2155, 33.6164 28.3874 ZM 36.4402 27.2154 Q 36.2219 26.7775, 35.6584 26.4937 Q 35.5203 26.7321, 36.4402 27.2154 ZM 32.8039 20.7124 Q 33.2586 20.5316, 33.7346 20.5575 Q 34.2754 20.5513, 34.774 20.5099 Q 35.3152 20.5595, 36.5349 21.1933 Q 36.2267 20.7337, 35.7808 20.2523 Q 35.531 19.7548, 35.5232 19.2548 Q 35.7358 18.6226, 35.2414 18.5091 Q 34.7677 18.4829, 34.246 18.2335 Q 33.818 18.5122, 33.242 19.2769 Q 32.8001 19.9768, 32.8039 20.7124 ZM 0.505809 14.78 Q 1.51094 14.2993, 1.5857 13.7854 Q 2.02488 12.761, 2.80307 11.7678 Q 3.253 11.258, 3.74309 10.779 Q 2.73472 11.0465, 1.82186 11.7187 Q 1.25925 12.3026, 0.779275 13.244 Q 0.533562 14.1871, 0.505809 14.78 Z"
id="path7" 
inkscape:connector-curvature="0" sodipodi:nodetypes="cccccccccc" />
<path 
 style="fill:#949494; fill-opacity:1,fill-rule:evenodd;stroke:#949494;stroke-width:0.1;stroke-linecap:butt;stroke-linejoin:miter;stroke-opacity:1"
d="M 17.9829 54.8582 Q 18.7074 54.5664, 19.1307 54.6725 Q 19.5093 54.2349, 19.7727 53.7408 Q 20.1544 53.246, 20.4048 52.181 Q 19.7495 52.7556, 19.2471 53.2512 Q 18.7396 53.7565, 18.1973 54.2777 Q 16.9059 55.2645, 17.9829 54.8582 ZM 38.2001 54.2001 Q 38.2001 53.7999, 37.7999 53.7999 Q 37.7999 54.2001, 38.2001 54.2001 ZM 40.2001 54.2001 Q 40.2001 53.7999, 39.7999 53.7999 Q 39.7999 54.2001, 40.2001 54.2001 ZM 41.4455 52.8085 Q 41.4804 52.2173, 41.3936 51.641 Q 40.6323 50.193, 40.5447 50.8257 Q 40.781 51.745, 41.4455 52.8085 ZM 21.857 52.2501 Q 22.0197 51.6115, 22.162 51.2965 Q 21.8663 50.7061, 21.4375 50.2347 Q 20.464 49.6643, 19.7579 49.491 Q 18.8296 49.1605, 19.209 49.7554 Q 19.1868 50.2557, 18.7378 50.7563 Q 18.1645 51.3411, 19.8072 50.741 Q 20.2063 50.7944, 20.2673 51.1937 Q 20.5806 51.8545, 21.2483 51.8003 ZM 39.5286 48.6622 Q 39.5652 48.3709, 39.8471 47.6219 Q 39.441 47.3968, 38.5525 47.1389 Q 37.7588 47.1492, 38.2323 47.7545 Q 38.5009 48.3638, 39.5286 48.6622 ZM 18.6125 48.214 Q 19.4128 46.7573, 19.4763 46.217 Q 18.6134 47.629, 18.6125 48.214 ZM 37.4287 46.818 Q 37.1587 45.8258, 36.745 45.2693 Q 36.3025 44.8285, 34.1727 43.6633 Q 34.7498 44.2502, 35.2471 44.7491 Q 35.749 45.2504, 36.2507 45.7503 Q 36.7506 46.2424, 37.4287 46.818 ZM 38.9299 46.8278 Q 40.2315 46.6068, 40.7392 46.4913 Q 41.2192 46.2247, 41.4371 45.718 Q 41.218 45.0179, 40.6887 44.4886 Q 39.5282 43.7484, 38.3477 42.8138 Q 37.7594 42.254, 37.2513 41.75 Q 36.7446 41.2501, 36.2447 40.7997 Q 35.7896 40.7986, 35.6044 41.4441 Q 36.1808 41.8753, 36.7619 42.2748 Q 37.2497 42.7504, 37.7496 43.2482 Q 38.2511 43.7489, 38.7518 44.2504 Q 39.2495 44.7503, 39.7257 45.2384 Q 40.1363 45.8216, 39.922 46.2507 ZM 19.4949 44.8031 Q 18.5122 42.1862, 18.6053 42.9596 Q 19.4838 45.2736, 19.4949 44.8031 ZM 33.6717 42.8255 Q 34.2265 42.2476, 34.4461 41.838 Q 33.5531 41.3819, 32.858 41.1598 Q 33.2202 41.8399, 33.4705 42.2463 ZM 32.5056 40.3157 Q 32.8268 39.7033, 32.2383 39.5086 Q 31.6033 39.44, 31.6245 39.78 ZM 21.7602 37.7183 Q 22.1719 37.226, 22.8315 35.7706 Q 22.2441 36.2527, 21.5717 36.7871 Q 21.446 37.1972, 21.1599 38.1979 ZM 23.7735 34.83 Q 25.217 34.172, 25.8202 33.5906 Q 25.2026 33.626, 24.2939 34.2404 ZM 26.2858 32.7275 Q 26.5934 32.2151, 26.504 31.755 Q 26.4138 31.1849, 25.8021 30.976 Q 25.8439 30.3633, 25.5194 29.7558 Q 25.3723 29.1707, 24.7596 29.754 Q 24.1724 30.4697, 24.7469 30.5523 Q 25.1743 30.9512, 25.7543 31.9836 ZM 15.1223 28.2829 Q 15.1428 27.7001, 14.7999 27.7896 Q 14.7999 28.2091, 15.1223 28.2829 ZM 14.2116 27.2121 Q 14.3195 26.8215, 13.8016 26.8014 Q 13.8242 27.3226, 14.2116 27.2121 ZM 19.2137 15.8132 Q 18.7406 15.2434, 18.3555 14.8185 Q 17.6718 14.1731, 17.5657 14.7658 Q 18.0388 15.2389, 19.2137 15.8132 ZM 29.7359 15.4846 Q 30.2261 15.4916, 30.627 15.3925 Q 28.7766 14.5972, 28.1768 14.6529 Q 28.7174 15.1751, 29.7359 15.4846 ZM 27.4409 14.1807 Q 26.9873 13.7821, 26.2289 13.547 Q 26.5295 14.3554, 27.4409 14.1807 ZM 23.1513 13.4893 Q 24.8281 12.5091, 24.2512 12.4992 Q 23.757 12.4942, 23.2585 12.4603 Q 22.7999 12.2204, 22.7999 11.7538 Q 23.2306 11.2558, 23.4784 10.7521 Q 23.4672 10.2544, 23.2216 9.79986 Q 22.7695 9.79986, 22.465 10.1955 Q 21.8664 10.1483, 22.2143 10.7576 Q 22.1848 11.2571, 21.714 11.7571 Q 20.7251 12.4519, 21.2435 12.5089 Q 21.8662 12.6958, 22.2214 12.7885 Q 22.4905 13.3271, 23.1513 13.4893 ZM 16.8307 12.867 Q 17.718 12.5362, 18.251 12.5052 Q 18.7426 12.4974, 19.1595 12.32 Q 18.4808 11.8208, 17.6244 10.7781 Q 17.4505 11.2034, 16.7172 11.16 Q 17.1885 11.7483, 17.1395 12.1272 ZM 23.5877 8.581 Q 24.2821 8.15696, 24.979 7.23886 Q 25.4352 6.30308, 25.4353 5.69697 Q 24.9868 4.7766, 24.1719 3.79011 Q 24.4724 4.71897, 24.4874 5.23393 Q 24.375 5.83982, 24.2186 6.24325 Q 23.6343 6.82118, 23.3532 7.14942 Q 23.4674 7.76117, 23.1702 8.48923 ZM 17.4499 7.60906 Q 17.8534 7.34444, 17.7544 6.83772 Q 16.7934 6.84952, 16.6441 7.46369 ZM 21.597 6.85113 Q 22.4834 6.65172, 22.5619 6.36191 Q 22.789 5.84179, 23.2076 5.2463 Q 23.2003 4.79916, 22.7572 4.78475 Q 22.1602 5.14019, 21.6503 5.44339 Q 21.148 5.65145, 21.2421 6.20546 ZM 17.7638 2.8061 Q 18.8344 2.61039, 19.2631 2.52672 Q 19.7439 2.60006, 20.2705 2.50944 Q 20.7565 2.50205, 21.2575 2.50237 Q 21.8067 2.52734, 23.0458 2.83901 Q 21.9796 2.24183, 20.8199 1.62648 Q 20.2643 1.52184, 19.6977 1.55985 Q 18.7689 2.01672, 17.7638 2.8061 Z"
id="path8" 
inkscape:connector-curvature="0" sodipodi:nodetypes="cccccccccc" />
<path 
 style="fill:#a47b52; fill-opacity:1,fill-rule:evenodd;stroke:#a47b52;stroke-width:0.1;stroke-linecap:butt;stroke-linejoin:miter;stroke-opacity:1"
d="M 33.722 36.4668 Q 34.2121 36.4791, 34.7617 35.7498 Q 35.2539 35.2419, 35.8135 34.6528 Q 36.7483 33.4719, 37.6887 31.999 Q 38.25 30.4378, 38.7499 28.5654 Q 39.4134 26.7749, 39.4854 26.26 Q 39.469 25.7236, 39.2236 24.9765 Q 38.7556 24.0198, 38.1799 22.9332 Q 38.4701 24.1962, 38.4662 24.7439 Q 38.2223 25.2269, 37.7726 25.4995 Q 37.5129 25.7531, 37.3099 26.1156 Q 37.474 26.7296, 37.4679 27.2765 Q 37.2235 28.0255, 36.767 28.982 Q 36.4671 29.733, 35.9833 30.2169 Q 35.2183 30.4472, 34.6498 30.4454 Q 34.0864 30.2728, 33.7546 30.5156 Q 33.5768 30.7765, 34.2924 31.4843 Q 34.7481 31.5022, 35.22 31.5465 Q 35.9604 31.7834, 36.177 32.2416 Q 35.7546 32.7323, 35.2547 33.1984 Q 34.8168 33.2862, 34.4929 33.7667 Q 34.2209 34.2526, 33.7425 34.7526 Q 33.2477 35.2263, 32.7608 35.4871 Q 32.2359 35.6999, 33.0015 36.222 ZM 18.2071 33.9739 Q 18.3346 33.1955, 17.7549 33.1998 Q 17.2548 32.7499, 16.7446 32.25 Q 16.2447 31.8035, 15.7604 31.8394 Q 15.8365 32.3367, 16.1967 32.7543 Q 16.1526 33.3762, 16.7553 33.5198 Q 17.2376 33.7751, 17.6538 34.2751 ZM 36.0333 31.2001 Q 36.0333 30.7999, 36.4408 30.7999 Q 36.4408 31.2001, 36.0333 31.2001 ZM 10.2856 30.2703 Q 11.9648 29.2692, 12.734 28.7997 Q 13.4392 28.7991, 13.3291 28.1852 Q 12.7594 27.8299, 12.2594 28.2505 Q 11.749 28.7504, 11.2478 29.2506 Q 10.7605 29.7428, 10.2856 30.2703 ZM 10.7563 28.7339 Q 11.2166 28.2464, 11.3534 27.8402 Q 10.5554 27.4041, 9.81744 27.161 Q 10.2343 27.7567, 10.4425 28.2784 Q 10.1735 29.2418, 10.7563 28.7339 ZM 27.5423 28.6602 Q 28.2333 26.5999, 28.7332 26.6 Q 29.4615 28.6789, 29.582 28.4744 Q 29.5125 27.7977, 29.5042 27.2607 Q 29.5038 26.7555, 29.5067 26.252 Q 29.5367 25.7179, 29.8478 24.8693 Q 30.7637 23.2554, 31.698 21.8599 Q 32.2525 21.2559, 32.8039 20.7124 Q 32.8001 19.9768, 33.242 19.2769 Q 33.818 18.5122, 33.2483 18.509 Q 32.6668 18.5906, 31.0026 19.6195 Q 30.3 20.2176, 29.7563 20.7473 Q 29.251 21.2476, 28.6597 21.8038 Q 28.4477 22.2173, 28.2192 23.0254 Q 27.669 24.1328, 27.5123 24.7332 Q 27.444 25.1892, 27.4921 25.7606 Q 27.4871 26.2862, 27.4165 26.8982 Q 27.4932 27.2762, 27.4987 27.7543 Q 27.5026 28.2365, 27.5423 28.6602 ZM 35.707 28.7893 Q 36.2173 28.0061, 36.4402 27.2154 Q 35.5203 26.7321, 35.498 27.2492 Q 35.4694 27.7468, 35.1877 28.2931 Z"
id="path9" 
inkscape:connector-curvature="0" sodipodi:nodetypes="cccccccccc" />
<path 
 style="fill:#adadad; fill-opacity:1,fill-rule:evenodd;stroke:#adadad;stroke-width:0.1;stroke-linecap:butt;stroke-linejoin:miter;stroke-opacity:1"
d="M 15.7606 55.4929 Q 16.2823 55.4711, 16.9059 55.2645 Q 18.1973 54.2777, 18.7396 53.7565 Q 19.2471 53.2512, 19.7495 52.7556 Q 20.4048 52.181, 20.5806 51.8545 Q 20.2673 51.1937, 19.7496 51.7465 Q 19.2496 52.2497, 18.7493 52.7496 Q 18.2484 53.2505, 17.7452 53.7504 Q 17.246 54.2089, 16.7989 54.2893 Q 16.2394 54.5138, 15.7629 54.7743 Q 15.1968 55.4679, 15.7606 55.4929 ZM 40.7565 55.4913 Q 41.2275 55.4753, 41.6253 55.141 Q 41.5331 54.733, 41.6317 54.2345 Q 41.4335 53.7313, 40.7531 54.7272 Q 40.1753 55.4076, 40.7565 55.4913 ZM 39.2175 53.2001 Q 39.3737 52.8494, 38.5994 52.8707 Q 38.7783 53.2001, 39.2175 53.2001 ZM 41.4266 53.3796 Q 41.4455 52.8085, 40.781 51.745 Q 40.5447 50.8257, 40.6323 50.193 Q 40.7833 49.7524, 41.3016 49.1829 Q 41.2105 48.7541, 40.7549 48.2638 Q 40.1939 47.7534, 40.3541 48.8281 Q 40.2148 49.2001, 39.7808 49.2001 Q 39.5286 48.6622, 38.5009 48.3638 Q 38.6625 48.8357, 39.1962 49.7335 Q 39.1478 50.3815, 39.8419 50.685 Q 40.2494 51.3202, 40.7494 52.6642 ZM 22.3924 52.8086 Q 22.4538 52.239, 22.0197 51.6115 Q 21.857 52.2501, 22.3924 52.8086 ZM 17.7347 51.8254 Q 19.1966 51.1702, 19.8072 50.741 Q 18.1645 51.3411, 17.7347 51.8254 ZM 22.4991 47.2464 Q 22.5019 46.7527, 22.5016 46.2511 Q 22.501 45.7505, 22.5016 45.2506 Q 22.5022 44.7489, 22.5016 44.2478 Q 22.5009 43.7486, 22.5009 43.2486 Q 22.4987 42.7545, 22.476 42.2397 Q 21.7745 43.7058, 21.5306 44.256 Q 21.5332 44.8104, 21.7771 45.7907 Q 22.4761 47.7564, 22.4991 47.2464 ZM 40.1363 45.8216 Q 39.7257 45.2384, 39.2495 44.7503 Q 38.7518 44.2504, 38.2511 43.7489 Q 37.7496 43.2482, 37.2497 42.7504 Q 36.7619 42.2748, 36.1808 41.8753 Q 36.7519 42.9754, 37.2548 43.7235 Q 37.7781 44.2617, 38.3562 44.7586 ZM 19.4901 44.2969 Q 18.5074 41.6913, 18.5122 42.1862 Q 19.4949 44.8031, 19.4901 44.2969 ZM 36.3025 44.8285 Q 35.2222 44.0034, 33.7885 43.1819 Q 34.1727 43.6633, 36.3025 44.8285 ZM 34.4461 41.838 Q 34.7605 41.517, 35.212 41.3569 Q 34.5227 40.6786, 33.7836 40.7932 Q 33.5531 41.3819, 34.4461 41.838 ZM 22.417 40.8102 Q 22.2134 40.0133, 21.7632 39.5631 Q 21.1697 39.6163, 21.6007 40.1581 ZM 18.7969 39.4011 Q 18.1602 38.5633, 17.5974 38.1751 Q 17.5497 38.7609, 17.855 39.1593 ZM 21.5717 36.7871 Q 22.2441 36.2527, 22.8315 35.7706 Q 23.2627 35.2626, 23.7735 34.83 Q 24.2939 34.2404, 25.2026 33.626 Q 23.9319 33.8459, 23.2825 34.2574 Q 22.72 34.8174, 22.0293 35.7507 ZM 19.6916 34.8116 Q 22.3167 33.1733, 22.6633 32.8268 Q 23.3139 31.1901, 22.7508 31.7483 Q 22.2511 32.2463, 21.7483 32.7484 Q 21.2452 33.2516, 20.7437 33.7537 Q 20.2471 34.2519, 19.6916 34.8116 ZM 15.1454 32.5462 Q 15.8365 32.3367, 15.7604 31.8394 Q 15.2472 31.1753, 14.6539 31.4647 Q 14.6531 31.8122, 15.1454 32.5462 ZM 13.357 30.4216 Q 13.4701 29.7979, 13.3676 29.1762 Q 12.7715 29.7554, 12.4973 30.2258 Q 12.2238 30.4747, 11.7202 30.5144 Q 12.8312 31.3188, 13.357 30.4216 ZM 15.2472 30.8019 Q 15.8097 30.2785, 15.5621 29.7193 Q 15.841 28.7906, 15.1263 29.383 Q 14.7861 29.7527, 14.6676 30.176 ZM 26.4085 28.7461 Q 26.6598 28.2011, 26.4472 27.8017 Q 25.7999 27.8, 25.7999 28.2339 ZM 16.754 27.7421 Q 17.2492 27.2517, 17.7489 26.7535 Q 18.2509 26.2514, 18.7473 25.7518 Q 19.2781 25.1959, 18.0162 25.7638 Q 17.28 26.2787, 16.5763 27.2634 Q 16.1723 28.2839, 16.754 27.7421 ZM 19.6692 24.8005 Q 20.2001 24.242, 20.2001 23.7556 Q 19.7595 23.2746, 19.1586 22.8015 Q 19.3968 23.5837, 19.39 24.1572 ZM 26.3861 24.8365 Q 26.4919 24.2426, 26.4924 23.7569 Q 26.3928 23.154, 25.8032 23.1972 Q 25.8428 22.7311, 25.2374 22.5092 Q 24.5981 22.435, 24.6027 22.7626 Q 25.2289 23.7289, 25.5947 24.4179 ZM 21.2453 22.2128 Q 21.8306 21.6614, 21.5273 21.229 Q 21.5583 20.6236, 21.3845 20.1508 Q 20.803 20.197, 20.8503 19.6141 Q 20.3863 19.4121, 19.8033 18.9921 Q 19.8684 18.3454, 19.851 17.6163 Q 19.3801 17.459, 18.784 17.7768 Q 18.591 18.3069, 19.0561 19.3053 Q 19.9488 20.6979, 20.4502 21.6995 Q 20.5774 22.3879, 21.2453 22.2128 ZM 27.2701 21.9414 Q 27.9913 20.7875, 28.7212 19.824 Q 29.206 19.4269, 29.8199 18.5869 Q 29.1756 18.4554, 28.8015 18.4327 Q 28.0368 18.2139, 27.8229 17.7546 Q 28.274 17.1842, 27.9586 16.7566 Q 27.0254 16.1572, 26.8395 15.7434 Q 27.2638 15.2434, 27.8224 14.6808 Q 27.4409 14.1807, 26.5295 14.3554 Q 26.0433 14.2139, 25.8411 13.5603 Q 25.2486 13.4717, 24.83 13.2203 Q 25.2477 12.6125, 24.8281 12.5091 Q 23.1513 13.4893, 23.7481 13.5302 Q 24.1969 13.7783, 24.151 14.4025 Q 24.8463 14.5285, 25.1966 14.7729 Q 25.1543 15.3017, 25.4556 15.7719 Q 25.1773 16.4601, 25.844 16.5315 Q 26.1966 16.7733, 26.1545 17.3014 Q 26.4556 17.7719, 26.1773 18.4601 Q 26.844 18.5315, 27.1966 18.7733 Q 27.1545 19.3014, 27.4545 19.7719 Q 27.1456 20.4968, 27.1968 20.9808 Q 26.4719 21.2966, 26.2137 21.3496 Q 25.728 21.4894, 25.1823 21.5005 Q 26.8475 22.4629, 27.2701 21.9414 ZM 17.5854 17.8097 Q 18.2538 17.2436, 18.9296 16.6256 Q 19.1964 16.1618, 18.2673 16.5324 Q 17.7849 17.0132, 17.5854 17.8097 ZM 30.3024 17.8178 Q 30.625 17.1573, 30.817 16.5856 Q 30.0238 16.7852, 29.7251 17.1797 ZM 16.483 13.2003 Q 16.8307 12.867, 17.1395 12.1272 Q 16.2914 12.4009, 15.7822 11.9746 Q 15.5605 11.2823, 15.8157 10.611 Q 15.0173 10.789, 14.5907 11.2843 Q 14.7843 12.0029, 15.2818 12.7186 Q 15.9821 13.2019, 16.483 13.2003 ZM 20.7251 12.4519 Q 21.714 11.7571, 22.1848 11.2571 Q 22.2143 10.7576, 21.8664 10.1483 Q 21.8167 9.74606, 22.2916 9.18894 Q 21.2723 9.46766, 20.5753 9.40271 Q 20.1559 9.65168, 20.4526 10.2819 Q 21.2001 10.7733, 21.2001 11.2455 Q 20.7601 11.7455, 20.1998 12.465 ZM 18.8533 10.7012 Q 19.1745 10.5959, 19.7452 10.6088 Q 20.1441 10.2797, 19.8676 9.65362 Q 19.1583 9.41759, 18.8354 9.302 Q 18.1379 9.68862, 18.1379 10.2918 ZM 22.6717 8.81768 Q 23.1702 8.48923, 23.4674 7.76117 Q 23.3532 7.14942, 22.7784 7.19652 Q 22.4834 6.65172, 21.597 6.85113 Q 21.5222 7.33779, 22.2248 7.77205 Q 22.4829 8.24186, 22.6717 8.81768 ZM 19.2638 5.20014 Q 19.8508 4.82913, 20.7691 4.02503 Q 21.8187 3.65701, 22.2183 3.78607 Q 22.435 4.28335, 22.1602 5.14019 Q 22.7572 4.78475, 23.2003 4.79916 Q 23.2076 5.2463, 22.789 5.84179 Q 23.7192 5.56116, 24.375 5.83982 Q 24.4874 5.23393, 24.4724 4.71897 Q 24.1719 3.79011, 23.7154 3.26619 Q 23.0458 2.83901, 21.8067 2.52734 Q 21.2575 2.50237, 20.7565 2.50205 Q 20.2705 2.50944, 19.7439 2.60006 Q 20.1699 3.22269, 19.7704 3.49308 Q 19.3756 3.84884, 19.2169 4.17847 Q 18.7861 3.96454, 18.6483 3.47719 Q 18.8344 2.61039, 17.7638 2.8061 Q 17.2602 3.27899, 16.7867 3.99222 Q 16.5999 4.7822, 17.2359 4.53501 Q 17.8497 4.70969, 18.2511 4.78998 Q 18.7511 5.20014, 19.2638 5.20014 Z"
id="path10" 
inkscape:connector-curvature="0" sodipodi:nodetypes="cccccccccc" />
<path 
 style="fill:#bd946b; fill-opacity:1,fill-rule:evenodd;stroke:#bd946b;stroke-width:0.1;stroke-linecap:butt;stroke-linejoin:miter;stroke-opacity:1"
d="M 31.6358 38.2065 Q 31.243 37.7506, 30.7505 37.2506 Q 30.2506 36.7466, 29.7226 36.1919 Q 28.9963 35.219, 28.2737 34.0433 Q 27.7753 33.2697, 27.5289 32.7464 Q 27.5048 32.2439, 27.5003 31.7505 Q 27.4816 31.2245, 26.5934 32.2151 Q 26.2858 32.7275, 26.2052 33.3962 Q 26.7527 33.5474, 27.2683 34.0683 Q 27.9911 35.2139, 28.7228 36.1918 Q 29.2515 36.7462, 29.7558 37.2521 Q 30.2715 37.7521, 30.8153 38.1563 ZM 32.2359 35.6999 Q 32.7608 35.4871, 33.2477 35.2263 Q 33.7425 34.7526, 34.2209 34.2526 Q 34.4929 33.7667, 34.8168 33.2862 Q 34.1766 32.5414, 33.7982 32.0139 Q 33.7773 31.5901, 34.2924 31.4843 Q 33.5768 30.7765, 33.7546 30.5156 Q 34.0864 30.2728, 33.2778 29.7491 Q 32.8011 29.3138, 32.5218 29.7738 Q 32.5021 30.2541, 32.4997 30.7493 Q 32.4984 31.2479, 32.497 31.7488 Q 32.494 32.2542, 32.4646 32.8166 Q 32.2189 33.7291, 31.7428 34.1524 Q 31.2429 33.7361, 30.761 33.2724 Q 30.1915 32.866, 30.8277 34.2279 Q 31.2516 34.7389, 31.7516 35.2465 ZM 34.2126 27.974 Q 34.4082 27.2098, 33.7868 27.7618 Q 33.6164 28.3874, 34.2126 27.974 ZM 32.6214 27.7896 Q 33.2413 27.243, 33.8071 26.572 Q 33.2393 26.5605, 32.7892 27.0106 ZM 37.5129 25.7531 Q 37.7726 25.4995, 38.2223 25.2269 Q 38.4662 24.7439, 38.4701 24.1962 Q 38.1799 22.9332, 37.7441 22.2782 Q 37.2065 21.7312, 36.5349 21.1933 Q 35.3152 20.5595, 34.774 20.5099 Q 34.2754 20.5513, 35.6777 21.2397 Q 36.1771 21.7396, 36.1979 22.2093 Q 35.5327 22.365, 35.437 22.6965 Q 35.7681 23.2736, 36.2524 24.0308 Q 36.7524 25.0068, 37.3099 26.1156 ZM 3.6203 12.792 Q 4.2088 12.0056, 4.34464 11.2076 Q 3.7886 11.9938, 3.6203 12.792 Z"
id="path11" 
inkscape:connector-curvature="0" sodipodi:nodetypes="cccccccccc" />
<path 
 style="fill:#c5c5c5; fill-opacity:1,fill-rule:evenodd;stroke:#c5c5c5;stroke-width:0.1;stroke-linecap:butt;stroke-linejoin:miter;stroke-opacity:1"
d="M 15.1968 55.4679 Q 15.7629 54.7743, 16.2394 54.5138 Q 16.7989 54.2893, 15.981 53.755 Q 14.8077 53.1714, 15.2087 53.7542 Q 15.2003 54.2001, 14.7554 54.2001 Q 14.2555 53.7498, 13.7469 53.2498 Q 13.1932 52.7283, 12.788 52.7932 Q 12.6058 53.4162, 13.2482 53.7721 Q 13.7439 54.2478, 14.2222 54.7478 Q 14.5864 55.4121, 15.1968 55.4679 ZM 23.4156 53.1298 Q 23.2142 52.2598, 22.5404 51.4088 Q 22.162 51.2965, 22.0197 51.6115 Q 22.4538 52.239, 22.3924 52.8086 Q 23.0865 53.2626, 23.4156 53.1298 ZM 37.9735 52.7852 Q 38.5994 52.8707, 39.3737 52.8494 Q 39.4909 52.2405, 39.503 51.7526 Q 39.5325 51.2534, 39.8419 50.685 Q 39.1478 50.3815, 38.6965 51.123 Q 38.4881 51.7327, 38.1549 52.2829 Q 37.0871 53.0902, 37.9735 52.7852 ZM 21.8663 50.7061 Q 22.1509 50.6142, 22.4758 50.2275 Q 22.4967 49.7516, 22.4818 49.2012 Q 21.5169 49.351, 21.221 49.3583 Q 20.7604 49.5008, 20.464 49.6643 Q 21.4375 50.2347, 21.8663 50.7061 ZM 18.5698 48.786 Q 19.2285 48.495, 19.6212 48.1404 Q 19.5162 47.7484, 19.4959 47.2598 Q 19.4128 46.7573, 18.6125 48.214 ZM 22.4808 48.7953 Q 22.4936 48.2401, 22.4761 47.7564 Q 21.7771 45.7907, 21.5332 44.8104 Q 21.5306 44.256, 21.7745 43.7058 Q 22.476 42.2397, 22.4929 41.7607 Q 22.4729 41.2036, 21.7504 41.4811 Q 21.2504 41.5239, 20.5745 41.8359 Q 20.5107 42.2518, 20.5023 42.7528 Q 20.5006 43.251, 20.5003 43.7504 Q 20.5006 44.2507, 20.5023 44.7542 Q 20.5111 45.2814, 20.5759 45.8786 Q 21.239 47.6463, 21.739 48.2143 ZM 40.3541 48.8281 Q 40.1939 47.7534, 39.8471 47.6219 Q 39.5652 48.3709, 40.3541 48.8281 ZM 38.5525 47.1389 Q 38.9299 46.8278, 39.922 46.2507 Q 40.1363 45.8216, 38.3562 44.7586 Q 38.7539 45.2548, 39.161 45.7433 Q 38.9582 46.2162, 38.2838 46.4365 Q 37.7572 46.2347, 37.1587 45.8258 Q 37.4287 46.818, 37.7588 47.1492 ZM 19.423 43.5415 Q 18.5427 41.2092, 18.5074 41.6913 Q 19.4901 44.2969, 19.423 43.5415 ZM 33.5531 41.3819 Q 33.7836 40.7932, 34.5227 40.6786 Q 34.482 40.3223, 33.9824 39.7853 Q 33.2123 39.5742, 33.201 40.2276 Q 32.5556 40.6647, 32.858 41.1598 ZM 19.2818 39.169 Q 19.2817 38.8115, 18.6632 38.1939 Q 18.1602 38.5633, 18.7969 39.4011 ZM 21.1599 38.1979 Q 21.446 37.1972, 20.5986 37.8167 Q 20.5924 38.3939, 21.1599 38.1979 ZM 15.3334 34.186 Q 15.7521 33.7533, 16.1526 33.3762 Q 16.1967 32.7543, 15.8365 32.3367 Q 15.1454 32.5462, 15.1934 33.2512 Q 14.7876 33.7511, 14.6533 34.4245 ZM 19.2496 35.2732 Q 21.6764 33.7467, 22.3167 33.1733 Q 19.6916 34.8116, 19.2496 35.2732 ZM 13.1775 33.2824 Q 13.8312 32.6415, 13.447 32.3889 Q 12.7904 32.7751, 12.6539 33.4287 ZM 23.9319 33.8459 Q 25.2026 33.626, 25.8202 33.5906 Q 26.2052 33.3962, 26.2858 32.7275 Q 25.7543 31.9836, 25.1743 30.9512 Q 25.3477 32.1915, 25.3404 32.539 Q 24.9329 33.2486, 23.9319 33.8459 ZM 35.2547 33.1984 Q 35.7546 32.7323, 36.177 32.2416 Q 35.9604 31.7834, 35.22 31.5465 Q 35.2013 32.2093, 34.5199 32.3646 Q 34.1766 32.5414, 34.8168 33.2862 ZM 22.6633 32.8268 Q 23.1686 32.2561, 23.7956 30.7382 Q 23.3139 31.1901, 22.6633 32.8268 ZM 11.2503 31.4745 Q 11.7502 31.5284, 12.2771 31.8284 Q 12.8312 31.3188, 11.7202 30.5144 Q 11.2543 30.5324, 10.7843 30.778 Q 10.6468 31.1609, 11.2503 31.4745 ZM 26.2232 30.6594 Q 26.4794 30.2313, 26.4971 29.749 Q 26.4909 29.2491, 26.4085 28.7461 Q 25.7999 28.2339, 25.7999 27.8 Q 26.4472 27.8017, 26.4852 27.2451 Q 26.3893 26.7315, 25.7497 26.795 Q 25.2497 27.202, 24.5735 27.2252 Q 24.7839 28.0117, 25.2188 28.7277 Q 25.3723 29.1707, 25.5194 29.7558 Q 25.8439 30.3633, 26.2232 30.6594 ZM 35.9833 30.2169 Q 36.4671 29.733, 36.767 28.982 Q 37.2235 28.0255, 37.4679 27.2765 Q 37.474 26.7296, 37.3099 26.1156 Q 36.7524 25.0068, 36.2524 24.0308 Q 35.7681 23.2736, 35.437 22.6965 Q 34.7291 22.6265, 34.7942 23.2916 Q 35.2093 24.2102, 35.3639 25.1965 Q 35.4942 25.7358, 35.6584 26.4937 Q 36.2219 26.7775, 36.4402 27.2154 Q 36.2173 28.0061, 35.707 28.7893 Q 35.459 29.1956, 34.8546 29.1474 Q 34.932 29.5662, 35.2183 30.4472 ZM 15.2624 26.1881 Q 15.7412 25.6781, 16.7949 23.7242 Q 16.2486 24.2521, 15.7469 24.7492 Q 15.2469 25.2247, 14.7505 25.4752 Q 14.2133 25.5349, 14.7292 26.3814 ZM 16.5763 27.2634 Q 17.28 26.2787, 18.0162 25.7638 Q 19.2781 25.1959, 19.6692 24.8005 Q 19.39 24.1572, 18.7306 24.4959 Q 17.7432 24.8336, 17.2597 25.2597 Q 16.8346 25.7422, 16.5311 26.7113 ZM 25.5947 24.4179 Q 25.2289 23.7289, 24.6027 22.7626 Q 24.4207 23.1703, 23.3094 22.7662 Q 24.5349 23.7518, 25.5947 24.4179 ZM 25.2374 22.5092 Q 25.8428 22.7311, 26.3462 22.853 Q 26.8475 22.4629, 25.1823 21.5005 Q 24.7511 21.5002, 24.2006 21.4813 Q 24.5981 22.435, 25.2374 22.5092 ZM 27.1456 20.4968 Q 27.4545 19.7719, 27.1545 19.3014 Q 26.8159 19.4715, 26.1769 19.4883 Q 26.6879 20.5083, 27.1456 20.4968 ZM 26.1773 18.4601 Q 26.4556 17.7719, 26.1545 17.3014 Q 25.8159 17.4715, 25.1768 17.4883 Q 25.6875 18.5051, 26.1773 18.4601 ZM 31.0096 18.2068 Q 31.6483 17.7491, 31.234 17.4929 Q 30.625 17.1573, 30.3024 17.8178 Q 30.1922 18.316, 31.0096 18.2068 ZM 25.1773 16.4601 Q 25.4556 15.7719, 25.1543 15.3017 Q 24.816 15.4715, 24.1769 15.4883 Q 24.6875 16.5051, 25.1773 16.4601 ZM 31.2555 15.4323 Q 30.5034 14.8589, 29.5208 14.3792 Q 29.2468 14.4916, 28.7766 14.5972 Q 30.627 15.3925, 31.2555 15.4323 ZM 20.1998 12.465 Q 20.7601 11.7455, 21.2001 11.2455 Q 21.2001 10.7733, 20.4526 10.2819 Q 20.1441 10.2797, 19.7452 10.6088 Q 20.1684 11.2343, 19.5828 11.8258 Q 19.6021 12.4207, 20.1998 12.465 ZM 18.4808 11.8208 Q 18.5317 11.2516, 18.8533 10.7012 Q 18.1379 10.2918, 17.7795 10.5077 Q 17.6244 10.7781, 18.4808 11.8208 ZM 18.1379 9.68862 Q 18.8354 9.302, 18.2532 8.74724 Q 17.7745 8.24729, 17.4499 7.60906 Q 16.6441 7.46369, 16.7848 8.00739 Q 17.2521 8.72257, 17.7514 9.2565 ZM 21.2723 9.46766 Q 22.2916 9.18894, 22.6717 8.81768 Q 22.4829 8.24186, 22.2248 7.77205 Q 21.5222 7.33779, 21.1485 7.57319 Q 21.1969 8.21586, 20.8602 8.35304 Q 20.53 8.7725, 20.5753 9.40271 ZM 19.7507 6.74949 Q 20.2524 6.2508, 20.8039 5.71884 Q 20.2319 5.56798, 19.7667 6.03321 Q 19.1983 7.2918, 19.7507 6.74949 ZM 23.2296 6.5135 Q 23.6343 6.82118, 24.2186 6.24325 Q 24.375 5.83982, 23.7192 5.56116 Q 22.789 5.84179, 22.5619 6.36191 ZM 17.8321 5.46635 Q 17.8497 4.70969, 17.2359 4.53501 Q 16.5999 4.7822, 16.9015 5.171 ZM 19.8508 4.82913 Q 20.7204 4.54615, 21.1554 4.62407 Q 21.5013 4.22943, 21.8187 3.65701 Q 20.7691 4.02503, 19.8508 4.82913 ZM 19.3756 3.84884 Q 19.7704 3.49308, 20.1699 3.22269 Q 19.7439 2.60006, 19.2631 2.52672 Q 18.8344 2.61039, 18.6483 3.47719 Z"
id="path12" 
inkscape:connector-curvature="0" sodipodi:nodetypes="cccccccccc" />
<path 
 style="fill:#d6ad84; fill-opacity:1,fill-rule:evenodd;stroke:#d6ad84;stroke-width:0.1;stroke-linecap:butt;stroke-linejoin:miter;stroke-opacity:1"
d="M 32.2189 33.7291 Q 32.4646 32.8166, 32.494 32.2542 Q 32.497 31.7488, 32.4984 31.2479 Q 32.4997 30.7493, 32.5021 30.2541 Q 32.5218 29.7738, 32.8011 29.3138 Q 32.2517 28.7229, 31.7785 28.0015 Q 31.5393 27.2785, 31.577 26.7883 Q 31.7848 25.9974, 32.3405 25.2106 Q 32.5509 24.7952, 32.7818 23.9896 Q 33.2145 23.2714, 33.3367 22.8165 Q 32.6891 22.9354, 31.7557 24.2719 Q 30.8488 25.8679, 30.5371 26.7178 Q 30.5095 27.2545, 30.5315 27.8085 Q 30.777 28.804, 31.2227 30.1953 Q 31.4658 31.1885, 31.4623 31.7431 Q 31.2193 32.1773, 30.7653 31.9426 Q 30.2653 30.9321, 29.582 28.4744 Q 29.4615 28.6789, 29.4935 29.2255 Q 29.498 29.7445, 29.4993 30.2483 Q 29.5016 30.7529, 29.5272 31.2791 Q 29.8244 32.1546, 30.1915 32.866 Q 30.761 33.2724, 31.2429 33.7361 Q 31.7428 34.1524, 32.2189 33.7291 ZM 18.3346 33.1955 Q 18.2134 32.7543, 17.749 32.2543 Q 17.2489 31.75, 16.751 31.25 Q 16.2509 30.7464, 15.8097 30.2785 Q 15.2472 30.8019, 15.2472 31.1753 Q 15.7604 31.8394, 16.2447 31.8035 Q 16.7446 32.25, 17.2548 32.7499 Q 17.7549 33.1998, 18.3346 33.1955 ZM 27.4816 31.2245 Q 27.5257 30.7666, 27.5027 30.2426 Q 27.5021 29.7442, 27.5068 29.2241 Q 27.5423 28.6602, 27.5026 28.2365 Q 27.4987 27.7543, 27.4932 27.2762 Q 27.4165 26.8982, 26.6598 28.2011 Q 26.4085 28.7461, 26.4909 29.2491 Q 26.4971 29.749, 26.4794 30.2313 Q 26.2232 30.6594, 26.4138 31.1849 Q 26.504 31.755, 26.5934 32.2151 ZM 11.3534 27.8402 Q 11.5176 27.2434, 11.7609 26.7566 Q 12.1851 26.1689, 11.2803 26.4399 Q 10.7536 26.2202, 10.2536 25.749 Q 9.7496 25.2482, 9.24964 24.749 Q 8.74758 24.2449, 8.24762 23.7206 Q 7.75177 22.9771, 7.25148 22.0013 Q 6.74982 20.9997, 6.25062 20.0009 Q 5.75139 19.0017, 5.25068 18.0012 Q 4.67448 16.8626, 4.5113 17.2721 Q 4.50052 17.7505, 4.50058 18.2505 Q 4.49981 18.7491, 4.4908 19.2401 Q 4.37634 19.8397, 4.57627 20.2084 Q 5.21063 21.0001, 5.36915 21.7916 Q 5.55393 22.1765, 6.25179 22.7627 Q 6.75278 23.2551, 7.25089 23.7513 Q 7.74923 24.2489, 8.24806 24.7465 Q 8.74893 25.2468, 9.25025 25.7489 Q 9.75021 26.2524, 10.2253 26.7523 Q 10.5554 27.4041, 11.3534 27.8402 ZM 36.1979 22.2093 Q 36.1771 21.7396, 35.6777 21.2397 Q 34.2754 20.5513, 33.7346 20.5575 Q 34.7188 21.2454, 35.2148 21.7453 Q 35.5327 22.365, 36.1979 22.2093 ZM 31.0026 19.6195 Q 32.6668 18.5906, 33.2483 18.509 Q 33.818 18.5122, 34.246 18.2335 Q 33.9597 17.7765, 33.2765 17.5067 Q 32.6011 17.1941, 32.3806 17.6372 Q 32.2018 18.2549, 31.738 18.7564 Q 31.2774 19.2292, 31.0026 19.6195 ZM 4.43985 15.7852 Q 4.21846 14.9726, 3.68264 13.8776 Q 3.79403 14.7703, 4.43985 15.7852 ZM 1.5857 13.7854 Q 2.23769 12.974, 2.80307 11.7678 Q 2.02488 12.761, 1.5857 13.7854 Z"
id="path13" 
inkscape:connector-curvature="0" sodipodi:nodetypes="cccccccccc" />
<path 
 style="fill:#dedede; fill-opacity:1,fill-rule:evenodd;stroke:#dedede;stroke-width:0.1;stroke-linecap:butt;stroke-linejoin:miter;stroke-opacity:1"
d="M 36.5814 55.1393 Q 36.7773 54.7993, 37.1558 54.7895 Q 37.7536 55.2075, 38.2462 55.2079 Q 38.8442 54.7898, 39.1567 54.7915 Q 39.7559 55.2335, 40.1753 55.4076 Q 40.7531 54.7272, 41.4335 53.7313 Q 41.4266 53.3796, 40.7494 52.6642 Q 40.2494 51.3202, 39.8419 50.685 Q 39.5325 51.2534, 39.503 51.7526 Q 39.4909 52.2405, 39.3737 52.8494 Q 39.2175 53.2001, 38.7783 53.2001 Q 38.5994 52.8707, 37.9735 52.7852 Q 37.0871 53.0902, 36.2857 53.5142 Q 35.785 54.0149, 35.5913 54.715 Q 36.0029 55.1967, 36.5814 55.1393 ZM 37.7999 54.2001 Q 37.7999 53.7999, 38.2001 53.7999 Q 38.2001 54.2001, 37.7999 54.2001 ZM 39.7999 54.2001 Q 39.7999 53.7999, 40.2001 53.7999 Q 40.2001 54.2001, 39.7999 54.2001 ZM 17.2446 53.2001 Q 17.7446 52.7497, 18.2498 52.2498 Q 18.7328 51.7585, 19.1966 51.1702 Q 17.7347 51.8254, 17.2545 52.2243 Q 16.747 52.4712, 16.2495 52.4982 Q 15.7205 52.52, 16.7395 53.2001 ZM 19.7579 49.491 Q 20.464 49.6643, 20.7604 49.5008 Q 21.221 49.3583, 20.8281 48.7999 Q 21.2217 48.7999, 21.5169 49.351 Q 22.4818 49.2012, 22.4808 48.7953 Q 21.739 48.2143, 21.239 47.6463 Q 20.5759 45.8786, 20.5043 46.2679 Q 20.4976 46.7446, 20.4942 47.2425 Q 20.4668 47.746, 20.2209 48.1961 Q 19.6212 48.1404, 19.2285 48.495 Q 18.5698 48.786, 18.8296 49.1605 ZM 40.2148 49.2001 Q 40.3541 48.8281, 39.5652 48.3709 Q 39.5286 48.6622, 39.7808 49.2001 ZM 38.2838 46.4365 Q 38.9582 46.2162, 39.161 45.7433 Q 38.7539 45.2548, 38.3562 44.7586 Q 37.7781 44.2617, 37.2548 43.7235 Q 36.7519 42.9754, 36.1808 41.8753 Q 35.6044 41.4441, 35.212 41.3569 Q 34.7605 41.517, 34.4461 41.838 Q 34.2265 42.2476, 33.6717 42.8255 Q 33.7885 43.1819, 35.2222 44.0034 Q 36.3025 44.8285, 36.745 45.2693 Q 37.1587 45.8258, 37.7572 46.2347 ZM 19.4956 43.2275 Q 19.5022 42.7571, 19.5034 42.2583 Q 19.5059 41.7578, 19.533 41.2541 Q 19.7789 40.7999, 20.2225 40.7999 Q 20.475 41.2474, 20.5745 41.8359 Q 21.2504 41.5239, 21.7504 41.4811 Q 22.4729 41.2036, 22.417 40.8102 Q 21.6007 40.1581, 21.0227 40.1979 Q 20.7833 39.5524, 20.0919 39.7254 Q 19.2786 40.2546, 18.7192 40.7989 Q 18.5427 41.2092, 19.423 43.5415 ZM 32.5556 40.6647 Q 33.201 40.2276, 33.2123 39.5742 Q 32.8268 39.7033, 32.5056 40.3157 ZM 18.1602 38.5633 Q 18.6632 38.1939, 18.1999 37.7454 Q 17.7804 37.7948, 17.5974 38.1751 ZM 20.5986 37.8167 Q 21.446 37.1972, 21.5717 36.7871 Q 22.0293 35.7507, 22.72 34.8174 Q 23.2825 34.2574, 23.9319 33.8459 Q 24.9329 33.2486, 25.3404 32.539 Q 24.7293 32.7785, 23.9782 33.2511 Q 23.0289 33.7511, 22.2801 34.2808 Q 21.7467 35.0408, 21.2467 36.0135 Q 20.7861 36.9676, 20.5986 37.8167 ZM 19.2884 36.7955 Q 19.5149 36.2396, 19.7824 35.7465 Q 20.259 35.2452, 20.7509 34.7492 Q 21.2324 34.2616, 21.6764 33.7467 Q 19.2496 35.2732, 18.8169 35.7428 Q 18.802 36.2455, 19.2884 36.7955 ZM 14.6533 34.4245 Q 14.7876 33.7511, 15.1934 33.2512 Q 15.1454 32.5462, 14.6531 31.8122 Q 14.4884 32.246, 14.1536 32.708 Q 14.1962 33.2521, 13.7775 33.8049 Q 14.0347 34.2181, 14.6533 34.4245 ZM 12.6539 33.4287 Q 12.7904 32.7751, 13.447 32.3889 Q 13.4972 31.7494, 13.5008 31.249 Q 13.4917 30.7752, 13.357 30.4216 Q 12.8312 31.3188, 12.2771 31.8284 Q 12.2082 32.252, 11.7697 32.7981 Q 12.0348 33.2186, 12.6539 33.4287 ZM 35.2013 32.2093 Q 35.22 31.5465, 34.7481 31.5022 Q 34.2924 31.4843, 33.7773 31.5901 Q 34.5199 32.3646, 35.2013 32.2093 ZM 15.2472 31.1753 Q 15.2472 30.8019, 14.6676 30.176 Q 14.5226 30.7615, 14.6539 31.4647 ZM 23.7525 31.7716 Q 24.2586 31.5353, 24.7586 31.5617 Q 25.3477 32.1915, 25.1743 30.9512 Q 24.7469 30.5523, 24.1724 30.4697 Q 23.7956 30.7382, 23.1686 32.2561 ZM 35.2183 30.4472 Q 34.932 29.5662, 34.5462 29.783 Q 34.6498 30.4454, 35.2183 30.4472 ZM 15.841 28.7906 Q 16.1723 28.2839, 16.5763 27.2634 Q 16.5311 26.7113, 16.8346 25.7422 Q 16.2445 26.2635, 15.7725 26.7524 Q 15.5037 27.2312, 15.1428 27.7001 Q 15.1223 28.2829, 15.1263 29.383 ZM 25.2497 27.202 Q 25.7497 26.795, 26.3893 26.7315 Q 26.5136 26.2434, 26.7904 25.6069 Q 26.2816 25.1978, 25.7494 25.7478 Q 25.255 26.2472, 24.7854 26.7472 Q 24.5735 27.2252, 25.2497 27.202 ZM 31.577 26.7883 Q 32.2086 26.002, 32.3405 25.2106 Q 31.7848 25.9974, 31.577 26.7883 ZM 16.2639 25.2294 Q 16.7492 24.7514, 17.2466 24.2558 Q 17.7486 23.753, 18.2406 23.2503 Q 18.7733 22.5828, 17.9931 22.785 Q 17.2782 23.2547, 16.7949 23.7242 Q 15.7412 25.6781, 16.2639 25.2294 ZM 17.7432 24.8336 Q 18.7306 24.4959, 19.39 24.1572 Q 19.3968 23.5837, 18.7535 23.7843 Q 18.2647 24.2444, 17.7432 24.8336 ZM 32.5509 24.7952 Q 33.2545 24.2403, 33.7545 23.7999 Q 34.242 23.7999, 34.742 24.2766 Q 35.3639 25.1965, 35.2093 24.2102 Q 34.7942 23.2916, 34.7291 22.6265 Q 34.2405 22.5116, 33.77 22.5222 Q 33.3367 22.8165, 33.2145 23.2714 Q 32.7818 23.9896, 32.5509 24.7952 ZM 24.4207 23.1703 Q 24.6027 22.7626, 24.5981 22.435 Q 24.2006 21.4813, 23.7531 21.1782 Q 22.9713 21.199, 22.2724 20.7875 Q 21.5583 20.6236, 21.5273 21.229 Q 21.8306 21.6614, 22.2474 21.7853 Q 22.757 22.2548, 23.3094 22.7662 ZM 20.5774 22.3879 Q 20.4502 21.6995, 19.9488 20.6979 Q 19.0561 19.3053, 18.591 18.3069 Q 18.784 17.7768, 19.3801 17.459 Q 19.4495 16.7886, 18.9296 16.6256 Q 18.2538 17.2436, 17.5854 17.8097 Q 17.5404 18.2784, 17.7846 19.0378 Q 18.2591 20.0122, 18.753 20.9733 Q 19.281 21.7203, 19.999 22.218 ZM 23.9347 20.8216 Q 24.7127 20.5334, 25.2348 20.5113 Q 25.8508 20.595, 26.1584 20.629 Q 26.6879 20.5083, 26.1769 19.4883 Q 25.5305 19.3711, 25.2565 19.4055 Q 24.7328 19.4896, 24.1818 19.464 Q 23.14 19.1765, 23.9564 19.7594 Q 24.1947 20.2418, 23.9347 20.8216 ZM 20.3863 19.4121 Q 20.4763 18.7645, 20.2599 18.1743 Q 19.8684 18.3454, 19.8033 18.9921 ZM 22.964 18.8229 Q 23.7104 18.5355, 24.2343 18.5116 Q 24.8507 18.595, 25.1591 18.6289 Q 25.6875 18.5051, 25.1768 17.4883 Q 24.5302 17.3709, 24.2557 17.4049 Q 23.7227 17.4884, 23.1749 17.4645 Q 22.1412 17.1771, 22.957 17.7595 Q 23.1975 18.2405, 22.964 18.8229 ZM 31.234 17.4929 Q 31.6483 17.7491, 32.3806 17.6372 Q 32.6011 17.1941, 31.9984 16.7788 Q 31.2789 16.5408, 30.817 16.5856 Q 30.625 17.1573, 31.234 17.4929 ZM 21.9642 16.8228 Q 22.7104 16.5355, 23.2343 16.5116 Q 23.8507 16.595, 24.1591 16.6289 Q 24.6875 16.5051, 24.1769 15.4883 Q 23.5304 15.371, 23.2546 15.4044 Q 22.7072 15.4661, 21.8428 15.1817 Q 22.2125 15.7554, 22.2241 16.2388 ZM 32.1687 15.2153 Q 31.8082 14.7132, 30.1953 13.991 Q 28.1495 13.2213, 28.9728 13.7585 Q 29.5208 14.3792, 30.5034 14.8589 Q 31.0053 14.8038, 31.671 15.4477 ZM 18.3555 14.8185 Q 18.7755 14.5237, 19.2211 14.491 Q 19.4554 14.3125, 18.2914 13.7999 Q 17.7876 13.7999, 17.6718 14.1731 ZM 22.2488 14.451 Q 22.8533 14.5919, 23.1593 14.6285 Q 23.7571 14.4964, 24.151 14.4025 Q 24.1969 13.7783, 23.7481 13.5302 Q 23.1513 13.4893, 22.4905 13.3271 Q 22.2559 13.4028, 21.7972 13.5487 Q 21.8001 14, 22.2488 14.451 ZM 16.2914 12.4009 Q 17.1395 12.1272, 17.1885 11.7483 Q 16.7172 11.16, 16.254 10.7805 Q 15.8157 10.611, 15.5605 11.2823 Q 15.7822 11.9746, 16.2914 12.4009 ZM 19.5828 11.8258 Q 20.1684 11.2343, 19.7452 10.6088 Q 19.1745 10.5959, 19.4807 11.2465 ZM 19.8676 9.65362 Q 20.1559 9.65168, 20.5753 9.40271 Q 20.53 8.7725, 20.8602 8.35304 Q 20.7901 7.55526, 19.7608 7.83763 Q 19.4698 8.19745, 18.9633 8.17359 Q 19.2217 8.76119, 19.1583 9.41759 ZM 23.3532 7.14942 Q 23.6343 6.82118, 23.2296 6.5135 Q 22.5619 6.36191, 22.4834 6.65172 Q 22.7784 7.19652, 23.3532 7.14942 ZM 22.1602 5.14019 Q 22.435 4.28335, 22.2183 3.78607 Q 21.8187 3.65701, 21.5013 4.22943 Q 21.1554 4.62407, 21.6503 5.44339 ZM 19.2169 4.17847 Q 19.3756 3.84884, 18.6483 3.47719 Q 18.7861 3.96454, 19.2169 4.17847 Z"
id="path14" 
inkscape:connector-curvature="0" sodipodi:nodetypes="cccccccccc" />
<path 
 style="fill:#ffd6ad; fill-opacity:1,fill-rule:evenodd;stroke:#ffd6ad;stroke-width:0.1;stroke-linecap:butt;stroke-linejoin:miter;stroke-opacity:1"
d="M 31.2193 32.1773 Q 31.4623 31.7431, 31.4658 31.1885 Q 31.2227 30.1953, 30.777 28.804 Q 30.5315 27.8085, 30.5095 27.2545 Q 30.5371 26.7178, 30.8488 25.8679 Q 31.7557 24.2719, 32.6891 22.9354 Q 33.3367 22.8165, 33.77 22.5222 Q 34.2405 22.5116, 34.7291 22.6265 Q 35.437 22.6965, 35.5327 22.365 Q 35.2148 21.7453, 34.7188 21.2454 Q 33.7346 20.5575, 33.2586 20.5316 Q 32.8039 20.7124, 32.2525 21.2559 Q 31.698 21.8599, 30.7637 23.2554 Q 29.8478 24.8693, 29.5367 25.7179 Q 29.5067 26.252, 29.5038 26.7555 Q 29.5042 27.2607, 29.5125 27.7977 Q 29.582 28.4744, 30.2653 30.9321 Q 30.7653 31.9426, 31.2193 32.1773 ZM 9.51398 31.1855 Q 9.78951 30.7415, 10.2856 30.2703 Q 10.7605 29.7428, 11.2478 29.2506 Q 11.749 28.7504, 12.2594 28.2505 Q 12.7594 27.8299, 13.3291 28.1852 Q 13.5109 27.7526, 13.8242 27.3226 Q 13.8016 26.8014, 14.3195 26.8215 Q 14.7292 26.3814, 14.2133 25.5349 Q 13.7233 25.533, 12.9777 25.7767 Q 12.1851 26.1689, 11.7609 26.7566 Q 11.5176 27.2434, 11.3534 27.8402 Q 11.2166 28.2464, 10.7563 28.7339 Q 10.1735 29.2418, 9.77001 29.4373 Q 9.24932 29.5496, 8.78511 30.0151 Q 8.59148 30.7148, 9.00544 31.1992 ZM 27.4165 26.8982 Q 27.4871 26.2862, 27.4921 25.7606 Q 27.444 25.1892, 26.7904 25.6069 Q 26.5136 26.2434, 26.3893 26.7315 Q 26.4852 27.2451, 26.4472 27.8017 Q 26.6598 28.2011, 27.4165 26.8982 ZM 10.5554 27.4041 Q 10.2253 26.7523, 9.75021 26.2524 Q 9.25025 25.7489, 8.74893 25.2468 Q 8.24806 24.7465, 7.74923 24.2489 Q 7.25089 23.7513, 6.75278 23.2551 Q 6.25179 22.7627, 5.55393 22.1765 Q 5.20056 22.6702, 5.75257 23.2498 Q 6.24971 23.7498, 6.74967 24.2507 Q 7.25035 24.7514, 7.75031 25.2506 Q 8.24948 25.749, 8.74944 26.2463 Q 9.26785 26.7474, 9.81744 27.161 ZM 27.669 24.1328 Q 28.2192 23.0254, 28.4477 22.2173 Q 27.7932 23.2322, 27.669 24.1328 ZM 5.36915 21.7916 Q 5.21063 21.0001, 4.57627 20.2084 Q 4.78467 20.9999, 5.36915 21.7916 ZM 28.6597 21.8038 Q 29.251 21.2476, 29.7563 20.7473 Q 30.3 20.2176, 31.0026 19.6195 Q 31.2774 19.2292, 31.738 18.7564 Q 32.2018 18.2549, 32.3806 17.6372 Q 31.6483 17.7491, 31.0096 18.2068 Q 30.1922 18.316, 29.8199 18.5869 Q 29.206 19.4269, 29.1985 20.0522 Q 28.7896 20.961, 28.6597 21.8038 ZM 3.32871 20.7765 Q 3.51802 20.2411, 3.77689 19.8026 Q 4.37634 19.8397, 4.4908 19.2401 Q 4.49981 18.7491, 4.50058 18.2505 Q 4.50052 17.7505, 4.5113 17.2721 Q 4.67448 16.8626, 4.51337 16.2678 Q 4.43985 15.7852, 3.79403 14.7703 Q 3.68264 13.8776, 3.53497 13.2705 Q 3.6203 12.792, 3.7886 11.9938 Q 4.34464 11.2076, 4.21292 10.7982 Q 3.74309 10.779, 3.253 11.258 Q 2.80307 11.7678, 2.23769 12.974 Q 1.5857 13.7854, 1.51094 14.2993 Q 1.53133 14.8054, 2.21861 15.2704 Q 2.46169 16.1803, 2.46395 16.7431 Q 2.22087 17.2013, 1.55248 17.2181 Q 1.78179 18.0023, 2.30718 18.7779 Q 2.51843 18.2402, 2.77817 17.8219 Q 3.21664 18.0385, 3.43436 18.7166 Q 3.2178 19.2012, 2.52944 19.2166 Q 2.77966 19.9981, 3.32871 20.7765 Z"
id="path15" 
inkscape:connector-curvature="0" sodipodi:nodetypes="cccccccccc" />
<path 
 style="fill:#ffffff; fill-opacity:1,fill-rule:evenodd;stroke:#ffffff;stroke-width:0.1;stroke-linecap:butt;stroke-linejoin:miter;stroke-opacity:1"
d="M 14.5864 55.4121 Q 14.2222 54.7478, 13.7439 54.2478 Q 13.2482 53.7721, 12.6058 53.4162 Q 12.7814 54.001, 13.2811 54.7189 Q 14.0019 55.2208, 14.5864 55.4121 ZM 17.246 54.2089 Q 17.7452 53.7504, 18.2484 53.2505 Q 18.7493 52.7496, 19.2496 52.2497 Q 19.7496 51.7465, 20.2673 51.1937 Q 20.2063 50.7944, 19.8072 50.741 Q 19.1966 51.1702, 18.7328 51.7585 Q 18.2498 52.2498, 17.7446 52.7497 Q 17.2446 53.2001, 16.7395 53.2001 Q 15.7205 52.52, 15.2547 52.5309 Q 14.8302 52.7362, 14.8077 53.1714 Q 15.981 53.755, 16.7989 54.2893 ZM 21.5169 49.351 Q 21.2217 48.7999, 20.8281 48.7999 Q 21.221 49.3583, 21.5169 49.351 ZM 20.2209 48.1961 Q 20.4668 47.746, 20.4942 47.2425 Q 20.4976 46.7446, 20.5043 46.2679 Q 20.5759 45.8786, 20.5111 45.2814 Q 20.5023 44.7542, 20.5006 44.2507 Q 20.5003 43.7504, 20.5006 43.251 Q 20.5023 42.7528, 20.5107 42.2518 Q 20.5745 41.8359, 20.475 41.2474 Q 20.2225 40.7999, 19.7789 40.7999 Q 19.533 41.2541, 19.5059 41.7578 Q 19.5034 42.2583, 19.5022 42.7571 Q 19.4956 43.2275, 19.423 43.5415 Q 19.4901 44.2969, 19.4949 44.8031 Q 19.4838 45.2736, 19.4933 45.747 Q 19.4763 46.217, 19.4128 46.7573 Q 19.4959 47.2598, 19.5162 47.7484 Q 19.6212 48.1404, 20.2209 48.1961 ZM 21.6007 40.1581 Q 21.1697 39.6163, 20.7833 39.5524 Q 21.0227 40.1979, 21.6007 40.1581 ZM 20.5924 38.3939 Q 20.5986 37.8167, 20.7861 36.9676 Q 21.2467 36.0135, 21.7467 35.0408 Q 22.2801 34.2808, 23.0289 33.7511 Q 23.9782 33.2511, 24.7293 32.7785 Q 25.3404 32.539, 25.3477 32.1915 Q 24.7586 31.5617, 24.2586 31.5353 Q 23.7525 31.7716, 23.1686 32.2561 Q 22.6633 32.8268, 22.3167 33.1733 Q 21.6764 33.7467, 21.2324 34.2616 Q 20.7509 34.7492, 20.259 35.2452 Q 19.7824 35.7465, 19.5149 36.2396 Q 19.2884 36.7955, 19.4717 37.21 Q 19.556 37.7475, 20.0898 38.2592 ZM 13.8312 32.6415 Q 14.1536 32.708, 14.4884 32.246 Q 14.6531 31.8122, 14.6539 31.4647 Q 14.5226 30.7615, 14.6676 30.176 Q 14.7861 29.7527, 15.1263 29.383 Q 15.1223 28.2829, 14.7999 28.2091 Q 14.7999 27.7896, 15.1428 27.7001 Q 15.5037 27.2312, 15.7725 26.7524 Q 16.2445 26.2635, 16.8346 25.7422 Q 17.2597 25.2597, 17.7432 24.8336 Q 18.2647 24.2444, 18.7535 23.7843 Q 19.3968 23.5837, 19.1586 22.8015 Q 18.7733 22.5828, 18.2406 23.2503 Q 17.7486 23.753, 17.2466 24.2558 Q 16.7492 24.7514, 16.2639 25.2294 Q 15.7412 25.6781, 15.2624 26.1881 Q 14.7292 26.3814, 14.3195 26.8215 Q 14.2116 27.2121, 13.8242 27.3226 Q 13.5109 27.7526, 13.3291 28.1852 Q 13.4392 28.7991, 13.3676 29.1762 Q 13.4701 29.7979, 13.357 30.4216 Q 13.4917 30.7752, 13.5008 31.249 Q 13.4972 31.7494, 13.447 32.3889 ZM 34.1766 32.5414 Q 34.5199 32.3646, 33.7773 31.5901 Q 33.7982 32.0139, 34.1766 32.5414 ZM 34.6498 30.4454 Q 34.5462 29.783, 34.932 29.5662 Q 34.8546 29.1474, 34.8065 28.7533 Q 35.1877 28.2931, 35.4694 27.7468 Q 35.498 27.2492, 35.5203 26.7321 Q 35.6584 26.4937, 35.4942 25.7358 Q 35.3639 25.1965, 34.742 24.2766 Q 34.242 23.7999, 33.7545 23.7999 Q 33.2545 24.2403, 32.5509 24.7952 Q 32.3405 25.2106, 32.2086 26.002 Q 31.577 26.7883, 31.5393 27.2785 Q 31.7785 28.0015, 32.2517 28.7229 Q 32.8011 29.3138, 33.2778 29.7491 Q 34.0864 30.2728, 34.6498 30.4454 ZM 33.0189 28.2155 Q 32.6214 27.7896, 32.7892 27.0106 Q 33.2393 26.5605, 33.8071 26.572 Q 34.2191 26.7782, 34.4082 27.2098 Q 34.2126 27.974, 33.6164 28.3874 ZM 26.7904 25.6069 Q 27.444 25.1892, 27.5123 24.7332 Q 27.669 24.1328, 27.7932 23.2322 Q 28.4477 22.2173, 28.6597 21.8038 Q 28.7896 20.961, 29.1985 20.0522 Q 29.206 19.4269, 28.7212 19.824 Q 27.9913 20.7875, 27.2701 21.9414 Q 26.8475 22.4629, 26.3462 22.853 Q 26.3928 23.154, 26.4924 23.7569 Q 26.4919 24.2426, 26.3861 24.8365 Q 26.2816 25.1978, 26.7904 25.6069 ZM 5.20056 22.6702 Q 5.55393 22.1765, 5.36915 21.7916 Q 4.78467 20.9999, 4.57627 20.2084 Q 4.37634 19.8397, 3.77689 19.8026 Q 3.51802 20.2411, 3.32871 20.7765 Q 3.75474 21.2501, 4.2497 21.7495 Q 4.74966 22.2457, 5.20056 22.6702 ZM 23.7531 21.1782 Q 23.9347 20.8216, 24.1947 20.2418 Q 23.9564 19.7594, 23.14 19.1765 Q 22.964 18.8229, 23.1975 18.2405 Q 22.957 17.7595, 22.1412 17.1771 Q 21.9642 16.8228, 22.2241 16.2388 Q 22.2125 15.7554, 21.8428 15.1817 Q 20.7271 14.7492, 19.4554 14.3125 Q 19.2211 14.491, 18.7755 14.5237 Q 18.3555 14.8185, 18.7406 15.2434 Q 19.2137 15.8132, 19.1964 16.1618 Q 18.9296 16.6256, 19.4495 16.7886 Q 19.3801 17.459, 19.851 17.6163 Q 20.2061 17.7811, 20.2599 18.1743 Q 20.4763 18.7645, 20.3863 19.4121 Q 20.8503 19.6141, 21.2193 19.7805 Q 21.3845 20.1508, 21.5583 20.6236 Q 22.2724 20.7875, 22.9713 21.199 ZM 3.2178 19.2012 Q 3.43436 18.7166, 3.21664 18.0385 Q 2.77817 17.8219, 2.51843 18.2402 Q 2.30718 18.7779, 2.52944 19.2166 ZM 2.22087 17.2013 Q 2.46395 16.7431, 2.46169 16.1803 Q 2.21861 15.2704, 1.53133 14.8054 Q 1.50531 15.2513, 1.50144 15.7516 Q 1.50004 16.2502, 1.50472 16.7499 Q 1.55248 17.2181, 2.22087 17.2013 ZM 31.671 15.4477 Q 31.0053 14.8038, 30.5034 14.8589 Q 31.2555 15.4323, 31.671 15.4477 ZM 27.8224 14.6808 Q 28.1768 14.6529, 28.7766 14.5972 Q 29.2468 14.4916, 29.5208 14.3792 Q 28.9728 13.7585, 28.1495 13.2213 Q 27.0422 12.7756, 26.2756 12.5305 Q 25.7361 12.5189, 25.2477 12.6125 Q 24.83 13.2203, 25.2486 13.4717 Q 25.8411 13.5603, 26.2289 13.547 Q 26.9873 13.7821, 27.4409 14.1807 ZM 19.6021 12.4207 Q 19.5828 11.8258, 19.4807 11.2465 Q 19.1745 10.5959, 18.8533 10.7012 Q 18.5317 11.2516, 18.4808 11.8208 Q 19.1595 12.32, 19.6021 12.4207 ZM 19.1583 9.41759 Q 19.2217 8.76119, 18.9633 8.17359 Q 18.8174 7.75516, 19.1983 7.2918 Q 19.7667 6.03321, 20.2319 5.56798 Q 20.8039 5.71884, 21.148 5.65145 Q 21.6503 5.44339, 21.1554 4.62407 Q 20.7204 4.54615, 19.8508 4.82913 Q 19.2638 5.20014, 18.7511 5.20014 Q 18.2511 4.78998, 17.8497 4.70969 Q 17.8321 5.46635, 18.2096 5.99317 Q 18.3633 6.83609, 18.2165 7.21524 Q 17.8534 7.34444, 17.4499 7.60906 Q 17.7745 8.24729, 18.2532 8.74724 Q 18.8354 9.302, 19.1583 9.41759 ZM 21.1969 8.21586 Q 21.1485 7.57319, 20.7901 7.55526 Q 20.8602 8.35304, 21.1969 8.21586 Z"
id="path16" 
inkscape:connector-curvature="0" sodipodi:nodetypes="cccccccccc" />
</svg>
