<?xml version="1.0" encoding="UTF-8" standalone="no"?>
<!-- Created BasicImageExporter --> 
 
<svg
xmlns:dc="http://purl.org/dc/elements/1.1/"
xmlns:cc="http://creativecommons.org/ns#"
xmlns:rdf="http://www.w3.org/1999/02/22-rdf-syntax-ns#"
xmlns:svg="http://www.w3.org/2000/svg"
xmlns="http://www.w3.org/2000/svg"
xmlns:sodipodi="http://sodipodi.sourceforge.net/DTD/sodipodi-0.dtd"
xmlns:inkscape="http://www.inkscape.org/namespaces/inkscape"
width="704px"
height="912px"
viewBox="0 0 44 57"
version="1.1"
id="svg3"
sodipodi:docname=""
inkscape:version="0.92.2 5c3e80d, 2017-08-06">
<metadata 
id="metadata9"> 
<rdf:RDF> 
<cc:Work 
rdf:about=""> 
<dc:format>image/svg+xml</dc:format> 
<dc:type 
rdf:resource="http://purl.org/dc/dcmitype/StillImage" /> 
<dc:title></dc:title> 
</cc:Work> 
</rdf:RDF> 
</metadata> 
<defs 
id="defs7" /> 
<sodipodi:namedview
pagecolor="#ffffff" 
bordercolor="#666666"
borderopacity="1"
objecttolerance="10"
gridtolerance="10" 
guidetolerance="10"
inkscape:pageopacity="0"
inkscape:pageshadow="2" 
inkscape:window-width="1250" 
inkscape:window-height="735"
id="namedview5" 
showgrid="false" 
inkscape:zoom="1"
inkscape:cx="352" 
inkscape:cy="456" 
inkscape:window-x="0" 
inkscape:window-y="0"
inkscape:window-maximized="0"
inkscape:current-layer="svg3" />
<path 
 style="fill:#5a636d; fill-opacity:1,fill-rule:evenodd;stroke:#5a636d;stroke-width:0.1;stroke-linecap:butt;stroke-linejoin:miter;stroke-opacity:1"
d="M 0,0 44,0 44,57 0,57 0,0 z "
id="path1" 
inkscape:connector-curvature="0" sodipodi:nodetypes="cccccccccc" />
<path 
 style="fill:#000000; fill-opacity:1,fill-rule:evenodd;stroke:#000000;stroke-width:0.1;stroke-linecap:butt;stroke-linejoin:miter;stroke-opacity:1"
d="M 17.2667,56.2004 18.0244,55.7422 18.9267,55.2423 19.1307,54.6725 18.7074,54.5664 17.9829,54.8582 16.8804,55.7131 16.8068,56.2025 17.2667,56.2004 z M 37.197,55.4188 37.1558,54.7895 36.7773,54.7993 36.5814,55.1393 37.197,55.4188 z M 38.8032,55.4369 39.1969,55.437 39.1567,54.7915 38.8442,54.7898 38.8032,55.4369 z M 42.2175,55.1961 42.4336,54.7161 42.2183,54.0515 41.6317,54.2345 41.5331,54.733 41.6253,55.141 42.2175,55.1961 z M 22.1805,54.4617 22.7429,54.4615 23.1668,54.2186 22.7337,53.7829 21.8202,53.5387 21.2571,53.5386 20.8332,53.7814 21.2752,54.221 22.1805,54.4617 z M 22.5404,51.4088 22.1509,50.6142 21.8663,50.7061 22.162,51.2965 22.5404,51.4088 z M 33.2051,38.4968 33.7494,38.4987 34.2511,38.4982 34.7526,38.4922 35.3254,38.4178 36.4826,37.7365 37.6441,36.8184 38.2113,36.2565 38.4951,35.7293 38.7707,34.9784 39.2786,33.9133 39.9774,32.2665 40.4443,30.8568 40.4956,30.2542 40.5,29.7502 40.4986,29.253 40.4956,28.7556 40.4765,28.2532 40.3092,27.8057 39.6985,27.844 39.5261,28.2534 39.5046,28.7558 39.5012,29.2525 39.4989,29.7477 39.497,30.2459 39.4935,30.7481 39.4633,31.2821 39.1521,32.1309 38.2372,33.7426 37.3031,35.1322 36.6969,35.7383 35.7558,36.2205 34.8146,36.4649 34.2121,36.4791 33.722,36.4668 33.0015,36.222 32.2359,35.6999 31.7516,35.2465 31.2516,34.7389 30.8277,34.2279 30.2479,33.7959 29.7877,33.8 29.6195,34.3318 30.2696,35.4886 31.1837,36.6486 31.7459,37.2409 32.2459,37.7491 32.8007,38.3607 33.2051,38.4968 z M 26.4719,21.2966 26.1584,20.629 25.8508,20.595 26.2137,21.3496 26.4719,21.2966 z M 25.5305,19.3711 25.1591,18.6289 24.8507,18.595 25.2565,19.4055 25.5305,19.3711 z M 24.5302,17.3709 24.1591,16.6289 23.8507,16.595 24.2557,17.4049 24.5302,17.3709 z M 28.1814,16.4622 28.7431,16.4637 29.1993,16.2206 29.196,15.7483 28.7174,15.1751 28.1768,14.6529 27.8224,14.6808 27.2638,15.2434 26.8395,15.7434 27.0254,16.1572 28.1814,16.4622 z M 23.5304,15.371 23.1593,14.6285 22.8533,14.5919 23.2546,15.4044 23.5304,15.371 z M 22.4905,13.3271 22.2214,12.7885 21.8662,12.6958 22.2559,13.4028 22.4905,13.3271 z M 19.4698,8.19745 19.7608,7.83763 20.2627,7.24343 20.7496,6.7449 21.2421,6.20546 21.148,5.65145 20.8039,5.71884 20.2524,6.2508 19.7507,6.74949 19.1983,7.2918 18.8174,7.75516 18.9633,8.17359 19.4698,8.19745 z M 18.2165,7.21524 18.3633,6.83609 17.7544,6.83772 17.8534,7.34444 18.2165,7.21524 z "
id="path2" 
inkscape:connector-curvature="0" sodipodi:nodetypes="cccccccccc" />
<path 
 style="fill:#5a636d; fill-opacity:1,fill-rule:evenodd;stroke:#5a636d;stroke-width:0.1;stroke-linecap:butt;stroke-linejoin:miter;stroke-opacity:1"
d="M 0.666667,56.6667 1.33333,56.3333 1.66667,56.6667 2.33333,56.3333 2.66667,56.6667 3.33333,56.3333 3.66667,56.6667 4.33333,56.3333 4.66667,56.6667 5.33333,56.3333 5.66667,56.6667 6.33333,56.3333 6.66667,56.6667 7.33333,56.3333 7.66667,56.6667 8.33333,56.3333 8.66667,56.6667 9.33333,56.3333 9.66667,56.6667 10.3333,56.3333 10.6667,56.6667 11.3333,56.3333 11.6667,56.6667 12.3333,56.3333 12.6667,56.6667 13.3333,56.6667 14,56.6667 14.6667,56.6667 14.2539,56.2216 13.3108,55.6898 12.7991,54.7879 12.7814,54.001 12.6058,53.4162 12.788,52.7932 13.1932,52.7283 13.7634,52.5153 14.2366,52.5153 14.8302,52.7362 15.2547,52.5309 15.7205,52.52 16.2495,52.4982 16.747,52.4712 17.2545,52.2243 17.7347,51.8254 18.1645,51.3411 18.7378,50.7563 19.1868,50.2557 19.209,49.7554 18.8296,49.1605 18.5698,48.786 18.6125,48.214 18.6134,47.629 18.5085,47.2238 18.4995,46.7509 18.4974,46.2562 18.4968,45.7548 18.4966,45.2517 18.4966,44.7483 18.4968,44.2453 18.498,43.7455 18.5061,43.2749 18.6053,42.9596 18.5122,42.1862 18.5074,41.6913 18.5427,41.2092 18.7192,40.7989 18.4571,40.2559 17.8211,39.9998 18.1972,39.7421 17.855,39.1593 17.5497,38.7609 17.5974,38.1751 17.7804,37.7948 18.1999,37.7454 18.7404,37.4663 18.536,36.7689 18.802,36.2455 18.8169,35.7428 19.2496,35.2732 19.6916,34.8116 20.2471,34.2519 20.7437,33.7537 21.2452,33.2516 21.7483,32.7484 22.2511,32.2463 22.7508,31.7483 23.3139,31.1901 23.7956,30.7382 24.1724,30.4697 24.7596,29.754 25.3723,29.1707 25.2188,28.7277 24.7839,28.0117 24.5735,27.2252 24.7854,26.7472 25.255,26.2472 25.7494,25.7478 26.2816,25.1978 26.3861,24.8365 25.5947,24.4179 24.5349,23.7518 23.3094,22.7662 22.757,22.2548 22.2474,21.7853 21.8306,21.6614 21.2453,22.2128 20.5774,22.3879 19.999,22.218 19.281,21.7203 18.753,20.9733 18.2591,20.0122 17.7846,19.0378 17.5404,18.2784 17.5854,17.8097 17.7849,17.0132 17.5141,16.7203 17.4737,16.2515 17.2252,15.7276 16.7728,15.0005 16.5008,14.2728 16.2555,13.7638 15.9821,13.2019 15.2818,12.7186 14.7843,12.0029 14.5907,11.2843 15.0173,10.789 15.8157,10.611 16.254,10.7805 16.7172,11.16 17.4505,11.2034 17.6244,10.7781 17.7795,10.5077 17.5357,9.76716 17.7514,9.2565 17.2521,8.72257 16.7848,8.00739 16.6441,7.46369 16.7934,6.84952 17.1604,6.26506 16.5539,6.20457 16.5542,5.79574 17.1694,5.73945 16.9015,5.171 16.5999,4.7822 16.7867,3.99222 17.2602,3.27899 17.7638,2.8061 18.7689,2.01672 18.3333,2 19,1.33333 18.3333,1.33333 17.6667,1.66667 17.3333,1.33333 16.6667,1.66667 16.3333,1.33333 15.6667,1.66667 15.3333,1.33333 14.6667,1.66667 14.3333,1.33333 13.6667,1.66667 13.3333,1.33333 12.6667,1.66667 12.3333,1.33333 11.6667,1.66667 11.3333,1.33333 10.6667,1.66667 10.3333,1.33333 9.66667,1.66667 9.33333,1.33333 8.66667,1.66667 8.33333,1.33333 7.66667,1.66667 7.33333,1.33333 6.66667,1.66667 6.33333,1.33333 5.66667,1.66667 5.33333,1.33333 4.66667,1.66667 4.33333,1.33333 3.66667,1.66667 3.33333,1.33333 2.66667,1.66667 2.33333,1.33333 1.66667,1.66667 1.33333,1.33333 0.666667,1.66667 0.333333,2.33333 0.666667,2.66667 0.333333,3.33333 0.666667,3.66667 0.333333,4.33333 0.666667,4.66667 0.333333,5.33333 0.666667,5.66667 0.333333,6.33333 0.666667,6.66667 0.333333,7.33333 0.666667,7.66667 0.333333,8.33333 0.666667,8.66667 0.333333,9.33333 0.666667,9.66667 0.333333,10.3333 0.666667,10.6667 0.333333,11.3333 0.666667,11.6667 0.333333,12.3333 0.333333,13 0.333333,13.6667 0.779275,13.244 1.25925,12.3026 1.82186,11.7187 2.73472,11.0465 3.74309,10.779 4.21292,10.7982 4.34464,11.2076 4.2088,12.0056 3.6203,12.792 3.53497,13.2705 3.68264,13.8776 4.21846,14.9726 4.43985,15.7852 4.51337,16.2678 4.67448,16.8626 5.25068,18.0012 5.75139,19.0017 6.25062,20.0009 6.74982,20.9997 7.25148,22.0013 7.75177,22.9771 8.24762,23.7206 8.74758,24.2449 9.24964,24.749 9.7496,25.2482 10.2536,25.749 10.7536,26.2202 11.2803,26.4399 12.1851,26.1689 12.9777,25.7767 13.7233,25.533 14.2133,25.5349 14.7505,25.4752 15.2469,25.2247 15.7469,24.7492 16.2486,24.2521 16.7949,23.7242 17.2782,23.2547 17.9931,22.785 18.7733,22.5828 19.1586,22.8015 19.7595,23.2746 20.2001,23.7556 20.2001,24.242 19.6692,24.8005 19.2781,25.1959 18.7473,25.7518 18.2509,26.2514 17.7489,26.7535 17.2492,27.2517 16.754,27.7421 16.1723,28.2839 15.841,28.7906 15.5621,29.7193 15.8097,30.2785 16.2509,30.7464 16.751,31.25 17.2489,31.75 17.749,32.2543 18.2134,32.7543 18.3346,33.1955 18.2071,33.9739 17.6538,34.2751 17.4832,34.759 17.2243,35.219 16.7178,35.4367 16.0173,35.2179 15.5435,34.7559 15.3334,34.186 14.6533,34.4245 14.0347,34.2181 13.7775,33.8049 13.1775,33.2824 12.6539,33.4287 12.0348,33.2186 11.7697,32.7981 11.2351,32.4906 10.7707,32.2258 10.3149,31.5194 9.51398,31.1855 9.00544,31.1992 8.59148,30.7148 8.78511,30.0151 9.24932,29.5496 9.77001,29.4373 9.23667,28.7491 8.74881,28.2491 8.25056,27.7497 7.75006,27.2497 7.2501,26.75 6.7499,26.25 6.24994,25.7503 5.74929,25.2504 5.2486,24.7497 4.74942,24.2497 4.25085,23.7504 3.7523,23.2505 3.25136,22.7461 2.72175,22.1896 2.00864,21.2304 1.28689,19.9553 0.781069,18.2927 0.333333,17 0.333333,17.6667 0.333333,18.3333 0.333333,19 0.333333,19.6667 0.333333,20.3333 0.666667,20.6667 0.333333,21.3333 0.666667,21.6667 0.333333,22.3333 0.666667,22.6667 0.333333,23.3333 0.666667,23.6667 0.333333,24.3333 0.666667,24.6667 0.333333,25.3333 0.666667,25.6667 0.333333,26.3333 0.666667,26.6667 0.333333,27.3333 0.666667,27.6667 0.333333,28.3333 0.666667,28.6667 0.333333,29.3333 0.666667,29.6667 0.333333,30.3333 0.666667,30.6667 0.333333,31.3333 0.666667,31.6667 0.333333,32.3333 0.666667,32.6667 0.333333,33.3333 0.666667,33.6667 0.333333,34.3333 0.666667,34.6667 0.333333,35.3333 0.666667,35.6667 0.333333,36.3333 0.666667,36.6667 0.333333,37.3333 0.666667,37.6667 0.333333,38.3333 0.666667,38.6667 0.333333,39.3333 0.666667,39.6667 0.333333,40.3333 0.666667,40.6667 0.333333,41.3333 0.666667,41.6667 0.333333,42.3333 0.666667,42.6667 0.333333,43.3333 0.666667,43.6667 0.333333,44.3333 0.666667,44.6667 0.333333,45.3333 0.666667,45.6667 0.333333,46.3333 0.666667,46.6667 0.333333,47.3333 0.666667,47.6667 0.333333,48.3333 0.666667,48.6667 0.333333,49.3333 0.666667,49.6667 0.333333,50.3333 0.666667,50.6667 0.333333,51.3333 0.666667,51.6667 0.333333,52.3333 0.666667,52.6667 0.333333,53.3333 0.666667,53.6667 0.333333,54.3333 0.666667,54.6667 0.333333,55.3333 0.666667,55.6667 0.333333,56.3333 0.666667,56.6667 z M 17.6667,56.6667 18.3333,56.3333 18.6667,56.6667 19.3333,56.3333 19.6667,56.6667 20.3333,56.3333 20.6667,56.6667 21.3333,56.3333 21.6667,56.6667 22.3333,56.3333 22.6667,56.6667 23.3333,56.3333 23.6667,56.6667 24.3333,56.3333 24.6667,56.6667 25.3333,56.3333 25.6667,56.6667 26.3333,56.3333 26.6667,56.6667 27.3333,56.3333 27.6667,56.6667 28.3333,56.3333 28.6667,56.6667 29.3333,56.3333 29.6667,56.6667 30.3333,56.3333 30.6667,56.6667 31.3333,56.3333 31.6667,56.6667 32.3333,56.3333 32.6667,56.6667 33.3333,56.3333 33.6667,56.6667 34.3333,56.3333 34.6667,56.6667 35.3333,56.3333 35.6667,56.6667 36.3333,56.3333 36.6667,56.6667 37.3333,56.3333 37.6667,56.6667 38.3333,56.3333 38.6667,56.6667 39.3333,56.3333 39.6667,56.6667 40.3333,56.3333 40.6667,56.6667 41.3333,56.3333 41.6667,56.6667 42.3333,56.3333 42.6667,55.6667 42.2175,55.1961 41.6253,55.141 41.2275,55.4753 40.7565,55.4913 40.1753,55.4076 39.7559,55.2335 39.1567,54.7915 39.1969,55.437 38.8032,55.4369 38.8442,54.7898 38.2462,55.2079 37.7536,55.2075 37.1558,54.7895 37.197,55.4188 36.5814,55.1393 36.0029,55.1967 35.5913,54.715 35.785,54.0149 36.2857,53.5142 37.0871,53.0902 38.1549,52.2829 38.4881,51.7327 38.6965,51.123 38.5117,50.7267 38.4988,50.25 38.4986,49.7499 38.5098,49.2697 38.6625,48.8357 38.5009,48.3638 38.2323,47.7545 37.7588,47.1492 37.4287,46.818 36.7506,46.2424 36.2507,45.7503 35.749,45.2504 35.2471,44.7491 34.7498,44.2502 34.1727,43.6633 33.7885,43.1819 33.6717,42.8255 33.4705,42.2463 32.7721,42.203 32.27,41.4677 31.791,40.7599 31.6245,39.78 31.6033,39.44 31.2433,38.7575 30.8153,38.1563 30.2715,37.7521 29.7558,37.2521 29.2515,36.7462 28.7228,36.1918 27.9911,35.2139 27.2683,34.0683 26.7527,33.5474 26.2052,33.3962 25.8202,33.5906 25.217,34.172 24.7343,34.7575 24.25,35.2497 23.7518,35.7496 23.251,36.2504 22.7565,36.7375 22.1719,37.226 21.7602,37.7183 21.1599,38.1979 20.5924,38.3939 20.0898,38.2592 19.7517,38.5046 19.7535,39.4941 20.0919,39.7254 20.7833,39.5524 21.1697,39.6163 21.7632,39.5631 22.2134,40.0133 22.417,40.8102 22.4729,41.2036 22.4929,41.7607 22.476,42.2397 22.4987,42.7545 22.5009,43.2486 22.5009,43.7486 22.5016,44.2478 22.5022,44.7489 22.5016,45.2506 22.501,45.7505 22.5016,46.2511 22.5019,46.7527 22.4991,47.2464 22.4761,47.7564 22.4936,48.2401 22.4808,48.7953 22.4818,49.2012 22.4967,49.7516 22.4758,50.2275 22.1509,50.6142 22.5404,51.4088 23.2142,52.2598 23.4156,53.1298 23.0865,53.2626 22.2214,53.2117 22.7337,53.7829 23.1668,54.2186 22.7429,54.4615 22.1805,54.4617 21.2752,54.221 21.2042,54.4846 20.7482,54.4988 20.2493,54.4829 19.5093,54.2349 19.1307,54.6725 18.9267,55.2423 18.0244,55.7422 17.2667,56.2004 17.6667,56.6667 z M 42.6667,51 42.6667,50.3333 42.6667,49.6667 42.6667,49 42.6667,48.3333 42.6667,47.6667 42.3333,47.3333 42.6667,46.6667 42.3333,46.3333 42.6667,45.6667 42.3333,45.3333 42.6667,44.6667 42.3333,44.3333 42.6667,43.6667 42.3333,43.3333 42.6667,42.6667 42.3333,42.3333 42.6667,41.6667 42.3333,41.3333 42.6667,40.6667 42.3333,40.3333 42.6667,39.6667 42.3333,39.3333 42.6667,38.6667 42.3333,38.3333 42.6667,37.6667 42.3333,37.3333 42.6667,36.6667 42.3333,36.3333 42.6667,35.6667 42.3333,35.3333 42.6667,34.6667 42.3333,34.3333 42.6667,33.6667 42.3333,33.3333 42.6667,32.6667 42.3333,32.3333 42.6667,31.6667 42.3333,31.3333 42.6667,30.6667 42.3333,30.3333 42.6667,29.6667 42.3333,29.3333 42.6667,28.6667 42.3333,28.3333 42.6667,27.6667 42.3333,27.3333 42.6667,26.6667 42.3333,26.3333 42.6667,25.6667 42.3333,25.3333 42.6667,24.6667 42.3333,24.3333 42.6667,23.6667 42.3333,23.3333 42.6667,22.6667 42.3333,22.3333 42.6667,21.6667 42.3333,21.3333 42.6667,20.6667 42.3333,20.3333 42.6667,19.6667 42.3333,19.3333 42.6667,18.6667 42.3333,18.3333 42.6667,17.6667 42.3333,17.3333 42.6667,16.6667 42.3333,16.3333 42.6667,15.6667 42.3333,15.3333 42.6667,14.6667 42.3333,14.3333 42.6667,13.6667 42.3333,13.3333 42.6667,12.6667 42.3333,12.3333 42.6667,11.6667 42.3333,11.3333 42.6667,10.6667 42.3333,10.3333 42.6667,9.66667 42.3333,9.33333 42.6667,8.66667 42.3333,8.33333 42.6667,7.66667 42.3333,7.33333 42.6667,6.66667 42.3333,6.33333 42.6667,5.66667 42.3333,5.33333 42.6667,4.66667 42.3333,4.33333 42.6667,3.66667 42.3333,3.33333 42.6667,2.66667 42.3333,2.33333 42.6667,1.66667 42.3333,1.33333 41.6667,1.66667 41.3333,1.33333 40.6667,1.66667 40.3333,1.33333 39.6667,1.66667 39.3333,1.33333 38.6667,1.66667 38.3333,1.33333 37.6667,1.66667 37.3333,1.33333 36.6667,1.66667 36.3333,1.33333 35.6667,1.66667 35.3333,1.33333 34.6667,1.66667 34.3333,1.33333 33.6667,1.66667 33.3333,1.33333 32.6667,1.66667 32.3333,1.33333 31.6667,1.66667 31.3333,1.33333 30.6667,1.66667 30.3333,1.33333 29.6667,1.66667 29.3333,1.33333 28.6667,1.66667 28.3333,1.33333 27.6667,1.66667 27.3333,1.33333 26.6667,1.66667 26.3333,1.33333 25.6667,1.66667 25.3333,1.33333 24.6667,1.66667 24.3333,1.33333 23.6667,1.66667 23.3333,1.33333 22.6667,1.33333 22,1.33333 21.3333,1.33333 22.6667,2 22.2824,2.03297 23.8667,2.71639 24.7175,3.25738 25.2796,3.81658 25.9783,4.75782 26.4436,5.69866 26.4921,6.24714 26.4732,6.7471 26.2393,7.26083 25.7294,8.48936 24.8185,9.64442 24.2558,10.2204 23.4784,10.7521 23.2306,11.2558 23.4653,11.7677 23.2585,12.4603 23.757,12.4942 24.2512,12.4992 24.8281,12.5091 25.2477,12.6125 25.7361,12.5189 26.2756,12.5305 27.0422,12.7756 28.1495,13.2213 30.1953,13.991 31.8082,14.7132 32.1687,15.2153 31.671,15.4477 31.2555,15.4323 30.627,15.3925 30.2261,15.4916 29.7359,15.4846 30.1969,16.2389 30.0238,16.7852 30.817,16.5856 31.2789,16.5408 31.9984,16.7788 32.6011,17.1941 33.2765,17.5067 33.9597,17.7765 34.246,18.2335 34.7677,18.4829 35.2414,18.5091 35.7358,18.6226 36.2458,18.7846 36.7458,19.2514 37.2534,19.7582 37.7534,20.2835 38.2566,21.0466 38.8179,22.1732 39.7383,24.2573 40.418,26.0769 40.4878,26.7165 40.4836,27.2306 40.3092,27.8057 40.4765,28.2532 40.4956,28.7556 40.4986,29.253 40.5,29.7502 40.4956,30.2542 40.4443,30.8568 39.9774,32.2665 39.2786,33.9133 38.7707,34.9784 38.4951,35.7293 38.2113,36.2565 37.6441,36.8184 36.4826,37.7365 35.3254,38.4178 34.7526,38.4922 34.7358,39.5035 35.2009,39.776 35.2084,40.1981 35.7896,40.7986 36.2447,40.7997 36.7446,41.2501 37.2513,41.75 37.7594,42.254 38.3477,42.8138 39.5282,43.7484 40.6887,44.4886 41.218,45.0179 41.4371,45.718 41.2192,46.2247 40.7392,46.4913 40.796,47.2458 41.2432,47.7457 41.7432,48.3332 42.219,49.7093 42.6667,51 z M 26.3928,23.154 26.3462,22.853 25.8428,22.7311 25.8032,23.1972 26.3928,23.154 z M 24.2006,21.4813 24.7511,21.5002 25.1823,21.5005 25.728,21.4894 26.2137,21.3496 25.8508,20.595 25.2348,20.5113 24.7127,20.5334 23.9347,20.8216 23.7531,21.1782 24.2006,21.4813 z M 21.3845,20.1508 21.2193,19.7805 20.8503,19.6141 20.803,20.197 21.3845,20.1508 z M 24.1818,19.464 24.7328,19.4896 25.2565,19.4055 24.8507,18.595 24.2343,18.5116 23.7104,18.5355 22.964,18.8229 23.14,19.1765 24.1818,19.464 z M 27.1545,19.3014 27.1966,18.7733 26.844,18.5315 26.8159,19.4715 27.1545,19.3014 z M 23.1749,17.4645 23.7227,17.4884 24.2557,17.4049 23.8507,16.595 23.2343,16.5116 22.7104,16.5355 21.9642,16.8228 22.1412,17.1771 23.1749,17.4645 z M 26.1545,17.3014 26.1966,16.7733 25.844,16.5315 25.8159,17.4715 26.1545,17.3014 z M 22.7072,15.4661 23.2546,15.4044 22.8533,14.5919 22.2488,14.451 21.8001,14 21.7972,13.5487 22.2559,13.4028 21.8662,12.6958 21.2435,12.5089 20.7251,12.4519 20.1998,12.465 19.6021,12.4207 19.1595,12.32 18.7426,12.4974 19.9989,13.232 20.732,13.5318 21.1984,13.9983 21.1906,14.4445 20.7854,14.5105 20.7271,14.7492 21.8428,15.1817 22.7072,15.4661 z "
id="path3" 
inkscape:connector-curvature="0" sodipodi:nodetypes="cccccccccc" />
<path 
 style="fill:#636363; fill-opacity:1,fill-rule:evenodd;stroke:#636363;stroke-width:0.1;stroke-linecap:butt;stroke-linejoin:miter;stroke-opacity:1"
d="M 15.1831,56.4682 15.7341,56.4938 16.2267,56.4795 16.8068,56.2025 16.8804,55.7131 17.9829,54.8582 16.9059,55.2645 16.2823,55.4711 15.7606,55.4929 15.1968,55.4679 14.5864,55.4121 14.0019,55.2208 13.2811,54.7189 12.7814,54.001 12.7991,54.7879 13.3108,55.6898 14.2539,56.2216 15.1831,56.4682 z M 20.2493,54.4829 20.7482,54.4988 21.2042,54.4846 21.2752,54.221 20.8332,53.7814 21.2571,53.5386 21.8202,53.5387 22.7337,53.7829 22.2214,53.2117 21.2903,52.8001 20.7517,52.7967 20.1544,53.246 19.7727,53.7408 19.5093,54.2349 20.2493,54.4829 z M 41.6317,54.2345 42.2183,54.0515 42.481,53.7096 42.4974,53.2418 42.5003,52.7507 42.5002,52.2509 42.496,51.7385 42.4654,51.1151 42.219,49.7093 41.7432,48.3332 41.2432,47.7457 40.796,47.2458 40.7392,46.4913 40.2315,46.6068 39.441,47.3968 39.8471,47.6219 40.1939,47.7534 40.7549,48.2638 41.2105,48.7541 41.3016,49.1829 41.4882,49.7617 41.5013,50.2513 41.5017,50.7522 41.4938,51.2308 41.3936,51.641 41.4804,52.2173 41.4455,52.8085 41.4266,53.3796 41.4335,53.7313 41.6317,54.2345 z M 33.4705,42.2463 33.2202,41.8399 32.27,41.4677 32.7721,42.203 33.4705,42.2463 z M 35.6044,41.4441 35.7896,40.7986 35.2084,40.1981 34.482,40.3223 34.5227,40.6786 35.212,41.3569 35.6044,41.4441 z M 18.4571,40.2559 18.1972,39.7421 17.8211,39.9998 18.4571,40.2559 z M 19.7535,39.4941 19.7517,38.5046 19.2817,38.8115 19.2818,39.169 19.7535,39.4941 z M 34.7358,39.5035 34.7526,38.4922 34.2511,38.4982 33.7494,38.4987 33.2051,38.4968 34.0202,39.2257 34.7358,39.5035 z M 19.4717,37.21 19.2884,36.7955 18.802,36.2455 18.536,36.7689 18.7404,37.4663 19.4717,37.21 z M 20.2599,18.1743 20.2061,17.7811 19.851,17.6163 19.8684,18.3454 20.2599,18.1743 z M 29.1756,18.4554 29.4914,17.7613 29.7251,17.1797 30.0238,16.7852 30.1969,16.2389 29.7359,15.4846 28.7174,15.1751 29.196,15.7483 29.1993,16.2206 28.7431,16.4637 28.1814,16.4622 27.0254,16.1572 27.9586,16.7566 28.274,17.1842 28.5073,17.7616 28.8015,18.4327 29.1756,18.4554 z M 17.7849,17.0132 18.2673,16.5324 19.1964,16.1618 19.2137,15.8132 18.0388,15.2389 17.5657,14.7658 17.6718,14.1731 17.7876,13.7999 18.2914,13.7999 19.4554,14.3125 20.7271,14.7492 20.7854,14.5105 21.1906,14.4445 21.1984,13.9983 20.732,13.5318 19.9989,13.232 18.7426,12.4974 18.251,12.5052 17.718,12.5362 16.8307,12.867 16.483,13.2003 15.9821,13.2019 16.2555,13.7638 16.5008,14.2728 16.7728,15.0005 17.2252,15.7276 17.4737,16.2515 17.5141,16.7203 17.7849,17.0132 z M 25.1543,15.3017 25.1966,14.7729 24.8463,14.5285 24.816,15.4715 25.1543,15.3017 z M 23.2585,12.4603 23.4653,11.7677 23.2306,11.2558 22.7999,11.7538 22.7999,12.2204 23.2585,12.4603 z M 18.1379,10.2918 18.1379,9.68862 17.7514,9.2565 17.5357,9.76716 17.7795,10.5077 18.1379,10.2918 z M 20.4526,10.2819 20.1559,9.65168 19.8676,9.65362 20.1441,10.2797 20.4526,10.2819 z M 22.465,10.1955 22.7695,9.79986 23.2216,9.79986 23.4672,10.2544 23.4784,10.7521 24.2558,10.2204 24.8185,9.64442 25.7294,8.48936 26.2393,7.26083 25.7493,7.74958 25.2482,8.25056 24.744,8.75052 24.245,9.20014 23.7871,9.20014 23.5877,8.581 23.1702,8.48923 22.6717,8.81768 22.2916,9.18894 21.8167,9.74606 21.8664,10.1483 22.465,10.1955 z M 17.1604,6.26506 17.1694,5.73945 16.5542,5.79574 16.5539,6.20457 17.1604,6.26506 z "
id="path4" 
inkscape:connector-curvature="0" sodipodi:nodetypes="cccccccccc" />
<path 
 style="fill:#6b4a21; fill-opacity:1,fill-rule:evenodd;stroke:#6b4a21;stroke-width:0.1;stroke-linecap:butt;stroke-linejoin:miter;stroke-opacity:1"
d="M 32.2387,38.4662 32.8007,38.3607 32.2459,37.7491 31.7459,37.2409 31.1837,36.6486 30.2696,35.4886 29.6195,34.3318 29.7877,33.8 30.2479,33.7959 30.8277,34.2279 30.1915,32.866 29.8244,32.1546 28.971,31.179 28.263,30.0962 27.5257,30.7666 27.4816,31.2245 27.5003,31.7505 27.5048,32.2439 27.5289,32.7464 27.7753,33.2697 28.2737,34.0433 28.9963,35.219 29.7226,36.1919 30.2506,36.7466 30.7505,37.2506 31.243,37.7506 31.6358,38.2065 32.2387,38.4662 z M 16.7178,35.4367 17.2243,35.219 17.4832,34.759 17.6538,34.2751 17.2376,33.7751 16.7553,33.5198 16.1526,33.3762 15.7521,33.7533 15.3334,34.186 15.5435,34.7559 16.0173,35.2179 16.7178,35.4367 z M 10.3149,31.5194 10.6468,31.1609 10.7843,30.778 11.2543,30.5324 11.7202,30.5144 12.2238,30.4747 12.4973,30.2258 12.7715,29.7554 13.3676,29.1762 13.4392,28.7991 12.734,28.7997 11.9648,29.2692 10.2856,30.2703 9.78951,30.7415 9.51398,31.1855 10.3149,31.5194 z M 10.1735,29.2418 10.4425,28.2784 10.2343,27.7567 9.81744,27.161 9.26785,26.7474 8.74944,26.2463 8.24948,25.749 7.75031,25.2506 7.25035,24.7514 6.74967,24.2507 6.24971,23.7498 5.75257,23.2498 5.20056,22.6702 4.74966,22.2457 4.2497,21.7495 3.75474,21.2501 3.32871,20.7765 2.77966,19.9981 2.52944,19.2166 2.30718,18.7779 1.78179,18.0023 1.55248,17.2181 1.50472,16.7499 1.50004,16.2502 1.50144,15.7516 1.50531,15.2513 1.53133,14.8054 1.51094,14.2993 0.505809,14.78 0.503596,15.2517 0.50361,15.7555 0.506153,16.2666 0.535368,16.8872 0.781069,18.2927 1.28689,19.9553 2.00864,21.2304 2.72175,22.1896 3.25136,22.7461 3.7523,23.2505 4.25085,23.7504 4.74942,24.2497 5.2486,24.7497 5.74929,25.2504 6.24994,25.7503 6.7499,26.25 7.2501,26.75 7.75006,27.2497 8.25056,27.7497 8.74881,28.2491 9.23667,28.7491 9.77001,29.4373 10.1735,29.2418 z M 39.6985,27.844 40.3092,27.8057 40.4836,27.2306 40.4878,26.7165 40.418,26.0769 39.7383,24.2573 38.8179,22.1732 38.2566,21.0466 37.7534,20.2835 37.2534,19.7582 36.7458,19.2514 36.2458,18.7846 35.7358,18.6226 35.5232,19.2548 35.531,19.7548 35.7808,20.2523 36.2267,20.7337 36.5349,21.1933 37.2065,21.7312 37.7441,22.2782 38.1799,22.9332 38.7556,24.0198 39.2236,24.9765 39.469,25.7236 39.4854,26.26 39.4134,26.7749 39.5064,27.2486 39.6985,27.844 z "
id="path5" 
inkscape:connector-curvature="0" sodipodi:nodetypes="cccccccccc" />
<path 
 style="fill:#7b7b7b; fill-opacity:1,fill-rule:evenodd;stroke:#7b7b7b;stroke-width:0.1;stroke-linecap:butt;stroke-linejoin:miter;stroke-opacity:1"
d="M 15.2003,54.2001 15.2087,53.7542 14.8077,53.1714 14.8302,52.7362 14.2366,52.5153 13.7634,52.5153 13.1932,52.7283 13.7469,53.2498 14.2555,53.7498 14.7554,54.2001 15.2003,54.2001 z M 23.0865,53.2626 22.3924,52.8086 21.857,52.2501 21.2483,51.8003 20.5806,51.8545 20.4048,52.181 20.1544,53.246 20.7517,52.7967 21.2903,52.8001 22.2214,53.2117 23.0865,53.2626 z M 41.4938,51.2308 41.5017,50.7522 41.5013,50.2513 41.4882,49.7617 41.3016,49.1829 40.7833,49.7524 40.6323,50.193 41.3936,51.641 41.4938,51.2308 z M 38.6965,51.123 39.1478,50.3815 39.1962,49.7335 38.6625,48.8357 38.5098,49.2697 38.4986,49.7499 38.4988,50.25 38.5117,50.7267 38.6965,51.123 z M 18.6134,47.629 19.4763,46.217 19.4933,45.747 19.4838,45.2736 18.6053,42.9596 18.5061,43.2749 18.498,43.7455 18.4968,44.2453 18.4966,44.7483 18.4966,45.2517 18.4968,45.7548 18.4974,46.2562 18.4995,46.7509 18.5085,47.2238 18.6134,47.629 z M 39.441,47.3968 40.2315,46.6068 38.9299,46.8278 38.5525,47.1389 39.441,47.3968 z M 32.27,41.4677 33.2202,41.8399 32.858,41.1598 32.5556,40.6647 32.5056,40.3157 31.6245,39.78 31.791,40.7599 32.27,41.4677 z M 18.7192,40.7989 19.2786,40.2546 20.0919,39.7254 19.7535,39.4941 19.2818,39.169 18.7969,39.4011 17.855,39.1593 18.1972,39.7421 18.4571,40.2559 18.7192,40.7989 z M 35.2084,40.1981 35.2009,39.776 34.7358,39.5035 34.0202,39.2257 33.2051,38.4968 32.8007,38.3607 32.2387,38.4662 31.6358,38.2065 30.8153,38.1563 31.2433,38.7575 31.6033,39.44 32.2383,39.5086 32.8268,39.7033 33.2123,39.5742 33.9824,39.7853 34.482,40.3223 35.2084,40.1981 z M 19.2817,38.8115 19.7517,38.5046 20.0898,38.2592 19.556,37.7475 19.4717,37.21 18.7404,37.4663 18.1999,37.7454 18.6632,38.1939 19.2817,38.8115 z M 22.7565,36.7375 23.251,36.2504 23.7518,35.7496 24.25,35.2497 24.7343,34.7575 25.217,34.172 23.7735,34.83 23.2627,35.2626 22.8315,35.7706 22.1719,37.226 22.7565,36.7375 z M 13.7775,33.8049 14.1962,33.2521 14.1536,32.708 13.8312,32.6415 13.1775,33.2824 13.7775,33.8049 z M 11.2351,32.4906 11.7697,32.7981 12.2082,32.252 12.2771,31.8284 11.7502,31.5284 11.2503,31.4745 10.6468,31.1609 10.3149,31.5194 10.7707,32.2258 11.2351,32.4906 z M 26.4138,31.1849 26.2232,30.6594 25.8439,30.3633 25.8021,30.976 26.4138,31.1849 z M 27.1968,20.9808 27.1456,20.4968 26.6879,20.5083 26.1584,20.629 26.4719,21.2966 27.1968,20.9808 z M 26.1769,19.4883 26.8159,19.4715 26.844,18.5315 26.1773,18.4601 25.6875,18.5051 25.1591,18.6289 25.5305,19.3711 26.1769,19.4883 z M 28.8015,18.4327 28.5073,17.7616 28.274,17.1842 27.8229,17.7546 28.0368,18.2139 28.8015,18.4327 z M 29.8199,18.5869 30.1922,18.316 30.3024,17.8178 29.7251,17.1797 29.4914,17.7613 29.1756,18.4554 29.8199,18.5869 z M 25.1768,17.4883 25.8159,17.4715 25.844,16.5315 25.1773,16.4601 24.6875,16.5051 24.1591,16.6289 24.5302,17.3709 25.1768,17.4883 z M 24.1769,15.4883 24.816,15.4715 24.8463,14.5285 24.151,14.4025 23.7571,14.4964 23.1593,14.6285 23.5304,15.371 24.1769,15.4883 z M 26.5295,14.3554 26.2289,13.547 25.8411,13.5603 26.0433,14.2139 26.5295,14.3554 z M 24.245,9.20014 24.744,8.75052 25.2482,8.25056 25.7493,7.74958 26.2393,7.26083 26.4732,6.7471 26.4921,6.24714 26.4436,5.69866 25.9783,4.75782 25.2796,3.81658 24.7175,3.25738 23.8667,2.71639 22.2824,2.03297 20.8199,1.62648 21.9796,2.24183 23.0458,2.83901 23.7154,3.26619 24.1719,3.79011 24.9868,4.7766 25.4353,5.69697 25.4352,6.30308 24.979,7.23886 24.2821,8.15696 23.5877,8.581 23.7871,9.20014 24.245,9.20014 z M 19.7608,7.83763 20.7901,7.55526 21.1485,7.57319 21.5222,7.33779 21.597,6.85113 21.2421,6.20546 20.7496,6.7449 20.2627,7.24343 19.7608,7.83763 z M 16.7934,6.84952 17.7544,6.83772 18.3633,6.83609 18.2096,5.99317 17.8321,5.46635 16.9015,5.171 17.1694,5.73945 17.1604,6.26506 16.7934,6.84952 z "
id="path6" 
inkscape:connector-curvature="0" sodipodi:nodetypes="cccccccccc" />
<path 
 style="fill:#8c633a; fill-opacity:1,fill-rule:evenodd;stroke:#8c633a;stroke-width:0.1;stroke-linecap:butt;stroke-linejoin:miter;stroke-opacity:1"
d="M 34.8146,36.4649 35.7558,36.2205 36.6969,35.7383 37.3031,35.1322 38.2372,33.7426 39.1521,32.1309 39.4633,31.2821 39.4935,30.7481 39.497,30.2459 39.4989,29.7477 39.5012,29.2525 39.5046,28.7558 39.5261,28.2534 39.6985,27.844 39.5064,27.2486 39.4134,26.7749 38.7499,28.5654 38.25,30.4378 37.6887,31.999 36.7483,33.4719 35.8135,34.6528 35.2539,35.2419 34.7617,35.7498 34.2121,36.4791 34.8146,36.4649 z M 29.8244,32.1546 29.5272,31.2791 29.5016,30.7529 29.4993,30.2483 29.498,29.7445 29.4935,29.2255 29.4615,28.6789 28.7332,26.6 28.2333,26.5999 27.5423,28.6602 27.5068,29.2241 27.5021,29.7442 27.5027,30.2426 27.5257,30.7666 28.263,30.0962 28.971,31.179 29.8244,32.1546 z M 36.4408,31.2001 36.4408,30.7999 36.0333,30.7999 36.0333,31.2001 36.4408,31.2001 z M 35.459,29.1956 35.707,28.7893 35.1877,28.2931 34.8065,28.7533 34.8546,29.1474 35.459,29.1956 z M 33.6164,28.3874 33.7868,27.7618 34.4082,27.2098 34.2191,26.7782 33.8071,26.572 33.2413,27.243 32.6214,27.7896 33.0189,28.2155 33.6164,28.3874 z M 36.4402,27.2154 36.2219,26.7775 35.6584,26.4937 35.5203,26.7321 36.4402,27.2154 z M 32.8039,20.7124 33.2586,20.5316 33.7346,20.5575 34.2754,20.5513 34.774,20.5099 35.3152,20.5595 36.5349,21.1933 36.2267,20.7337 35.7808,20.2523 35.531,19.7548 35.5232,19.2548 35.7358,18.6226 35.2414,18.5091 34.7677,18.4829 34.246,18.2335 33.818,18.5122 33.242,19.2769 32.8001,19.9768 32.8039,20.7124 z M 0.505809,14.78 1.51094,14.2993 1.5857,13.7854 2.02488,12.761 2.80307,11.7678 3.253,11.258 3.74309,10.779 2.73472,11.0465 1.82186,11.7187 1.25925,12.3026 0.779275,13.244 0.533562,14.1871 0.505809,14.78 z "
id="path7" 
inkscape:connector-curvature="0" sodipodi:nodetypes="cccccccccc" />
<path 
 style="fill:#949494; fill-opacity:1,fill-rule:evenodd;stroke:#949494;stroke-width:0.1;stroke-linecap:butt;stroke-linejoin:miter;stroke-opacity:1"
d="M 17.9829,54.8582 18.7074,54.5664 19.1307,54.6725 19.5093,54.2349 19.7727,53.7408 20.1544,53.246 20.4048,52.181 19.7495,52.7556 19.2471,53.2512 18.7396,53.7565 18.1973,54.2777 16.9059,55.2645 17.9829,54.8582 z M 38.2001,54.2001 38.2001,53.7999 37.7999,53.7999 37.7999,54.2001 38.2001,54.2001 z M 40.2001,54.2001 40.2001,53.7999 39.7999,53.7999 39.7999,54.2001 40.2001,54.2001 z M 41.4455,52.8085 41.4804,52.2173 41.3936,51.641 40.6323,50.193 40.5447,50.8257 40.781,51.745 41.4455,52.8085 z M 21.857,52.2501 22.0197,51.6115 22.162,51.2965 21.8663,50.7061 21.4375,50.2347 20.464,49.6643 19.7579,49.491 18.8296,49.1605 19.209,49.7554 19.1868,50.2557 18.7378,50.7563 18.1645,51.3411 19.8072,50.741 20.2063,50.7944 20.2673,51.1937 20.5806,51.8545 21.2483,51.8003 21.857,52.2501 z M 39.5286,48.6622 39.5652,48.3709 39.8471,47.6219 39.441,47.3968 38.5525,47.1389 37.7588,47.1492 38.2323,47.7545 38.5009,48.3638 39.5286,48.6622 z M 18.6125,48.214 19.4128,46.7573 19.4763,46.217 18.6134,47.629 18.6125,48.214 z M 37.4287,46.818 37.1587,45.8258 36.745,45.2693 36.3025,44.8285 34.1727,43.6633 34.7498,44.2502 35.2471,44.7491 35.749,45.2504 36.2507,45.7503 36.7506,46.2424 37.4287,46.818 z M 38.9299,46.8278 40.2315,46.6068 40.7392,46.4913 41.2192,46.2247 41.4371,45.718 41.218,45.0179 40.6887,44.4886 39.5282,43.7484 38.3477,42.8138 37.7594,42.254 37.2513,41.75 36.7446,41.2501 36.2447,40.7997 35.7896,40.7986 35.6044,41.4441 36.1808,41.8753 36.7619,42.2748 37.2497,42.7504 37.7496,43.2482 38.2511,43.7489 38.7518,44.2504 39.2495,44.7503 39.7257,45.2384 40.1363,45.8216 39.922,46.2507 38.9299,46.8278 z M 19.4949,44.8031 18.5122,42.1862 18.6053,42.9596 19.4838,45.2736 19.4949,44.8031 z M 33.6717,42.8255 34.2265,42.2476 34.4461,41.838 33.5531,41.3819 32.858,41.1598 33.2202,41.8399 33.4705,42.2463 33.6717,42.8255 z M 32.5056,40.3157 32.8268,39.7033 32.2383,39.5086 31.6033,39.44 31.6245,39.78 32.5056,40.3157 z M 21.7602,37.7183 22.1719,37.226 22.8315,35.7706 22.2441,36.2527 21.5717,36.7871 21.446,37.1972 21.1599,38.1979 21.7602,37.7183 z M 23.7735,34.83 25.217,34.172 25.8202,33.5906 25.2026,33.626 24.2939,34.2404 23.7735,34.83 z M 26.2858,32.7275 26.5934,32.2151 26.504,31.755 26.4138,31.1849 25.8021,30.976 25.8439,30.3633 25.5194,29.7558 25.3723,29.1707 24.7596,29.754 24.1724,30.4697 24.7469,30.5523 25.1743,30.9512 25.7543,31.9836 26.2858,32.7275 z M 15.1223,28.2829 15.1428,27.7001 14.7999,27.7896 14.7999,28.2091 15.1223,28.2829 z M 14.2116,27.2121 14.3195,26.8215 13.8016,26.8014 13.8242,27.3226 14.2116,27.2121 z M 19.2137,15.8132 18.7406,15.2434 18.3555,14.8185 17.6718,14.1731 17.5657,14.7658 18.0388,15.2389 19.2137,15.8132 z M 29.7359,15.4846 30.2261,15.4916 30.627,15.3925 28.7766,14.5972 28.1768,14.6529 28.7174,15.1751 29.7359,15.4846 z M 27.4409,14.1807 26.9873,13.7821 26.2289,13.547 26.5295,14.3554 27.4409,14.1807 z M 23.1513,13.4893 24.8281,12.5091 24.2512,12.4992 23.757,12.4942 23.2585,12.4603 22.7999,12.2204 22.7999,11.7538 23.2306,11.2558 23.4784,10.7521 23.4672,10.2544 23.2216,9.79986 22.7695,9.79986 22.465,10.1955 21.8664,10.1483 22.2143,10.7576 22.1848,11.2571 21.714,11.7571 20.7251,12.4519 21.2435,12.5089 21.8662,12.6958 22.2214,12.7885 22.4905,13.3271 23.1513,13.4893 z M 16.8307,12.867 17.718,12.5362 18.251,12.5052 18.7426,12.4974 19.1595,12.32 18.4808,11.8208 17.6244,10.7781 17.4505,11.2034 16.7172,11.16 17.1885,11.7483 17.1395,12.1272 16.8307,12.867 z M 23.5877,8.581 24.2821,8.15696 24.979,7.23886 25.4352,6.30308 25.4353,5.69697 24.9868,4.7766 24.1719,3.79011 24.4724,4.71897 24.4874,5.23393 24.375,5.83982 24.2186,6.24325 23.6343,6.82118 23.3532,7.14942 23.4674,7.76117 23.1702,8.48923 23.5877,8.581 z M 17.4499,7.60906 17.8534,7.34444 17.7544,6.83772 16.7934,6.84952 16.6441,7.46369 17.4499,7.60906 z M 21.597,6.85113 22.4834,6.65172 22.5619,6.36191 22.789,5.84179 23.2076,5.2463 23.2003,4.79916 22.7572,4.78475 22.1602,5.14019 21.6503,5.44339 21.148,5.65145 21.2421,6.20546 21.597,6.85113 z M 17.7638,2.8061 18.8344,2.61039 19.2631,2.52672 19.7439,2.60006 20.2705,2.50944 20.7565,2.50205 21.2575,2.50237 21.8067,2.52734 23.0458,2.83901 21.9796,2.24183 20.8199,1.62648 20.2643,1.52184 19.6977,1.55985 18.7689,2.01672 17.7638,2.8061 z "
id="path8" 
inkscape:connector-curvature="0" sodipodi:nodetypes="cccccccccc" />
<path 
 style="fill:#a47b52; fill-opacity:1,fill-rule:evenodd;stroke:#a47b52;stroke-width:0.1;stroke-linecap:butt;stroke-linejoin:miter;stroke-opacity:1"
d="M 33.722,36.4668 34.2121,36.4791 34.7617,35.7498 35.2539,35.2419 35.8135,34.6528 36.7483,33.4719 37.6887,31.999 38.25,30.4378 38.7499,28.5654 39.4134,26.7749 39.4854,26.26 39.469,25.7236 39.2236,24.9765 38.7556,24.0198 38.1799,22.9332 38.4701,24.1962 38.4662,24.7439 38.2223,25.2269 37.7726,25.4995 37.5129,25.7531 37.3099,26.1156 37.474,26.7296 37.4679,27.2765 37.2235,28.0255 36.767,28.982 36.4671,29.733 35.9833,30.2169 35.2183,30.4472 34.6498,30.4454 34.0864,30.2728 33.7546,30.5156 33.5768,30.7765 34.2924,31.4843 34.7481,31.5022 35.22,31.5465 35.9604,31.7834 36.177,32.2416 35.7546,32.7323 35.2547,33.1984 34.8168,33.2862 34.4929,33.7667 34.2209,34.2526 33.7425,34.7526 33.2477,35.2263 32.7608,35.4871 32.2359,35.6999 33.0015,36.222 33.722,36.4668 z M 18.2071,33.9739 18.3346,33.1955 17.7549,33.1998 17.2548,32.7499 16.7446,32.25 16.2447,31.8035 15.7604,31.8394 15.8365,32.3367 16.1967,32.7543 16.1526,33.3762 16.7553,33.5198 17.2376,33.7751 17.6538,34.2751 18.2071,33.9739 z M 36.0333,31.2001 36.0333,30.7999 36.4408,30.7999 36.4408,31.2001 36.0333,31.2001 z M 10.2856,30.2703 11.9648,29.2692 12.734,28.7997 13.4392,28.7991 13.3291,28.1852 12.7594,27.8299 12.2594,28.2505 11.749,28.7504 11.2478,29.2506 10.7605,29.7428 10.2856,30.2703 z M 10.7563,28.7339 11.2166,28.2464 11.3534,27.8402 10.5554,27.4041 9.81744,27.161 10.2343,27.7567 10.4425,28.2784 10.1735,29.2418 10.7563,28.7339 z M 27.5423,28.6602 28.2333,26.5999 28.7332,26.6 29.4615,28.6789 29.582,28.4744 29.5125,27.7977 29.5042,27.2607 29.5038,26.7555 29.5067,26.252 29.5367,25.7179 29.8478,24.8693 30.7637,23.2554 31.698,21.8599 32.2525,21.2559 32.8039,20.7124 32.8001,19.9768 33.242,19.2769 33.818,18.5122 33.2483,18.509 32.6668,18.5906 31.0026,19.6195 30.3,20.2176 29.7563,20.7473 29.251,21.2476 28.6597,21.8038 28.4477,22.2173 28.2192,23.0254 27.669,24.1328 27.5123,24.7332 27.444,25.1892 27.4921,25.7606 27.4871,26.2862 27.4165,26.8982 27.4932,27.2762 27.4987,27.7543 27.5026,28.2365 27.5423,28.6602 z M 35.707,28.7893 36.2173,28.0061 36.4402,27.2154 35.5203,26.7321 35.498,27.2492 35.4694,27.7468 35.1877,28.2931 35.707,28.7893 z "
id="path9" 
inkscape:connector-curvature="0" sodipodi:nodetypes="cccccccccc" />
<path 
 style="fill:#adadad; fill-opacity:1,fill-rule:evenodd;stroke:#adadad;stroke-width:0.1;stroke-linecap:butt;stroke-linejoin:miter;stroke-opacity:1"
d="M 15.7606,55.4929 16.2823,55.4711 16.9059,55.2645 18.1973,54.2777 18.7396,53.7565 19.2471,53.2512 19.7495,52.7556 20.4048,52.181 20.5806,51.8545 20.2673,51.1937 19.7496,51.7465 19.2496,52.2497 18.7493,52.7496 18.2484,53.2505 17.7452,53.7504 17.246,54.2089 16.7989,54.2893 16.2394,54.5138 15.7629,54.7743 15.1968,55.4679 15.7606,55.4929 z M 40.7565,55.4913 41.2275,55.4753 41.6253,55.141 41.5331,54.733 41.6317,54.2345 41.4335,53.7313 40.7531,54.7272 40.1753,55.4076 40.7565,55.4913 z M 39.2175,53.2001 39.3737,52.8494 38.5994,52.8707 38.7783,53.2001 39.2175,53.2001 z M 41.4266,53.3796 41.4455,52.8085 40.781,51.745 40.5447,50.8257 40.6323,50.193 40.7833,49.7524 41.3016,49.1829 41.2105,48.7541 40.7549,48.2638 40.1939,47.7534 40.3541,48.8281 40.2148,49.2001 39.7808,49.2001 39.5286,48.6622 38.5009,48.3638 38.6625,48.8357 39.1962,49.7335 39.1478,50.3815 39.8419,50.685 40.2494,51.3202 40.7494,52.6642 41.4266,53.3796 z M 22.3924,52.8086 22.4538,52.239 22.0197,51.6115 21.857,52.2501 22.3924,52.8086 z M 17.7347,51.8254 19.1966,51.1702 19.8072,50.741 18.1645,51.3411 17.7347,51.8254 z M 22.4991,47.2464 22.5019,46.7527 22.5016,46.2511 22.501,45.7505 22.5016,45.2506 22.5022,44.7489 22.5016,44.2478 22.5009,43.7486 22.5009,43.2486 22.4987,42.7545 22.476,42.2397 21.7745,43.7058 21.5306,44.256 21.5332,44.8104 21.7771,45.7907 22.4761,47.7564 22.4991,47.2464 z M 40.1363,45.8216 39.7257,45.2384 39.2495,44.7503 38.7518,44.2504 38.2511,43.7489 37.7496,43.2482 37.2497,42.7504 36.7619,42.2748 36.1808,41.8753 36.7519,42.9754 37.2548,43.7235 37.7781,44.2617 38.3562,44.7586 40.1363,45.8216 z M 19.4901,44.2969 18.5074,41.6913 18.5122,42.1862 19.4949,44.8031 19.4901,44.2969 z M 36.3025,44.8285 35.2222,44.0034 33.7885,43.1819 34.1727,43.6633 36.3025,44.8285 z M 34.4461,41.838 34.7605,41.517 35.212,41.3569 34.5227,40.6786 33.7836,40.7932 33.5531,41.3819 34.4461,41.838 z M 22.417,40.8102 22.2134,40.0133 21.7632,39.5631 21.1697,39.6163 21.6007,40.1581 22.417,40.8102 z M 18.7969,39.4011 18.1602,38.5633 17.5974,38.1751 17.5497,38.7609 17.855,39.1593 18.7969,39.4011 z M 21.5717,36.7871 22.2441,36.2527 22.8315,35.7706 23.2627,35.2626 23.7735,34.83 24.2939,34.2404 25.2026,33.626 23.9319,33.8459 23.2825,34.2574 22.72,34.8174 22.0293,35.7507 21.5717,36.7871 z M 19.6916,34.8116 22.3167,33.1733 22.6633,32.8268 23.3139,31.1901 22.7508,31.7483 22.2511,32.2463 21.7483,32.7484 21.2452,33.2516 20.7437,33.7537 20.2471,34.2519 19.6916,34.8116 z M 15.1454,32.5462 15.8365,32.3367 15.7604,31.8394 15.2472,31.1753 14.6539,31.4647 14.6531,31.8122 15.1454,32.5462 z M 13.357,30.4216 13.4701,29.7979 13.3676,29.1762 12.7715,29.7554 12.4973,30.2258 12.2238,30.4747 11.7202,30.5144 12.8312,31.3188 13.357,30.4216 z M 15.2472,30.8019 15.8097,30.2785 15.5621,29.7193 15.841,28.7906 15.1263,29.383 14.7861,29.7527 14.6676,30.176 15.2472,30.8019 z M 26.4085,28.7461 26.6598,28.2011 26.4472,27.8017 25.7999,27.8 25.7999,28.2339 26.4085,28.7461 z M 16.754,27.7421 17.2492,27.2517 17.7489,26.7535 18.2509,26.2514 18.7473,25.7518 19.2781,25.1959 18.0162,25.7638 17.28,26.2787 16.5763,27.2634 16.1723,28.2839 16.754,27.7421 z M 19.6692,24.8005 20.2001,24.242 20.2001,23.7556 19.7595,23.2746 19.1586,22.8015 19.3968,23.5837 19.39,24.1572 19.6692,24.8005 z M 26.3861,24.8365 26.4919,24.2426 26.4924,23.7569 26.3928,23.154 25.8032,23.1972 25.8428,22.7311 25.2374,22.5092 24.5981,22.435 24.6027,22.7626 25.2289,23.7289 25.5947,24.4179 26.3861,24.8365 z M 21.2453,22.2128 21.8306,21.6614 21.5273,21.229 21.5583,20.6236 21.3845,20.1508 20.803,20.197 20.8503,19.6141 20.3863,19.4121 19.8033,18.9921 19.8684,18.3454 19.851,17.6163 19.3801,17.459 18.784,17.7768 18.591,18.3069 19.0561,19.3053 19.9488,20.6979 20.4502,21.6995 20.5774,22.3879 21.2453,22.2128 z M 27.2701,21.9414 27.9913,20.7875 28.7212,19.824 29.206,19.4269 29.8199,18.5869 29.1756,18.4554 28.8015,18.4327 28.0368,18.2139 27.8229,17.7546 28.274,17.1842 27.9586,16.7566 27.0254,16.1572 26.8395,15.7434 27.2638,15.2434 27.8224,14.6808 27.4409,14.1807 26.5295,14.3554 26.0433,14.2139 25.8411,13.5603 25.2486,13.4717 24.83,13.2203 25.2477,12.6125 24.8281,12.5091 23.1513,13.4893 23.7481,13.5302 24.1969,13.7783 24.151,14.4025 24.8463,14.5285 25.1966,14.7729 25.1543,15.3017 25.4556,15.7719 25.1773,16.4601 25.844,16.5315 26.1966,16.7733 26.1545,17.3014 26.4556,17.7719 26.1773,18.4601 26.844,18.5315 27.1966,18.7733 27.1545,19.3014 27.4545,19.7719 27.1456,20.4968 27.1968,20.9808 26.4719,21.2966 26.2137,21.3496 25.728,21.4894 25.1823,21.5005 26.8475,22.4629 27.2701,21.9414 z M 17.5854,17.8097 18.2538,17.2436 18.9296,16.6256 19.1964,16.1618 18.2673,16.5324 17.7849,17.0132 17.5854,17.8097 z M 30.3024,17.8178 30.625,17.1573 30.817,16.5856 30.0238,16.7852 29.7251,17.1797 30.3024,17.8178 z M 16.483,13.2003 16.8307,12.867 17.1395,12.1272 16.2914,12.4009 15.7822,11.9746 15.5605,11.2823 15.8157,10.611 15.0173,10.789 14.5907,11.2843 14.7843,12.0029 15.2818,12.7186 15.9821,13.2019 16.483,13.2003 z M 20.7251,12.4519 21.714,11.7571 22.1848,11.2571 22.2143,10.7576 21.8664,10.1483 21.8167,9.74606 22.2916,9.18894 21.2723,9.46766 20.5753,9.40271 20.1559,9.65168 20.4526,10.2819 21.2001,10.7733 21.2001,11.2455 20.7601,11.7455 20.1998,12.465 20.7251,12.4519 z M 18.8533,10.7012 19.1745,10.5959 19.7452,10.6088 20.1441,10.2797 19.8676,9.65362 19.1583,9.41759 18.8354,9.302 18.1379,9.68862 18.1379,10.2918 18.8533,10.7012 z M 22.6717,8.81768 23.1702,8.48923 23.4674,7.76117 23.3532,7.14942 22.7784,7.19652 22.4834,6.65172 21.597,6.85113 21.5222,7.33779 22.2248,7.77205 22.4829,8.24186 22.6717,8.81768 z M 19.2638,5.20014 19.8508,4.82913 20.7691,4.02503 21.8187,3.65701 22.2183,3.78607 22.435,4.28335 22.1602,5.14019 22.7572,4.78475 23.2003,4.79916 23.2076,5.2463 22.789,5.84179 23.7192,5.56116 24.375,5.83982 24.4874,5.23393 24.4724,4.71897 24.1719,3.79011 23.7154,3.26619 23.0458,2.83901 21.8067,2.52734 21.2575,2.50237 20.7565,2.50205 20.2705,2.50944 19.7439,2.60006 20.1699,3.22269 19.7704,3.49308 19.3756,3.84884 19.2169,4.17847 18.7861,3.96454 18.6483,3.47719 18.8344,2.61039 17.7638,2.8061 17.2602,3.27899 16.7867,3.99222 16.5999,4.7822 17.2359,4.53501 17.8497,4.70969 18.2511,4.78998 18.7511,5.20014 19.2638,5.20014 z "
id="path10" 
inkscape:connector-curvature="0" sodipodi:nodetypes="cccccccccc" />
<path 
 style="fill:#bd946b; fill-opacity:1,fill-rule:evenodd;stroke:#bd946b;stroke-width:0.1;stroke-linecap:butt;stroke-linejoin:miter;stroke-opacity:1"
d="M 31.6358,38.2065 31.243,37.7506 30.7505,37.2506 30.2506,36.7466 29.7226,36.1919 28.9963,35.219 28.2737,34.0433 27.7753,33.2697 27.5289,32.7464 27.5048,32.2439 27.5003,31.7505 27.4816,31.2245 26.5934,32.2151 26.2858,32.7275 26.2052,33.3962 26.7527,33.5474 27.2683,34.0683 27.9911,35.2139 28.7228,36.1918 29.2515,36.7462 29.7558,37.2521 30.2715,37.7521 30.8153,38.1563 31.6358,38.2065 z M 32.2359,35.6999 32.7608,35.4871 33.2477,35.2263 33.7425,34.7526 34.2209,34.2526 34.4929,33.7667 34.8168,33.2862 34.1766,32.5414 33.7982,32.0139 33.7773,31.5901 34.2924,31.4843 33.5768,30.7765 33.7546,30.5156 34.0864,30.2728 33.2778,29.7491 32.8011,29.3138 32.5218,29.7738 32.5021,30.2541 32.4997,30.7493 32.4984,31.2479 32.497,31.7488 32.494,32.2542 32.4646,32.8166 32.2189,33.7291 31.7428,34.1524 31.2429,33.7361 30.761,33.2724 30.1915,32.866 30.8277,34.2279 31.2516,34.7389 31.7516,35.2465 32.2359,35.6999 z M 34.2126,27.974 34.4082,27.2098 33.7868,27.7618 33.6164,28.3874 34.2126,27.974 z M 32.6214,27.7896 33.2413,27.243 33.8071,26.572 33.2393,26.5605 32.7892,27.0106 32.6214,27.7896 z M 37.5129,25.7531 37.7726,25.4995 38.2223,25.2269 38.4662,24.7439 38.4701,24.1962 38.1799,22.9332 37.7441,22.2782 37.2065,21.7312 36.5349,21.1933 35.3152,20.5595 34.774,20.5099 34.2754,20.5513 35.6777,21.2397 36.1771,21.7396 36.1979,22.2093 35.5327,22.365 35.437,22.6965 35.7681,23.2736 36.2524,24.0308 36.7524,25.0068 37.3099,26.1156 37.5129,25.7531 z M 3.6203,12.792 4.2088,12.0056 4.34464,11.2076 3.7886,11.9938 3.6203,12.792 z "
id="path11" 
inkscape:connector-curvature="0" sodipodi:nodetypes="cccccccccc" />
<path 
 style="fill:#c5c5c5; fill-opacity:1,fill-rule:evenodd;stroke:#c5c5c5;stroke-width:0.1;stroke-linecap:butt;stroke-linejoin:miter;stroke-opacity:1"
d="M 15.1968,55.4679 15.7629,54.7743 16.2394,54.5138 16.7989,54.2893 15.981,53.755 14.8077,53.1714 15.2087,53.7542 15.2003,54.2001 14.7554,54.2001 14.2555,53.7498 13.7469,53.2498 13.1932,52.7283 12.788,52.7932 12.6058,53.4162 13.2482,53.7721 13.7439,54.2478 14.2222,54.7478 14.5864,55.4121 15.1968,55.4679 z M 23.4156,53.1298 23.2142,52.2598 22.5404,51.4088 22.162,51.2965 22.0197,51.6115 22.4538,52.239 22.3924,52.8086 23.0865,53.2626 23.4156,53.1298 z M 37.9735,52.7852 38.5994,52.8707 39.3737,52.8494 39.4909,52.2405 39.503,51.7526 39.5325,51.2534 39.8419,50.685 39.1478,50.3815 38.6965,51.123 38.4881,51.7327 38.1549,52.2829 37.0871,53.0902 37.9735,52.7852 z M 21.8663,50.7061 22.1509,50.6142 22.4758,50.2275 22.4967,49.7516 22.4818,49.2012 21.5169,49.351 21.221,49.3583 20.7604,49.5008 20.464,49.6643 21.4375,50.2347 21.8663,50.7061 z M 18.5698,48.786 19.2285,48.495 19.6212,48.1404 19.5162,47.7484 19.4959,47.2598 19.4128,46.7573 18.6125,48.214 18.5698,48.786 z M 22.4808,48.7953 22.4936,48.2401 22.4761,47.7564 21.7771,45.7907 21.5332,44.8104 21.5306,44.256 21.7745,43.7058 22.476,42.2397 22.4929,41.7607 22.4729,41.2036 21.7504,41.4811 21.2504,41.5239 20.5745,41.8359 20.5107,42.2518 20.5023,42.7528 20.5006,43.251 20.5003,43.7504 20.5006,44.2507 20.5023,44.7542 20.5111,45.2814 20.5759,45.8786 21.239,47.6463 21.739,48.2143 22.4808,48.7953 z M 40.3541,48.8281 40.1939,47.7534 39.8471,47.6219 39.5652,48.3709 40.3541,48.8281 z M 38.5525,47.1389 38.9299,46.8278 39.922,46.2507 40.1363,45.8216 38.3562,44.7586 38.7539,45.2548 39.161,45.7433 38.9582,46.2162 38.2838,46.4365 37.7572,46.2347 37.1587,45.8258 37.4287,46.818 37.7588,47.1492 38.5525,47.1389 z M 19.423,43.5415 18.5427,41.2092 18.5074,41.6913 19.4901,44.2969 19.423,43.5415 z M 33.5531,41.3819 33.7836,40.7932 34.5227,40.6786 34.482,40.3223 33.9824,39.7853 33.2123,39.5742 33.201,40.2276 32.5556,40.6647 32.858,41.1598 33.5531,41.3819 z M 19.2818,39.169 19.2817,38.8115 18.6632,38.1939 18.1602,38.5633 18.7969,39.4011 19.2818,39.169 z M 21.1599,38.1979 21.446,37.1972 20.5986,37.8167 20.5924,38.3939 21.1599,38.1979 z M 15.3334,34.186 15.7521,33.7533 16.1526,33.3762 16.1967,32.7543 15.8365,32.3367 15.1454,32.5462 15.1934,33.2512 14.7876,33.7511 14.6533,34.4245 15.3334,34.186 z M 19.2496,35.2732 21.6764,33.7467 22.3167,33.1733 19.6916,34.8116 19.2496,35.2732 z M 13.1775,33.2824 13.8312,32.6415 13.447,32.3889 12.7904,32.7751 12.6539,33.4287 13.1775,33.2824 z M 23.9319,33.8459 25.2026,33.626 25.8202,33.5906 26.2052,33.3962 26.2858,32.7275 25.7543,31.9836 25.1743,30.9512 25.3477,32.1915 25.3404,32.539 24.9329,33.2486 23.9319,33.8459 z M 35.2547,33.1984 35.7546,32.7323 36.177,32.2416 35.9604,31.7834 35.22,31.5465 35.2013,32.2093 34.5199,32.3646 34.1766,32.5414 34.8168,33.2862 35.2547,33.1984 z M 22.6633,32.8268 23.1686,32.2561 23.7956,30.7382 23.3139,31.1901 22.6633,32.8268 z M 11.2503,31.4745 11.7502,31.5284 12.2771,31.8284 12.8312,31.3188 11.7202,30.5144 11.2543,30.5324 10.7843,30.778 10.6468,31.1609 11.2503,31.4745 z M 26.2232,30.6594 26.4794,30.2313 26.4971,29.749 26.4909,29.2491 26.4085,28.7461 25.7999,28.2339 25.7999,27.8 26.4472,27.8017 26.4852,27.2451 26.3893,26.7315 25.7497,26.795 25.2497,27.202 24.5735,27.2252 24.7839,28.0117 25.2188,28.7277 25.3723,29.1707 25.5194,29.7558 25.8439,30.3633 26.2232,30.6594 z M 35.9833,30.2169 36.4671,29.733 36.767,28.982 37.2235,28.0255 37.4679,27.2765 37.474,26.7296 37.3099,26.1156 36.7524,25.0068 36.2524,24.0308 35.7681,23.2736 35.437,22.6965 34.7291,22.6265 34.7942,23.2916 35.2093,24.2102 35.3639,25.1965 35.4942,25.7358 35.6584,26.4937 36.2219,26.7775 36.4402,27.2154 36.2173,28.0061 35.707,28.7893 35.459,29.1956 34.8546,29.1474 34.932,29.5662 35.2183,30.4472 35.9833,30.2169 z M 15.2624,26.1881 15.7412,25.6781 16.7949,23.7242 16.2486,24.2521 15.7469,24.7492 15.2469,25.2247 14.7505,25.4752 14.2133,25.5349 14.7292,26.3814 15.2624,26.1881 z M 16.5763,27.2634 17.28,26.2787 18.0162,25.7638 19.2781,25.1959 19.6692,24.8005 19.39,24.1572 18.7306,24.4959 17.7432,24.8336 17.2597,25.2597 16.8346,25.7422 16.5311,26.7113 16.5763,27.2634 z M 25.5947,24.4179 25.2289,23.7289 24.6027,22.7626 24.4207,23.1703 23.3094,22.7662 24.5349,23.7518 25.5947,24.4179 z M 25.2374,22.5092 25.8428,22.7311 26.3462,22.853 26.8475,22.4629 25.1823,21.5005 24.7511,21.5002 24.2006,21.4813 24.5981,22.435 25.2374,22.5092 z M 27.1456,20.4968 27.4545,19.7719 27.1545,19.3014 26.8159,19.4715 26.1769,19.4883 26.6879,20.5083 27.1456,20.4968 z M 26.1773,18.4601 26.4556,17.7719 26.1545,17.3014 25.8159,17.4715 25.1768,17.4883 25.6875,18.5051 26.1773,18.4601 z M 31.0096,18.2068 31.6483,17.7491 31.234,17.4929 30.625,17.1573 30.3024,17.8178 30.1922,18.316 31.0096,18.2068 z M 25.1773,16.4601 25.4556,15.7719 25.1543,15.3017 24.816,15.4715 24.1769,15.4883 24.6875,16.5051 25.1773,16.4601 z M 31.2555,15.4323 30.5034,14.8589 29.5208,14.3792 29.2468,14.4916 28.7766,14.5972 30.627,15.3925 31.2555,15.4323 z M 20.1998,12.465 20.7601,11.7455 21.2001,11.2455 21.2001,10.7733 20.4526,10.2819 20.1441,10.2797 19.7452,10.6088 20.1684,11.2343 19.5828,11.8258 19.6021,12.4207 20.1998,12.465 z M 18.4808,11.8208 18.5317,11.2516 18.8533,10.7012 18.1379,10.2918 17.7795,10.5077 17.6244,10.7781 18.4808,11.8208 z M 18.1379,9.68862 18.8354,9.302 18.2532,8.74724 17.7745,8.24729 17.4499,7.60906 16.6441,7.46369 16.7848,8.00739 17.2521,8.72257 17.7514,9.2565 18.1379,9.68862 z M 21.2723,9.46766 22.2916,9.18894 22.6717,8.81768 22.4829,8.24186 22.2248,7.77205 21.5222,7.33779 21.1485,7.57319 21.1969,8.21586 20.8602,8.35304 20.53,8.7725 20.5753,9.40271 21.2723,9.46766 z M 19.7507,6.74949 20.2524,6.2508 20.8039,5.71884 20.2319,5.56798 19.7667,6.03321 19.1983,7.2918 19.7507,6.74949 z M 23.2296,6.5135 23.6343,6.82118 24.2186,6.24325 24.375,5.83982 23.7192,5.56116 22.789,5.84179 22.5619,6.36191 23.2296,6.5135 z M 17.8321,5.46635 17.8497,4.70969 17.2359,4.53501 16.5999,4.7822 16.9015,5.171 17.8321,5.46635 z M 19.8508,4.82913 20.7204,4.54615 21.1554,4.62407 21.5013,4.22943 21.8187,3.65701 20.7691,4.02503 19.8508,4.82913 z M 19.3756,3.84884 19.7704,3.49308 20.1699,3.22269 19.7439,2.60006 19.2631,2.52672 18.8344,2.61039 18.6483,3.47719 19.3756,3.84884 z "
id="path12" 
inkscape:connector-curvature="0" sodipodi:nodetypes="cccccccccc" />
<path 
 style="fill:#d6ad84; fill-opacity:1,fill-rule:evenodd;stroke:#d6ad84;stroke-width:0.1;stroke-linecap:butt;stroke-linejoin:miter;stroke-opacity:1"
d="M 32.2189,33.7291 32.4646,32.8166 32.494,32.2542 32.497,31.7488 32.4984,31.2479 32.4997,30.7493 32.5021,30.2541 32.5218,29.7738 32.8011,29.3138 32.2517,28.7229 31.7785,28.0015 31.5393,27.2785 31.577,26.7883 31.7848,25.9974 32.3405,25.2106 32.5509,24.7952 32.7818,23.9896 33.2145,23.2714 33.3367,22.8165 32.6891,22.9354 31.7557,24.2719 30.8488,25.8679 30.5371,26.7178 30.5095,27.2545 30.5315,27.8085 30.777,28.804 31.2227,30.1953 31.4658,31.1885 31.4623,31.7431 31.2193,32.1773 30.7653,31.9426 30.2653,30.9321 29.582,28.4744 29.4615,28.6789 29.4935,29.2255 29.498,29.7445 29.4993,30.2483 29.5016,30.7529 29.5272,31.2791 29.8244,32.1546 30.1915,32.866 30.761,33.2724 31.2429,33.7361 31.7428,34.1524 32.2189,33.7291 z M 18.3346,33.1955 18.2134,32.7543 17.749,32.2543 17.2489,31.75 16.751,31.25 16.2509,30.7464 15.8097,30.2785 15.2472,30.8019 15.2472,31.1753 15.7604,31.8394 16.2447,31.8035 16.7446,32.25 17.2548,32.7499 17.7549,33.1998 18.3346,33.1955 z M 27.4816,31.2245 27.5257,30.7666 27.5027,30.2426 27.5021,29.7442 27.5068,29.2241 27.5423,28.6602 27.5026,28.2365 27.4987,27.7543 27.4932,27.2762 27.4165,26.8982 26.6598,28.2011 26.4085,28.7461 26.4909,29.2491 26.4971,29.749 26.4794,30.2313 26.2232,30.6594 26.4138,31.1849 26.504,31.755 26.5934,32.2151 27.4816,31.2245 z M 11.3534,27.8402 11.5176,27.2434 11.7609,26.7566 12.1851,26.1689 11.2803,26.4399 10.7536,26.2202 10.2536,25.749 9.7496,25.2482 9.24964,24.749 8.74758,24.2449 8.24762,23.7206 7.75177,22.9771 7.25148,22.0013 6.74982,20.9997 6.25062,20.0009 5.75139,19.0017 5.25068,18.0012 4.67448,16.8626 4.5113,17.2721 4.50052,17.7505 4.50058,18.2505 4.49981,18.7491 4.4908,19.2401 4.37634,19.8397 4.57627,20.2084 5.21063,21.0001 5.36915,21.7916 5.55393,22.1765 6.25179,22.7627 6.75278,23.2551 7.25089,23.7513 7.74923,24.2489 8.24806,24.7465 8.74893,25.2468 9.25025,25.7489 9.75021,26.2524 10.2253,26.7523 10.5554,27.4041 11.3534,27.8402 z M 36.1979,22.2093 36.1771,21.7396 35.6777,21.2397 34.2754,20.5513 33.7346,20.5575 34.7188,21.2454 35.2148,21.7453 35.5327,22.365 36.1979,22.2093 z M 31.0026,19.6195 32.6668,18.5906 33.2483,18.509 33.818,18.5122 34.246,18.2335 33.9597,17.7765 33.2765,17.5067 32.6011,17.1941 32.3806,17.6372 32.2018,18.2549 31.738,18.7564 31.2774,19.2292 31.0026,19.6195 z M 4.43985,15.7852 4.21846,14.9726 3.68264,13.8776 3.79403,14.7703 4.43985,15.7852 z M 1.5857,13.7854 2.23769,12.974 2.80307,11.7678 2.02488,12.761 1.5857,13.7854 z "
id="path13" 
inkscape:connector-curvature="0" sodipodi:nodetypes="cccccccccc" />
<path 
 style="fill:#dedede; fill-opacity:1,fill-rule:evenodd;stroke:#dedede;stroke-width:0.1;stroke-linecap:butt;stroke-linejoin:miter;stroke-opacity:1"
d="M 36.5814,55.1393 36.7773,54.7993 37.1558,54.7895 37.7536,55.2075 38.2462,55.2079 38.8442,54.7898 39.1567,54.7915 39.7559,55.2335 40.1753,55.4076 40.7531,54.7272 41.4335,53.7313 41.4266,53.3796 40.7494,52.6642 40.2494,51.3202 39.8419,50.685 39.5325,51.2534 39.503,51.7526 39.4909,52.2405 39.3737,52.8494 39.2175,53.2001 38.7783,53.2001 38.5994,52.8707 37.9735,52.7852 37.0871,53.0902 36.2857,53.5142 35.785,54.0149 35.5913,54.715 36.0029,55.1967 36.5814,55.1393 z M 37.7999,54.2001 37.7999,53.7999 38.2001,53.7999 38.2001,54.2001 37.7999,54.2001 z M 39.7999,54.2001 39.7999,53.7999 40.2001,53.7999 40.2001,54.2001 39.7999,54.2001 z M 17.2446,53.2001 17.7446,52.7497 18.2498,52.2498 18.7328,51.7585 19.1966,51.1702 17.7347,51.8254 17.2545,52.2243 16.747,52.4712 16.2495,52.4982 15.7205,52.52 16.7395,53.2001 17.2446,53.2001 z M 19.7579,49.491 20.464,49.6643 20.7604,49.5008 21.221,49.3583 20.8281,48.7999 21.2217,48.7999 21.5169,49.351 22.4818,49.2012 22.4808,48.7953 21.739,48.2143 21.239,47.6463 20.5759,45.8786 20.5043,46.2679 20.4976,46.7446 20.4942,47.2425 20.4668,47.746 20.2209,48.1961 19.6212,48.1404 19.2285,48.495 18.5698,48.786 18.8296,49.1605 19.7579,49.491 z M 40.2148,49.2001 40.3541,48.8281 39.5652,48.3709 39.5286,48.6622 39.7808,49.2001 40.2148,49.2001 z M 38.2838,46.4365 38.9582,46.2162 39.161,45.7433 38.7539,45.2548 38.3562,44.7586 37.7781,44.2617 37.2548,43.7235 36.7519,42.9754 36.1808,41.8753 35.6044,41.4441 35.212,41.3569 34.7605,41.517 34.4461,41.838 34.2265,42.2476 33.6717,42.8255 33.7885,43.1819 35.2222,44.0034 36.3025,44.8285 36.745,45.2693 37.1587,45.8258 37.7572,46.2347 38.2838,46.4365 z M 19.4956,43.2275 19.5022,42.7571 19.5034,42.2583 19.5059,41.7578 19.533,41.2541 19.7789,40.7999 20.2225,40.7999 20.475,41.2474 20.5745,41.8359 21.2504,41.5239 21.7504,41.4811 22.4729,41.2036 22.417,40.8102 21.6007,40.1581 21.0227,40.1979 20.7833,39.5524 20.0919,39.7254 19.2786,40.2546 18.7192,40.7989 18.5427,41.2092 19.423,43.5415 19.4956,43.2275 z M 32.5556,40.6647 33.201,40.2276 33.2123,39.5742 32.8268,39.7033 32.5056,40.3157 32.5556,40.6647 z M 18.1602,38.5633 18.6632,38.1939 18.1999,37.7454 17.7804,37.7948 17.5974,38.1751 18.1602,38.5633 z M 20.5986,37.8167 21.446,37.1972 21.5717,36.7871 22.0293,35.7507 22.72,34.8174 23.2825,34.2574 23.9319,33.8459 24.9329,33.2486 25.3404,32.539 24.7293,32.7785 23.9782,33.2511 23.0289,33.7511 22.2801,34.2808 21.7467,35.0408 21.2467,36.0135 20.7861,36.9676 20.5986,37.8167 z M 19.2884,36.7955 19.5149,36.2396 19.7824,35.7465 20.259,35.2452 20.7509,34.7492 21.2324,34.2616 21.6764,33.7467 19.2496,35.2732 18.8169,35.7428 18.802,36.2455 19.2884,36.7955 z M 14.6533,34.4245 14.7876,33.7511 15.1934,33.2512 15.1454,32.5462 14.6531,31.8122 14.4884,32.246 14.1536,32.708 14.1962,33.2521 13.7775,33.8049 14.0347,34.2181 14.6533,34.4245 z M 12.6539,33.4287 12.7904,32.7751 13.447,32.3889 13.4972,31.7494 13.5008,31.249 13.4917,30.7752 13.357,30.4216 12.8312,31.3188 12.2771,31.8284 12.2082,32.252 11.7697,32.7981 12.0348,33.2186 12.6539,33.4287 z M 35.2013,32.2093 35.22,31.5465 34.7481,31.5022 34.2924,31.4843 33.7773,31.5901 34.5199,32.3646 35.2013,32.2093 z M 15.2472,31.1753 15.2472,30.8019 14.6676,30.176 14.5226,30.7615 14.6539,31.4647 15.2472,31.1753 z M 23.7525,31.7716 24.2586,31.5353 24.7586,31.5617 25.3477,32.1915 25.1743,30.9512 24.7469,30.5523 24.1724,30.4697 23.7956,30.7382 23.1686,32.2561 23.7525,31.7716 z M 35.2183,30.4472 34.932,29.5662 34.5462,29.783 34.6498,30.4454 35.2183,30.4472 z M 15.841,28.7906 16.1723,28.2839 16.5763,27.2634 16.5311,26.7113 16.8346,25.7422 16.2445,26.2635 15.7725,26.7524 15.5037,27.2312 15.1428,27.7001 15.1223,28.2829 15.1263,29.383 15.841,28.7906 z M 25.2497,27.202 25.7497,26.795 26.3893,26.7315 26.5136,26.2434 26.7904,25.6069 26.2816,25.1978 25.7494,25.7478 25.255,26.2472 24.7854,26.7472 24.5735,27.2252 25.2497,27.202 z M 31.577,26.7883 32.2086,26.002 32.3405,25.2106 31.7848,25.9974 31.577,26.7883 z M 16.2639,25.2294 16.7492,24.7514 17.2466,24.2558 17.7486,23.753 18.2406,23.2503 18.7733,22.5828 17.9931,22.785 17.2782,23.2547 16.7949,23.7242 15.7412,25.6781 16.2639,25.2294 z M 17.7432,24.8336 18.7306,24.4959 19.39,24.1572 19.3968,23.5837 18.7535,23.7843 18.2647,24.2444 17.7432,24.8336 z M 32.5509,24.7952 33.2545,24.2403 33.7545,23.7999 34.242,23.7999 34.742,24.2766 35.3639,25.1965 35.2093,24.2102 34.7942,23.2916 34.7291,22.6265 34.2405,22.5116 33.77,22.5222 33.3367,22.8165 33.2145,23.2714 32.7818,23.9896 32.5509,24.7952 z M 24.4207,23.1703 24.6027,22.7626 24.5981,22.435 24.2006,21.4813 23.7531,21.1782 22.9713,21.199 22.2724,20.7875 21.5583,20.6236 21.5273,21.229 21.8306,21.6614 22.2474,21.7853 22.757,22.2548 23.3094,22.7662 24.4207,23.1703 z M 20.5774,22.3879 20.4502,21.6995 19.9488,20.6979 19.0561,19.3053 18.591,18.3069 18.784,17.7768 19.3801,17.459 19.4495,16.7886 18.9296,16.6256 18.2538,17.2436 17.5854,17.8097 17.5404,18.2784 17.7846,19.0378 18.2591,20.0122 18.753,20.9733 19.281,21.7203 19.999,22.218 20.5774,22.3879 z M 23.9347,20.8216 24.7127,20.5334 25.2348,20.5113 25.8508,20.595 26.1584,20.629 26.6879,20.5083 26.1769,19.4883 25.5305,19.3711 25.2565,19.4055 24.7328,19.4896 24.1818,19.464 23.14,19.1765 23.9564,19.7594 24.1947,20.2418 23.9347,20.8216 z M 20.3863,19.4121 20.4763,18.7645 20.2599,18.1743 19.8684,18.3454 19.8033,18.9921 20.3863,19.4121 z M 22.964,18.8229 23.7104,18.5355 24.2343,18.5116 24.8507,18.595 25.1591,18.6289 25.6875,18.5051 25.1768,17.4883 24.5302,17.3709 24.2557,17.4049 23.7227,17.4884 23.1749,17.4645 22.1412,17.1771 22.957,17.7595 23.1975,18.2405 22.964,18.8229 z M 31.234,17.4929 31.6483,17.7491 32.3806,17.6372 32.6011,17.1941 31.9984,16.7788 31.2789,16.5408 30.817,16.5856 30.625,17.1573 31.234,17.4929 z M 21.9642,16.8228 22.7104,16.5355 23.2343,16.5116 23.8507,16.595 24.1591,16.6289 24.6875,16.5051 24.1769,15.4883 23.5304,15.371 23.2546,15.4044 22.7072,15.4661 21.8428,15.1817 22.2125,15.7554 22.2241,16.2388 21.9642,16.8228 z M 32.1687,15.2153 31.8082,14.7132 30.1953,13.991 28.1495,13.2213 28.9728,13.7585 29.5208,14.3792 30.5034,14.8589 31.0053,14.8038 31.671,15.4477 32.1687,15.2153 z M 18.3555,14.8185 18.7755,14.5237 19.2211,14.491 19.4554,14.3125 18.2914,13.7999 17.7876,13.7999 17.6718,14.1731 18.3555,14.8185 z M 22.2488,14.451 22.8533,14.5919 23.1593,14.6285 23.7571,14.4964 24.151,14.4025 24.1969,13.7783 23.7481,13.5302 23.1513,13.4893 22.4905,13.3271 22.2559,13.4028 21.7972,13.5487 21.8001,14 22.2488,14.451 z M 16.2914,12.4009 17.1395,12.1272 17.1885,11.7483 16.7172,11.16 16.254,10.7805 15.8157,10.611 15.5605,11.2823 15.7822,11.9746 16.2914,12.4009 z M 19.5828,11.8258 20.1684,11.2343 19.7452,10.6088 19.1745,10.5959 19.4807,11.2465 19.5828,11.8258 z M 19.8676,9.65362 20.1559,9.65168 20.5753,9.40271 20.53,8.7725 20.8602,8.35304 20.7901,7.55526 19.7608,7.83763 19.4698,8.19745 18.9633,8.17359 19.2217,8.76119 19.1583,9.41759 19.8676,9.65362 z M 23.3532,7.14942 23.6343,6.82118 23.2296,6.5135 22.5619,6.36191 22.4834,6.65172 22.7784,7.19652 23.3532,7.14942 z M 22.1602,5.14019 22.435,4.28335 22.2183,3.78607 21.8187,3.65701 21.5013,4.22943 21.1554,4.62407 21.6503,5.44339 22.1602,5.14019 z M 19.2169,4.17847 19.3756,3.84884 18.6483,3.47719 18.7861,3.96454 19.2169,4.17847 z "
id="path14" 
inkscape:connector-curvature="0" sodipodi:nodetypes="cccccccccc" />
<path 
 style="fill:#ffd6ad; fill-opacity:1,fill-rule:evenodd;stroke:#ffd6ad;stroke-width:0.1;stroke-linecap:butt;stroke-linejoin:miter;stroke-opacity:1"
d="M 31.2193,32.1773 31.4623,31.7431 31.4658,31.1885 31.2227,30.1953 30.777,28.804 30.5315,27.8085 30.5095,27.2545 30.5371,26.7178 30.8488,25.8679 31.7557,24.2719 32.6891,22.9354 33.3367,22.8165 33.77,22.5222 34.2405,22.5116 34.7291,22.6265 35.437,22.6965 35.5327,22.365 35.2148,21.7453 34.7188,21.2454 33.7346,20.5575 33.2586,20.5316 32.8039,20.7124 32.2525,21.2559 31.698,21.8599 30.7637,23.2554 29.8478,24.8693 29.5367,25.7179 29.5067,26.252 29.5038,26.7555 29.5042,27.2607 29.5125,27.7977 29.582,28.4744 30.2653,30.9321 30.7653,31.9426 31.2193,32.1773 z M 9.51398,31.1855 9.78951,30.7415 10.2856,30.2703 10.7605,29.7428 11.2478,29.2506 11.749,28.7504 12.2594,28.2505 12.7594,27.8299 13.3291,28.1852 13.5109,27.7526 13.8242,27.3226 13.8016,26.8014 14.3195,26.8215 14.7292,26.3814 14.2133,25.5349 13.7233,25.533 12.9777,25.7767 12.1851,26.1689 11.7609,26.7566 11.5176,27.2434 11.3534,27.8402 11.2166,28.2464 10.7563,28.7339 10.1735,29.2418 9.77001,29.4373 9.24932,29.5496 8.78511,30.0151 8.59148,30.7148 9.00544,31.1992 9.51398,31.1855 z M 27.4165,26.8982 27.4871,26.2862 27.4921,25.7606 27.444,25.1892 26.7904,25.6069 26.5136,26.2434 26.3893,26.7315 26.4852,27.2451 26.4472,27.8017 26.6598,28.2011 27.4165,26.8982 z M 10.5554,27.4041 10.2253,26.7523 9.75021,26.2524 9.25025,25.7489 8.74893,25.2468 8.24806,24.7465 7.74923,24.2489 7.25089,23.7513 6.75278,23.2551 6.25179,22.7627 5.55393,22.1765 5.20056,22.6702 5.75257,23.2498 6.24971,23.7498 6.74967,24.2507 7.25035,24.7514 7.75031,25.2506 8.24948,25.749 8.74944,26.2463 9.26785,26.7474 9.81744,27.161 10.5554,27.4041 z M 27.669,24.1328 28.2192,23.0254 28.4477,22.2173 27.7932,23.2322 27.669,24.1328 z M 5.36915,21.7916 5.21063,21.0001 4.57627,20.2084 4.78467,20.9999 5.36915,21.7916 z M 28.6597,21.8038 29.251,21.2476 29.7563,20.7473 30.3,20.2176 31.0026,19.6195 31.2774,19.2292 31.738,18.7564 32.2018,18.2549 32.3806,17.6372 31.6483,17.7491 31.0096,18.2068 30.1922,18.316 29.8199,18.5869 29.206,19.4269 29.1985,20.0522 28.7896,20.961 28.6597,21.8038 z M 3.32871,20.7765 3.51802,20.2411 3.77689,19.8026 4.37634,19.8397 4.4908,19.2401 4.49981,18.7491 4.50058,18.2505 4.50052,17.7505 4.5113,17.2721 4.67448,16.8626 4.51337,16.2678 4.43985,15.7852 3.79403,14.7703 3.68264,13.8776 3.53497,13.2705 3.6203,12.792 3.7886,11.9938 4.34464,11.2076 4.21292,10.7982 3.74309,10.779 3.253,11.258 2.80307,11.7678 2.23769,12.974 1.5857,13.7854 1.51094,14.2993 1.53133,14.8054 2.21861,15.2704 2.46169,16.1803 2.46395,16.7431 2.22087,17.2013 1.55248,17.2181 1.78179,18.0023 2.30718,18.7779 2.51843,18.2402 2.77817,17.8219 3.21664,18.0385 3.43436,18.7166 3.2178,19.2012 2.52944,19.2166 2.77966,19.9981 3.32871,20.7765 z "
id="path15" 
inkscape:connector-curvature="0" sodipodi:nodetypes="cccccccccc" />
<path 
 style="fill:#ffffff; fill-opacity:1,fill-rule:evenodd;stroke:#ffffff;stroke-width:0.1;stroke-linecap:butt;stroke-linejoin:miter;stroke-opacity:1"
d="M 14.5864,55.4121 14.2222,54.7478 13.7439,54.2478 13.2482,53.7721 12.6058,53.4162 12.7814,54.001 13.2811,54.7189 14.0019,55.2208 14.5864,55.4121 z M 17.246,54.2089 17.7452,53.7504 18.2484,53.2505 18.7493,52.7496 19.2496,52.2497 19.7496,51.7465 20.2673,51.1937 20.2063,50.7944 19.8072,50.741 19.1966,51.1702 18.7328,51.7585 18.2498,52.2498 17.7446,52.7497 17.2446,53.2001 16.7395,53.2001 15.7205,52.52 15.2547,52.5309 14.8302,52.7362 14.8077,53.1714 15.981,53.755 16.7989,54.2893 17.246,54.2089 z M 21.5169,49.351 21.2217,48.7999 20.8281,48.7999 21.221,49.3583 21.5169,49.351 z M 20.2209,48.1961 20.4668,47.746 20.4942,47.2425 20.4976,46.7446 20.5043,46.2679 20.5759,45.8786 20.5111,45.2814 20.5023,44.7542 20.5006,44.2507 20.5003,43.7504 20.5006,43.251 20.5023,42.7528 20.5107,42.2518 20.5745,41.8359 20.475,41.2474 20.2225,40.7999 19.7789,40.7999 19.533,41.2541 19.5059,41.7578 19.5034,42.2583 19.5022,42.7571 19.4956,43.2275 19.423,43.5415 19.4901,44.2969 19.4949,44.8031 19.4838,45.2736 19.4933,45.747 19.4763,46.217 19.4128,46.7573 19.4959,47.2598 19.5162,47.7484 19.6212,48.1404 20.2209,48.1961 z M 21.6007,40.1581 21.1697,39.6163 20.7833,39.5524 21.0227,40.1979 21.6007,40.1581 z M 20.5924,38.3939 20.5986,37.8167 20.7861,36.9676 21.2467,36.0135 21.7467,35.0408 22.2801,34.2808 23.0289,33.7511 23.9782,33.2511 24.7293,32.7785 25.3404,32.539 25.3477,32.1915 24.7586,31.5617 24.2586,31.5353 23.7525,31.7716 23.1686,32.2561 22.6633,32.8268 22.3167,33.1733 21.6764,33.7467 21.2324,34.2616 20.7509,34.7492 20.259,35.2452 19.7824,35.7465 19.5149,36.2396 19.2884,36.7955 19.4717,37.21 19.556,37.7475 20.0898,38.2592 20.5924,38.3939 z M 13.8312,32.6415 14.1536,32.708 14.4884,32.246 14.6531,31.8122 14.6539,31.4647 14.5226,30.7615 14.6676,30.176 14.7861,29.7527 15.1263,29.383 15.1223,28.2829 14.7999,28.2091 14.7999,27.7896 15.1428,27.7001 15.5037,27.2312 15.7725,26.7524 16.2445,26.2635 16.8346,25.7422 17.2597,25.2597 17.7432,24.8336 18.2647,24.2444 18.7535,23.7843 19.3968,23.5837 19.1586,22.8015 18.7733,22.5828 18.2406,23.2503 17.7486,23.753 17.2466,24.2558 16.7492,24.7514 16.2639,25.2294 15.7412,25.6781 15.2624,26.1881 14.7292,26.3814 14.3195,26.8215 14.2116,27.2121 13.8242,27.3226 13.5109,27.7526 13.3291,28.1852 13.4392,28.7991 13.3676,29.1762 13.4701,29.7979 13.357,30.4216 13.4917,30.7752 13.5008,31.249 13.4972,31.7494 13.447,32.3889 13.8312,32.6415 z M 34.1766,32.5414 34.5199,32.3646 33.7773,31.5901 33.7982,32.0139 34.1766,32.5414 z M 34.6498,30.4454 34.5462,29.783 34.932,29.5662 34.8546,29.1474 34.8065,28.7533 35.1877,28.2931 35.4694,27.7468 35.498,27.2492 35.5203,26.7321 35.6584,26.4937 35.4942,25.7358 35.3639,25.1965 34.742,24.2766 34.242,23.7999 33.7545,23.7999 33.2545,24.2403 32.5509,24.7952 32.3405,25.2106 32.2086,26.002 31.577,26.7883 31.5393,27.2785 31.7785,28.0015 32.2517,28.7229 32.8011,29.3138 33.2778,29.7491 34.0864,30.2728 34.6498,30.4454 z M 33.0189,28.2155 32.6214,27.7896 32.7892,27.0106 33.2393,26.5605 33.8071,26.572 34.2191,26.7782 34.4082,27.2098 34.2126,27.974 33.6164,28.3874 33.0189,28.2155 z M 26.7904,25.6069 27.444,25.1892 27.5123,24.7332 27.669,24.1328 27.7932,23.2322 28.4477,22.2173 28.6597,21.8038 28.7896,20.961 29.1985,20.0522 29.206,19.4269 28.7212,19.824 27.9913,20.7875 27.2701,21.9414 26.8475,22.4629 26.3462,22.853 26.3928,23.154 26.4924,23.7569 26.4919,24.2426 26.3861,24.8365 26.2816,25.1978 26.7904,25.6069 z M 5.20056,22.6702 5.55393,22.1765 5.36915,21.7916 4.78467,20.9999 4.57627,20.2084 4.37634,19.8397 3.77689,19.8026 3.51802,20.2411 3.32871,20.7765 3.75474,21.2501 4.2497,21.7495 4.74966,22.2457 5.20056,22.6702 z M 23.7531,21.1782 23.9347,20.8216 24.1947,20.2418 23.9564,19.7594 23.14,19.1765 22.964,18.8229 23.1975,18.2405 22.957,17.7595 22.1412,17.1771 21.9642,16.8228 22.2241,16.2388 22.2125,15.7554 21.8428,15.1817 20.7271,14.7492 19.4554,14.3125 19.2211,14.491 18.7755,14.5237 18.3555,14.8185 18.7406,15.2434 19.2137,15.8132 19.1964,16.1618 18.9296,16.6256 19.4495,16.7886 19.3801,17.459 19.851,17.6163 20.2061,17.7811 20.2599,18.1743 20.4763,18.7645 20.3863,19.4121 20.8503,19.6141 21.2193,19.7805 21.3845,20.1508 21.5583,20.6236 22.2724,20.7875 22.9713,21.199 23.7531,21.1782 z M 3.2178,19.2012 3.43436,18.7166 3.21664,18.0385 2.77817,17.8219 2.51843,18.2402 2.30718,18.7779 2.52944,19.2166 3.2178,19.2012 z M 2.22087,17.2013 2.46395,16.7431 2.46169,16.1803 2.21861,15.2704 1.53133,14.8054 1.50531,15.2513 1.50144,15.7516 1.50004,16.2502 1.50472,16.7499 1.55248,17.2181 2.22087,17.2013 z M 31.671,15.4477 31.0053,14.8038 30.5034,14.8589 31.2555,15.4323 31.671,15.4477 z M 27.8224,14.6808 28.1768,14.6529 28.7766,14.5972 29.2468,14.4916 29.5208,14.3792 28.9728,13.7585 28.1495,13.2213 27.0422,12.7756 26.2756,12.5305 25.7361,12.5189 25.2477,12.6125 24.83,13.2203 25.2486,13.4717 25.8411,13.5603 26.2289,13.547 26.9873,13.7821 27.4409,14.1807 27.8224,14.6808 z M 19.6021,12.4207 19.5828,11.8258 19.4807,11.2465 19.1745,10.5959 18.8533,10.7012 18.5317,11.2516 18.4808,11.8208 19.1595,12.32 19.6021,12.4207 z M 19.1583,9.41759 19.2217,8.76119 18.9633,8.17359 18.8174,7.75516 19.1983,7.2918 19.7667,6.03321 20.2319,5.56798 20.8039,5.71884 21.148,5.65145 21.6503,5.44339 21.1554,4.62407 20.7204,4.54615 19.8508,4.82913 19.2638,5.20014 18.7511,5.20014 18.2511,4.78998 17.8497,4.70969 17.8321,5.46635 18.2096,5.99317 18.3633,6.83609 18.2165,7.21524 17.8534,7.34444 17.4499,7.60906 17.7745,8.24729 18.2532,8.74724 18.8354,9.302 19.1583,9.41759 z M 21.1969,8.21586 21.1485,7.57319 20.7901,7.55526 20.8602,8.35304 21.1969,8.21586 z "
id="path16" 
inkscape:connector-curvature="0" sodipodi:nodetypes="cccccccccc" />
</svg>
